<svg xmlns="http://www.w3.org/2000/svg" width="393.6702880859375" height="411.814697265625" viewBox="-95.62006378173828 -116.03447723388672 393.6702880859375 411.814697265625"><title>Neo4j Graph Visualization</title><desc>Created using Neo4j (http://www.neo4j.com/)</desc><g class="layer relationships"><g class="relationship" transform="translate(99.21893649802976 -87.03447354905201) rotate(385.36503988324955)"><path class="outline" fill="#A5ABB6" stroke="none" d="M 24.018736134675446,-6.953439040707552 L 24.277555179777966,-5.987513214418485 A 107.80039695982431 107.80039695982431 0 0 1 40.876157718805445,-9.066603564510103 L 40.771314011523,-10.061092275880569 A 108.80039695982431 108.80039695982431 0 0 0 24.018736134675446,-6.953439040707552 Z M 60.16571074686802,-10.367138684566441 L 60.092297781589735,-9.369837056908565 A 107.80039695982431 107.80039695982431 0 0 1 76.77978864003619,-6.81600611459804 L 76.09515003893867,-3.8951723319450062 L 83.70917389974285,-5.705321675812667 L 77.69264010816622,-10.71045115813542 L 77.0080015070687,-7.789617375482385 A 108.80039695982431 108.80039695982431 0 0 0 60.16571074686802,-10.367138684566441"/><text text-anchor="middle" pointer-events="none" font-size="8px" fill="#000000" x="50.46956766697038" y="-7.1472410808026865" font-family="sans-serif">trek</text></g><g class="relationship" transform="translate(196.85208380984497 -40.74783008737876) rotate(410.57841358022154)"><path class="outline" fill="#A5ABB6" stroke="none" d="M 21.40063509461097,-12.933012701892217 L 21.90063509461097,-12.06698729810778 A 66.38332371606047 66.38332371606047 0 0 1 42.33142909707053,-19.722610391005745 L 42.139199073907605,-20.703960286911766 A 67.38332371606047 67.38332371606047 0 0 0 21.40063509461097,-12.933012701892217 Z M 64.16134516572885,-21.347580549554664 L 64.0267562539188,-20.356679028303546 A 66.38332371606047 66.38332371606047 0 0 1 84.86978292686715,-13.907326531950563 L 83.52407661205866,-11.226081575911559 L 91.35030554342623,-11.21421929007062 L 86.66405801327845,-17.48231980666923 L 85.31835169846997,-14.80107485063023 A 67.38332371606047 67.38332371606047 0 0 0 64.16134516572885,-21.347580549554664"/><text text-anchor="middle" pointer-events="none" font-size="8px" fill="#000000" x="53.13839612854507" y="-18.432119984868464" font-family="sans-serif">road</text></g><g class="relationship" transform="translate(269.05023803054627 47.08015654120633) rotate(499.09770883209217)"><path class="outline" fill="#A5ABB6" stroke="none" d="M 21.40063509461097,12.933012701892217 L 21.90063509461097,12.06698729810778 A 66.7257675956435 66.7257675956435 0 0 0 43.78199075113485,20.011307463280147 L 43.60992037180439,20.99639212185376 A 67.7257675956435 67.7257675956435 0 0 1 21.40063509461097,12.933012701892217 Z M 63.01175762842337,21.56186242965579 L 62.89735156096834,20.56842835950846 A 66.7257675956435 66.7257675956435 0 0 0 85.20424934715011,13.911983406615596 L 83.85810984811171,11.230955907851616 L 91.68433676077247,11.217829158653329 L 86.99910201253464,17.486686738300904 L 85.65296251349623,14.805659239536924 A 67.7257675956435 67.7257675956435 0 0 1 63.01175762842337,21.56186242965579"/><text text-anchor="middle" pointer-events="none" font-size="8px" fill="#000000" x="53.305042494252504" y="24.47801103999086" transform="rotate(180 53.305042494252504 21.47801103999086)" font-family="sans-serif">trek</text></g><g class="relationship" transform="translate(182.86610006574335 121.74123127576904) rotate(474.34162279399635)"><path class="outline" fill="#A5ABB6" stroke="none" d="M 25 0.5 L 47.59591563988149 0.5 L 47.59591563988149 -0.5 L 25 -0.5 Z M 66.92924865532339 0.5 L 89.52516429520487 0.5 L 89.52516429520487 3.5 L 96.52516429520487 0 L 89.52516429520487 -3.5 L 89.52516429520487 -0.5 L 66.92924865532339 -0.5 Z"/><text text-anchor="middle" pointer-events="none" font-size="8px" fill="#000000" x="57.26258214760244" y="3" transform="rotate(180 57.26258214760244 0)" font-family="sans-serif">trek</text></g><g class="relationship" transform="translate(269.05023803054627 47.08015654120633) rotate(499.09770883209217)"><path class="outline" fill="#A5ABB6" stroke="none" d="M 25 0.5 L 42.52978318109349 0.5 L 42.52978318109349 -0.5 L 25 -0.5 Z M 64.49644940271214 0.5 L 82.02623258380564 0.5 L 82.02623258380564 3.5 L 89.02623258380564 0 L 82.02623258380564 -3.5 L 82.02623258380564 -0.5 L 64.49644940271214 -0.5 Z"/><text text-anchor="middle" pointer-events="none" font-size="8px" fill="#000000" x="53.51311629190282" y="3" transform="rotate(180 53.51311629190282 0)" font-family="sans-serif">road</text></g><g class="relationship" transform="translate(269.05023803054627 47.08015654120633) rotate(499.09770883209217)"><path class="outline" fill="#A5ABB6" stroke="none" d="M 21.40063509461097,-12.933012701892217 L 21.90063509461097,-12.06698729810778 A 66.7257675956435 66.7257675956435 0 0 1 30.886128684035157,-16.394148882770914 L 30.520791707229975,-17.32502421995568 A 67.7257675956435 67.7257675956435 0 0 0 21.40063509461097,-12.933012701892217 Z M 76.29249207354427,-18.659049299767744 L 75.98199026710236,-17.70847651023697 A 66.7257675956435 66.7257675956435 0 0 1 85.20424934715011,-13.911983406615596 L 83.85810984811171,-11.230955907851616 L 91.68433676077247,-11.217829158653329 L 86.99910201253464,-17.486686738300904 L 85.65296251349623,-14.805659239536924 A 67.7257675956435 67.7257675956435 0 0 0 76.29249207354427,-18.659049299767744"/><text text-anchor="middle" pointer-events="none" font-size="8px" fill="#000000" x="53.30504249425251" y="-18.47801103999086" transform="rotate(180 53.30504249425251 -21.47801103999086)" font-family="sans-serif">twowheeler</text></g><g class="relationship" transform="translate(196.85208380984497 -40.74783008737876) rotate(410.57841358022154)"><path class="outline" fill="#A5ABB6" stroke="none" d="M 25 0.5 L 43.680340247488004 0.5 L 43.680340247488004 -0.5 L 25 -0.5 Z M 63.0136732629299 0.5 L 81.6940135104179 0.5 L 81.6940135104179 3.5 L 88.6940135104179 0 L 81.6940135104179 -3.5 L 81.6940135104179 -0.5 L 63.0136732629299 -0.5 Z"/><text text-anchor="middle" pointer-events="none" font-size="8px" fill="#000000" x="53.34700675520895" y="3" font-family="sans-serif">trek</text></g><g class="relationship" transform="translate(196.85208380984497 -40.74783008737876) rotate(410.57841358022154)"><path class="outline" fill="#A5ABB6" stroke="none" d="M 21.40063509461097,12.933012701892217 L 21.90063509461097,12.06698729810778 A 66.38332371606047 66.38332371606047 0 0 0 30.725954166205618,16.327055177394698 L 30.358898986946187,17.257254347131386 A 67.38332371606047 67.38332371606047 0 0 1 21.40063509461097,12.933012701892217 Z M 76.12283309981004,18.594753207164473 L 75.81073011961591,17.644704929573315 A 66.38332371606047 66.38332371606047 0 0 0 84.86978292686715,13.907326531950563 L 83.52407661205866,11.226081575911559 L 91.35030554342623,11.21421929007062 L 86.66405801327845,17.48231980666923 L 85.31835169846997,14.80107485063023 A 67.38332371606047 67.38332371606047 0 0 1 76.12283309981004,18.594753207164473"/><text text-anchor="middle" pointer-events="none" font-size="8px" fill="#000000" x="53.13839612854508" y="24.432119984868464" font-family="sans-serif">twowheeler</text></g><g class="relationship" transform="translate(99.21893649802976 -87.03447354905201) rotate(385.36503988324955)"><path class="outline" fill="#A5ABB6" stroke="none" d="M 24.018736134675446,6.953439040707552 L 24.277555179777966,5.987513214418485 A 107.80039695982431 107.80039695982431 0 0 0 39.57366027638073,8.921277303903338 L 39.45673407701887,9.914417910213828 A 108.80039695982431 108.80039695982431 0 0 1 24.018736134675446,6.953439040707552 Z M 61.484264082709316,10.262015545884339 L 61.39873210525198,9.265680120020022 A 107.80039695982431 107.80039695982431 0 0 0 76.77978864003619,6.81600611459804 L 76.09515003893867,3.8951723319450062 L 83.70917389974285,5.705321675812667 L 77.69264010816622,10.71045115813542 L 77.0080015070687,7.789617375482385 A 108.80039695982431 108.80039695982431 0 0 1 61.484264082709316,10.262015545884339"/><text text-anchor="middle" pointer-events="none" font-size="8px" fill="#000000" x="50.46956766697037" y="13.147241080802686" font-family="sans-serif">road</text></g><g class="relationship" transform="translate(99.21893649802976 -87.03447354905201) rotate(448.30719230036476)"><path class="outline" fill="#A5ABB6" stroke="none" d="M 21.40063509461097,12.933012701892217 L 21.90063509461097,12.06698729810778 A 64.3446398813808 64.3446398813808 0 0 0 41.34723088193246,19.41657073853554 L 41.14945645694806,20.39681829748281 A 65.3446398813808 65.3446398813808 0 0 1 21.40063509461097,12.933012701892217 Z M 63.17008819614011,21.051194877119087 L 63.030870454985624,20.060933083173744 A 64.3446398813808 64.3446398813808 0 0 0 82.87957378806925,13.879069249465063 L 81.53649600540362,11.196506655654815 L 89.36273280407076,11.192314855546956 L 84.67034416495676,17.455819374545392 L 83.32726638229113,14.773256780735144 A 65.3446398813808 65.3446398813808 0 0 1 63.17008819614011,21.051194877119087"/><text text-anchor="middle" pointer-events="none" font-size="8px" fill="#000000" x="52.14684814846707" y="24.158922161638486" font-family="sans-serif">road</text></g><g class="relationship" transform="translate(102.5191551147424 24.634191398411893) rotate(518.002187192976)"><path class="outline" fill="#A5ABB6" stroke="none" d="M 24.018736134675446,-6.953439040707552 L 24.277555179777966,-5.987513214418485 A 138.68515096401347 138.68515096401347 0 0 1 48.625660013398154,-10.231616803315632 L 48.542404860063236,-11.228145066559165 A 139.68515096401347 139.68515096401347 0 0 0 24.018736134675446,-6.953439040707552 Z M 67.92772226313171,-11.497614106303786 L 67.87219876126036,-10.499156725771229 A 138.68515096401347 138.68515096401347 0 0 1 92.32886493426943,-6.93347250472158 L 91.63325438356749,-4.01523228812663 L 99.25402719810796,-5.796754589182869 L 93.25634566853869,-10.824459460181512 L 92.56073511783674,-7.906219243586563 A 139.68515096401347 139.68515096401347 0 0 0 67.92772226313171,-11.497614106303786"/><text text-anchor="middle" pointer-events="none" font-size="8px" fill="#000000" x="58.237332566220815" y="-8.199649796270364" transform="rotate(180 58.237332566220815 -11.199649796270364)" font-family="sans-serif">trek</text></g><g class="relationship" transform="translate(-12.057220197259639 70.92096418986482) rotate(423.5632117345316)"><path class="outline" fill="#A5ABB6" stroke="none" d="M 24.018736134675446,-6.953439040707552 L 24.277555179777966,-5.987513214418485 A 113.15666419855606 113.15666419855606 0 0 1 28.937283343884488,-7.130777479145763 L 28.719643739666953,-8.10680668089951 A 114.15666419855606 114.15666419855606 0 0 0 24.018736134675446,-6.953439040707552 Z M 74.96251863921553,-8.819861900279165 L 74.77507567357874,-7.837586412122562 A 113.15666419855606 113.15666419855606 0 0 1 79.4678378778514,-6.838535544288482 L 78.78109486258106,-3.918195832717686 L 86.3964210407283,-5.722858460586156 L 80.38349523154517,-10.732321826382877 L 79.69675221627483,-7.811982114812081 A 114.15666419855606 114.15666419855606 0 0 0 74.96251863921553,-8.819861900279165"/><text text-anchor="middle" pointer-events="none" font-size="8px" fill="#000000" x="51.81230186948212" y="-7.329723395379418" font-family="sans-serif">twowheeler</text></g><g class="relationship" transform="translate(37.24205656658598 170.07380962875848) rotate(393.1469051737505)"><path class="outline" fill="#A5ABB6" stroke="none" d="M 24.018736134675446,6.953439040707552 L 24.277555179777966,5.987513214418485 A 119.87121146211729 119.87121146211729 0 0 0 30.597080961602735,7.498509134223312 L 30.39098121168997,8.477040121512886 A 120.87121146211729 120.87121146211729 0 0 1 24.018736134675446,6.953439040707552 Z M 76.6577336762867,9.170575444565898 L 76.48105615521052,8.186306653256125 A 119.87121146211729 119.87121146211729 0 0 0 82.84303187183437,6.865405537387528 L 82.15377903447101,3.9456571704581846 L 89.77065353423006,5.743773644694599 L 83.7620356549855,10.758403359959987 L 83.07278281762214,7.8386549930306435 A 120.87121146211729 120.87121146211729 0 0 1 76.6577336762867,9.170575444565898"/><text text-anchor="middle" pointer-events="none" font-size="8px" fill="#000000" x="53.4983544654089" y="13.558504392262876" font-family="sans-serif">twowheeler</text></g><g class="relationship" transform="translate(37.24205656658598 170.07380962875848) rotate(393.1469051737505)"><path class="outline" fill="#A5ABB6" stroke="none" d="M 24.018736134675446,-6.953439040707552 L 24.277555179777966,-5.987513214418485 A 119.87121146211729 119.87121146211729 0 0 1 43.89655019335743,-9.52814334044804 L 43.80139842728111,-10.52360611796037 A 120.87121146211729 120.87121146211729 0 0 0 24.018736134675446,-6.953439040707552 Z M 63.19199972019608,-10.814269849808952 L 63.1267278332093,-9.816402333166991 A 119.87121146211729 119.87121146211729 0 0 1 82.84303187183437,-6.865405537387528 L 82.15377903447101,-3.9456571704581846 L 89.77065353423006,-5.743773644694599 L 83.7620356549855,-10.758403359959987 L 83.07278281762214,-7.8386549930306435 A 120.87121146211729 120.87121146211729 0 0 0 63.19199972019608,-10.814269849808952"/><text text-anchor="middle" pointer-events="none" font-size="8px" fill="#000000" x="53.49835446540889" y="-7.558504392262876" font-family="sans-serif">trek</text></g><g class="relationship" transform="translate(-12.057220197259639 70.92096418986482) rotate(423.5632117345316)"><path class="outline" fill="#A5ABB6" stroke="none" d="M 24.018736134675446,6.953439040707552 L 24.277555179777966,5.987513214418485 A 113.15666419855606 113.15666419855606 0 0 0 42.21491792838372,9.27259871871857 L 42.11461683602971,10.2675558488868 A 114.15666419855606 114.15666419855606 0 0 1 24.018736134675446,6.953439040707552 Z M 61.507293130850805,10.566586760779714 L 61.43771648167331,9.569010152248211 A 113.15666419855606 113.15666419855606 0 0 0 79.4678378778514,6.838535544288482 L 78.78109486258106,3.918195832717686 L 86.3964210407283,5.722858460586156 L 80.38349523154517,10.732321826382877 L 79.69675221627483,7.811982114812081 A 114.15666419855606 114.15666419855606 0 0 1 61.507293130850805,10.566586760779714"/><text text-anchor="middle" pointer-events="none" font-size="8px" fill="#000000" x="51.81230186948213" y="13.329723395379418" font-family="sans-serif">trek</text></g><g class="relationship" transform="translate(102.5191551147424 24.634191398411893) rotate(410.3954411932056)"><path class="outline" fill="#A5ABB6" stroke="none" d="M 25 0.5 L 49.8519988952805 0.5 L 49.8519988952805 -0.5 L 25 -0.5 Z M 69.1853319107224 0.5 L 94.0373308060029 0.5 L 94.0373308060029 3.5 L 101.0373308060029 0 L 94.0373308060029 -3.5 L 94.0373308060029 -0.5 L 69.1853319107224 -0.5 Z"/><text text-anchor="middle" pointer-events="none" font-size="8px" fill="#000000" x="59.51866540300145" y="3" font-family="sans-serif">trek</text></g><g class="relationship" transform="translate(102.5191551147424 24.634191398411893) rotate(518.002187192976)"><path class="outline" fill="#A5ABB6" stroke="none" d="M 24.018736134675446,6.953439040707552 L 24.277555179777966,5.987513214418485 A 138.68515096401347 138.68515096401347 0 0 0 35.27979723184397,8.460908097324563 L 35.10031070342106,9.444668528585481 A 139.68515096401347 139.68515096401347 0 0 1 24.018736134675446,6.953439040707552 Z M 81.41419610748815,10.08846289971612 L 81.26212351824938,9.100093572186069 A 138.68515096401347 138.68515096401347 0 0 0 92.32886493426943,6.93347250472158 L 91.63325438356749,4.01523228812663 L 99.25402719810796,5.796754589182869 L 93.25634566853869,10.824459460181512 L 92.56073511783674,7.906219243586563 A 139.68515096401347 139.68515096401347 0 0 1 81.41419610748815,10.08846289971612"/><text text-anchor="middle" pointer-events="none" font-size="8px" fill="#000000" x="58.23733256622084" y="14.199649796270364" transform="rotate(180 58.23733256622084 11.199649796270364)" font-family="sans-serif">twowheeler</text></g><g class="relationship" transform="translate(99.21893649802976 -87.03447354905201) rotate(448.30719230036476)"><path class="outline" fill="#A5ABB6" stroke="none" d="M 25 0.5 L 42.69204403519046 0.5 L 42.69204403519046 -0.5 L 25 -0.5 Z M 62.02537705063236 0.5 L 79.71742108582282 0.5 L 79.71742108582282 3.5 L 86.71742108582282 0 L 79.71742108582282 -3.5 L 79.71742108582282 -0.5 L 62.02537705063236 -0.5 Z"/><text text-anchor="middle" pointer-events="none" font-size="8px" fill="#000000" x="52.35871054291141" y="3" font-family="sans-serif">trek</text></g><g class="relationship" transform="translate(99.21893649802976 -87.03447354905201) rotate(448.30719230036476)"><path class="outline" fill="#A5ABB6" stroke="none" d="M 21.40063509461097,-12.933012701892217 L 21.90063509461097,-12.06698729810778 A 64.3446398813808 64.3446398813808 0 0 1 22.945566332121032,-12.657354109716017 L 22.461805932489245,-13.532554587177096 A 65.3446398813808 65.3446398813808 0 0 0 21.40063509461097,-12.933012701892217 Z M 82.23236691017921,-15.308727755992692 L 81.8014300816039,-14.406345658554216 A 64.3446398813808 64.3446398813808 0 0 1 82.87957378806925,-13.879069249465063 L 81.53649600540362,-11.196506655654815 L 89.36273280407076,-11.192314855546956 L 84.67034416495676,-17.455819374545392 L 83.32726638229113,-14.773256780735144 A 65.3446398813808 65.3446398813808 0 0 0 82.23236691017921,-15.308727755992692"/><text text-anchor="middle" pointer-events="none" font-size="8px" fill="#000000" x="52.14684814846708" y="-18.158922161638486" font-family="sans-serif">PublicTransport</text></g><g class="relationship" transform="translate(102.5191551147424 24.634191398411893) rotate(325.2742241352462)"><path class="outline" fill="#A5ABB6" stroke="none" d="M 25 0.5 L 44.221289915564626 0.5 L 44.221289915564626 -0.5 L 25 -0.5 Z M 63.55462293100652 0.5 L 82.77591284657115 0.5 L 82.77591284657115 3.5 L 89.77591284657115 0 L 82.77591284657115 -3.5 L 82.77591284657115 -0.5 L 63.55462293100652 -0.5 Z"/><text text-anchor="middle" pointer-events="none" font-size="8px" fill="#000000" x="53.88795642328557" y="3" font-family="sans-serif">trek</text></g><g class="relationship" transform="translate(-12.057220197259639 70.92096418986482) rotate(477.4262773141761)"><path class="outline" fill="#A5ABB6" stroke="none" d="M 24.018736134675446,-6.953439040707552 L 24.277555179777966,-5.987513214418485 A 128.5361706884312 128.5361706884312 0 0 1 46.07166409186814,-9.854174458331954 L 45.98240127981164,-10.85018256592133 A 129.5361706884312 129.5361706884312 0 0 0 24.018736134675446,-6.953439040707552 Z M 65.37047087459784,-11.130696786369043 L 65.31006066874941,-10.132523150657619 A 128.5361706884312 128.5361706884312 0 0 1 87.20691231230016,-6.897999917233544 L 86.51461500762068,-3.9789719211476005 L 94.13336052061393,-5.769144205662398 L 88.12997538520614,-10.790037245348135 L 87.43767808052665,-7.871009249262191 A 129.5361706884312 129.5361706884312 0 0 0 65.37047087459784,-11.130696786369043"/><text text-anchor="middle" pointer-events="none" font-size="8px" fill="#000000" x="55.678413420299776" y="-7.853773287260992" transform="rotate(180 55.678413420299776 -10.853773287260992)" font-family="sans-serif">trek</text></g><g class="relationship" transform="translate(-66.62006721186049 176.06531342361177) rotate(356.69843222362147)"><path class="outline" fill="#A5ABB6" stroke="none" d="M 21.40063509461097,12.933012701892217 L 21.90063509461097,12.06698729810778 A 56.39827100921989 56.39827100921989 0 0 0 26.11672823450691,14.26952087984035 L 25.691483950674286,15.174599494695258 A 57.39827100921989 57.39827100921989 0 0 1 21.40063509461097,12.933012701892217 Z M 71.15911313417718,16.62002252453231 L 70.79221458192683,15.689761565254436 A 56.39827100921989 56.39827100921989 0 0 0 75.13969103110138,13.759465197643987 L 73.80773953770611,11.071360806210851 L 81.63392652667791,11.099595778293887 L 76.9156263556284,17.343604386221504 L 75.58367486223314,14.655499994788368 A 57.39827100921989 57.39827100921989 0 0 1 71.15911313417718,16.62002252453231"/><text text-anchor="middle" pointer-events="none" font-size="8px" fill="#000000" x="48.291878990886694" y="23.094193562322374" font-family="sans-serif">twowheeler</text></g><g class="relationship" transform="translate(-66.62006721186049 176.06531342361177) rotate(356.69843222362147)"><path class="outline" fill="#A5ABB6" stroke="none" d="M 25 0.5 L 38.85073171992274 0.5 L 38.85073171992274 -0.5 L 25 -0.5 Z M 58.184064735364636 0.5 L 72.03479645528738 0.5 L 72.03479645528738 3.5 L 79.03479645528738 0 L 72.03479645528738 -3.5 L 72.03479645528738 -0.5 L 58.184064735364636 -0.5 Z"/><text text-anchor="middle" pointer-events="none" font-size="8px" fill="#000000" x="48.51739822764369" y="3" font-family="sans-serif">trek</text></g><g class="relationship" transform="translate(-66.62006721186049 176.06531342361177) rotate(356.69843222362147)"><path class="outline" fill="#A5ABB6" stroke="none" d="M 21.40063509461097,-12.933012701892217 L 21.90063509461097,-12.06698729810778 A 56.39827100921989 56.39827100921989 0 0 1 37.52718228256818,-18.20369329812621 L 37.30425721604269,-19.178528881552772 A 57.39827100921989 57.39827100921989 0 0 0 21.40063509461097,-12.933012701892217 Z M 59.31547416745483,-19.878268904677938 L 59.15491700421286,-18.891242361300463 A 56.39827100921989 56.39827100921989 0 0 1 75.13969103110138,-13.759465197643987 L 73.80773953770611,-11.071360806210851 L 81.63392652667791,-11.099595778293887 L 76.9156263556284,-17.343604386221504 L 75.58367486223314,-14.655499994788368 A 57.39827100921989 57.39827100921989 0 0 0 59.31547416745483,-19.878268904677938"/><text text-anchor="middle" pointer-events="none" font-size="8px" fill="#000000" x="48.2918789908867" y="-17.094193562322374" font-family="sans-serif">road</text></g><g class="relationship" transform="translate(-12.057220197259639 70.92096418986482) rotate(477.4262773141761)"><path class="outline" fill="#A5ABB6" stroke="none" d="M 24.018736134675446,6.953439040707552 L 24.277555179777966,5.987513214418485 A 128.5361706884312 128.5361706884312 0 0 0 32.748523818975,7.952769041685102 L 32.555608158062526,8.933984383888188 A 129.5361706884312 129.5361706884312 0 0 1 24.018736134675446,6.953439040707552 Z M 78.8470808070266,9.603747626691543 L 78.68263317394216,8.617361811722105 A 128.5361706884312 128.5361706884312 0 0 0 87.20691231230016,6.897999917233544 L 86.51461500762068,3.9789719211476005 L 94.13336052061393,5.769144205662398 L 88.12997538520614,10.790037245348135 L 87.43767808052665,7.871009249262191 A 129.5361706884312 129.5361706884312 0 0 1 78.8470808070266,9.603747626691543"/><text text-anchor="middle" pointer-events="none" font-size="8px" fill="#000000" x="55.6784134202998" y="13.853773287260992" transform="rotate(180 55.6784134202998 10.853773287260992)" font-family="sans-serif">twowheeler</text></g><g class="relationship" transform="translate(-66.62006721186049 176.06531342361177) rotate(407.4231911598635)"><path class="outline" fill="#A5ABB6" stroke="none" d="M 25 0.5 L 48.42926148544447 0.5 L 48.42926148544447 -0.5 L 25 -0.5 Z M 67.76259450088637 0.5 L 91.19185598633084 0.5 L 91.19185598633084 3.5 L 98.19185598633084 0 L 91.19185598633084 -3.5 L 91.19185598633084 -0.5 L 67.76259450088637 -0.5 Z"/><text text-anchor="middle" pointer-events="none" font-size="8px" fill="#000000" x="58.09592799316542" y="3" font-family="sans-serif">trek</text></g><g class="relationship" transform="translate(16.728828637218758 266.7802236759855) rotate(343.52628874018114)"><path class="outline" fill="#A5ABB6" stroke="none" d="M 25 0.5 L 47.3409094736225 0.5 L 47.3409094736225 -0.5 L 25 -0.5 Z M 66.6742424890644 0.5 L 89.0151519626869 0.5 L 89.0151519626869 3.5 L 96.0151519626869 0 L 89.0151519626869 -3.5 L 89.0151519626869 -0.5 L 66.6742424890644 -0.5 Z"/><text text-anchor="middle" pointer-events="none" font-size="8px" fill="#000000" x="57.00757598134345" y="3" font-family="sans-serif">trek</text></g></g><g class="layer nodes"><g class="node" transform="translate(99.21893649802976,-87.03447354905201)"><circle class="outline" cx="0" cy="0" r="25" fill="#F16667" stroke="#eb2728" stroke-width="2px"/><text text-anchor="middle" pointer-events="none" font-family="sans-serif" dy="1.5625" font-size="25" fill="#FFFFFF"/><text text-anchor="middle" pointer-events="none" x="0" y="5" font-size="10px" fill="#FFFFFF" font-family="sans-serif"> Darjeeling</text></g><g class="node" transform="translate(132.77630223423344,232.4633054533015)"><circle class="outline" cx="0" cy="0" r="25" fill="#8DCC93" stroke="#5db665" stroke-width="2px"/><text text-anchor="middle" pointer-events="none" font-family="sans-serif" dy="1.5625" font-size="25" fill="#2A2C34"/><text text-anchor="middle" pointer-events="none" x="0" y="5" font-size="10px" fill="#2A2C34" font-family="sans-serif"> Sandak…</text></g><g class="node" transform="translate(196.85208380984497,-40.74783008737876)"><circle class="outline" cx="0" cy="0" r="25" fill="#D9C8AE" stroke="#c0a378" stroke-width="2px"/><text text-anchor="middle" pointer-events="none" font-family="sans-serif" dy="1.5625" font-size="25" fill="#2A2C34"/><text text-anchor="middle" pointer-events="none" x="0" y="5" font-size="10px" fill="#2A2C34" font-family="sans-serif"> Tumbling</text></g><g class="node" transform="translate(269.05023803054627,47.08015654120633)"><circle class="outline" cx="0" cy="0" r="25" fill="#D9C8AE" stroke="#c0a378" stroke-width="2px"/><text text-anchor="middle" pointer-events="none" font-family="sans-serif" dy="1.5625" font-size="25" fill="#2A2C34"/><text text-anchor="middle" pointer-events="none" x="0" y="5" font-size="10px" fill="#2A2C34" font-family="sans-serif"> Gairibus</text></g><g class="node" transform="translate(182.86610006574335,121.74123127576904)"><circle class="outline" cx="0" cy="0" r="25" fill="#D9C8AE" stroke="#c0a378" stroke-width="2px"/><text text-anchor="middle" pointer-events="none" font-family="sans-serif" dy="1.5625" font-size="25" fill="#2A2C34"/><text text-anchor="middle" pointer-events="none" x="0" y="5" font-size="10px" fill="#2A2C34" font-family="sans-serif"> BhikeBh…</text></g><g class="node" transform="translate(102.5191551147424,24.634191398411893)"><circle class="outline" cx="0" cy="0" r="25" fill="#F16667" stroke="#eb2728" stroke-width="2px"/><text text-anchor="middle" pointer-events="none" font-family="sans-serif" dy="1.5625" font-size="25" fill="#FFFFFF"/><text text-anchor="middle" pointer-events="none" x="0" y="5" font-size="10px" fill="#FFFFFF" font-family="sans-serif"> Rimbik</text></g><g class="node" transform="translate(-12.057220197259639,70.92096418986482)"><circle class="outline" cx="0" cy="0" r="25" fill="#D9C8AE" stroke="#c0a378" stroke-width="2px"/><text text-anchor="middle" pointer-events="none" font-family="sans-serif" dy="1.5625" font-size="25" fill="#2A2C34"/><text text-anchor="middle" pointer-events="none" x="0" y="5" font-size="10px" fill="#2A2C34" font-family="sans-serif"> Sirikhola</text></g><g class="node" transform="translate(37.24205656658598,170.07380962875848)"><circle class="outline" cx="0" cy="0" r="25" fill="#D9C8AE" stroke="#c0a378" stroke-width="2px"/><text text-anchor="middle" pointer-events="none" font-family="sans-serif" dy="1.5625" font-size="25" fill="#2A2C34"/><text text-anchor="middle" pointer-events="none" x="0" y="5" font-size="10px" fill="#2A2C34" font-family="sans-serif"> Gurdum</text></g><g class="node" transform="translate(-66.62006721186049,176.06531342361177)"><circle class="outline" cx="0" cy="0" r="25" fill="#D9C8AE" stroke="#c0a378" stroke-width="2px"/><text text-anchor="middle" pointer-events="none" font-family="sans-serif" dy="1.5625" font-size="25" fill="#2A2C34"/><text text-anchor="middle" pointer-events="none" x="0" y="5" font-size="10px" fill="#2A2C34" font-family="sans-serif"> Rammam</text></g><g class="node" transform="translate(16.728828637218758,266.7802236759855)"><circle class="outline" cx="0" cy="0" r="25" fill="#8DCC93" stroke="#5db665" stroke-width="2px"/><text text-anchor="middle" pointer-events="none" font-family="sans-serif" dy="1.5625" font-size="25" fill="#2A2C34"/><text text-anchor="middle" pointer-events="none" x="0" y="5" font-size="10px" fill="#2A2C34" font-family="sans-serif"> Sabargr…</text></g></g></svg>