<svg xmlns="http://www.w3.org/2000/svg" width="1311.5078125" height="1138.40234375" viewBox="-541.0808715820312 -512.8445434570312 1311.5078125 1138.40234375"><title>Neo4j Graph Visualization</title><desc>Created using Neo4j (http://www.neo4j.com/)</desc><g class="layer relationships"><g class="relationship" transform="translate(-216.28090235670706 38.37740576178307) rotate(448.13293716447424)"><path class="outline" fill="#A5ABB6" stroke="none" d="M 25 0.5 L 62.41717199330091 0.5 L 62.41717199330091 -0.5 L 25 -0.5 Z M 96.86248449330091 0.5 L 134.27965648660182 0.5 L 134.27965648660182 3.5 L 141.27965648660182 0 L 134.27965648660182 -3.5 L 134.27965648660182 -0.5 L 96.86248449330091 -0.5 Z"/><text text-anchor="middle" pointer-events="none" font-size="8px" fill="#000000" x="79.63982824330091" y="3" font-family="sans-serif">ORIGIN</text></g><g class="relationship" transform="translate(-216.28090235670706 38.37740576178307) rotate(279.4300483579533)"><path class="outline" fill="#A5ABB6" stroke="none" d="M 25 0.5 L 60.18207657444363 0.5 L 60.18207657444363 -0.5 L 25 -0.5 Z M 119.37348282444363 0.5 L 154.55555939888725 0.5 L 154.55555939888725 3.5 L 161.55555939888725 0 L 154.55555939888725 -3.5 L 154.55555939888725 -0.5 L 119.37348282444363 -0.5 Z"/><text text-anchor="middle" pointer-events="none" font-size="8px" fill="#000000" x="89.77777969944363" y="3" font-family="sans-serif">DESTINATION</text></g><g class="relationship" transform="translate(-11.947316932077497 -265.13031972809193) rotate(505.4897047986997)"><path class="outline" fill="#A5ABB6" stroke="none" d="M 25 0.5 L 84.71578664755124 0.5 L 84.71578664755124 -0.5 L 25 -0.5 Z M 119.16109914755124 0.5 L 178.87688579510248 0.5 L 178.87688579510248 3.5 L 185.87688579510248 0 L 178.87688579510248 -3.5 L 178.87688579510248 -0.5 L 119.16109914755124 -0.5 Z"/><text text-anchor="middle" pointer-events="none" font-size="8px" fill="#000000" x="101.93844289755124" y="3" transform="rotate(180 101.93844289755124 0)" font-family="sans-serif">ORIGIN</text></g><g class="relationship" transform="translate(-67.95912424329165 287.0650103757315) rotate(209.99711262207313)"><path class="outline" fill="#A5ABB6" stroke="none" d="M 25 0.5 L 61.780769459057595 0.5 L 61.780769459057595 -0.5 L 25 -0.5 Z M 96.2260819590576 0.5 L 133.0068514181152 0.5 L 133.0068514181152 3.5 L 140.0068514181152 0 L 133.0068514181152 -3.5 L 133.0068514181152 -0.5 L 96.2260819590576 -0.5 Z"/><text text-anchor="middle" pointer-events="none" font-size="8px" fill="#000000" x="79.0034257090576" y="3" transform="rotate(180 79.0034257090576 0)" font-family="sans-serif">ORIGIN</text></g><g class="relationship" transform="translate(-67.95912424329165 287.0650103757315) rotate(407.07600605164066)"><path class="outline" fill="#A5ABB6" stroke="none" d="M 25 0.5 L 25.802178791422463 0.5 L 25.802178791422463 -0.5 L 25 -0.5 Z M 69.13811629142246 0.5 L 69.94029508284493 0.5 L 69.94029508284493 3.5 L 76.94029508284493 0 L 69.94029508284493 -3.5 L 69.94029508284493 -0.5 L 69.13811629142246 -0.5 Z"/><text text-anchor="middle" pointer-events="none" font-size="8px" fill="#000000" x="47.47014754142246" y="3" font-family="sans-serif">DESTIN…</text></g><g class="relationship" transform="translate(-105.86336535873278 240.8249186547365) rotate(408.399949554289)"><path class="outline" fill="#A5ABB6" stroke="none" d="M 25 0.5 L 60.10581909298996 0.5 L 60.10581909298996 -0.5 L 25 -0.5 Z M 94.55113159298996 0.5 L 129.65695068597992 0.5 L 129.65695068597992 3.5 L 136.65695068597992 0 L 129.65695068597992 -3.5 L 129.65695068597992 -0.5 L 94.55113159298996 -0.5 Z"/><text text-anchor="middle" pointer-events="none" font-size="8px" fill="#000000" x="77.32847534298996" y="3" font-family="sans-serif">ORIGIN</text></g><g class="relationship" transform="translate(-360.89078413554506 302.80439806809505) rotate(326.78383950284314)"><path class="outline" fill="#A5ABB6" stroke="none" d="M 25 0.5 L 68.94122914942285 0.5 L 68.94122914942285 -0.5 L 25 -0.5 Z M 103.38654164942285 0.5 L 147.3277707988457 0.5 L 147.3277707988457 3.5 L 154.3277707988457 0 L 147.3277707988457 -3.5 L 147.3277707988457 -0.5 L 103.38654164942285 -0.5 Z"/><text text-anchor="middle" pointer-events="none" font-size="8px" fill="#000000" x="86.16388539942285" y="3" font-family="sans-serif">ORIGIN</text></g><g class="relationship" transform="translate(-360.89078413554506 302.80439806809505) rotate(212.83165181538766)"><path class="outline" fill="#A5ABB6" stroke="none" d="M 25 0.5 L 56.86978577769345 0.5 L 56.86978577769345 -0.5 L 25 -0.5 Z M 116.06119202769345 0.5 L 147.9309778053869 0.5 L 147.9309778053869 3.5 L 154.9309778053869 0 L 147.9309778053869 -3.5 L 147.9309778053869 -0.5 L 116.06119202769345 -0.5 Z"/><text text-anchor="middle" pointer-events="none" font-size="8px" fill="#000000" x="86.46548890269345" y="3" transform="rotate(180 86.46548890269345 0)" font-family="sans-serif">DESTINATION</text></g><g class="relationship" transform="translate(-326.79794431091995 126.52970978952634) rotate(516.9808433867739)"><path class="outline" fill="#A5ABB6" stroke="none" d="M 25 0.5 L 79.93365827233592 0.5 L 79.93365827233592 -0.5 L 25 -0.5 Z M 114.37897077233592 0.5 L 169.31262904467184 0.5 L 169.31262904467184 3.5 L 176.31262904467184 0 L 169.31262904467184 -3.5 L 169.31262904467184 -0.5 L 114.37897077233592 -0.5 Z"/><text text-anchor="middle" pointer-events="none" font-size="8px" fill="#000000" x="97.15631452233592" y="3" transform="rotate(180 97.15631452233592 0)" font-family="sans-serif">ORIGIN</text></g><g class="relationship" transform="translate(-428.51745368246253 106.83762068667404) rotate(490.334865509732)"><path class="outline" fill="#A5ABB6" stroke="none" d="M 25 0.5 L 43.82964035365346 0.5 L 43.82964035365346 -0.5 L 25 -0.5 Z M 78.27495285365346 0.5 L 97.10459320730692 0.5 L 97.10459320730692 3.5 L 104.10459320730692 0 L 97.10459320730692 -3.5 L 97.10459320730692 -0.5 L 78.27495285365346 -0.5 Z"/><text text-anchor="middle" pointer-events="none" font-size="8px" fill="#000000" x="61.05229660365346" y="3" transform="rotate(180 61.05229660365346 0)" font-family="sans-serif">ORIGIN</text></g><g class="relationship" transform="translate(-394.56660129721763 205.01509611803715) rotate(539.885092248045)"><path class="outline" fill="#A5ABB6" stroke="none" d="M 25 0.5 L 38.034604612125534 0.5 L 38.034604612125534 -0.5 L 25 -0.5 Z M 72.47991711212553 0.5 L 85.51452172425107 0.5 L 85.51452172425107 3.5 L 92.51452172425107 0 L 85.51452172425107 -3.5 L 85.51452172425107 -0.5 L 72.47991711212553 -0.5 Z"/><text text-anchor="middle" pointer-events="none" font-size="8px" fill="#000000" x="55.257260862125534" y="3" transform="rotate(180 55.257260862125534 0)" font-family="sans-serif">ORIGIN</text></g><g class="relationship" transform="translate(16.129150337827536 65.38642525733495) rotate(508.4851124274353)"><path class="outline" fill="#A5ABB6" stroke="none" d="M 25 0.5 L 112.4101257851242 0.5 L 112.4101257851242 -0.5 L 25 -0.5 Z M 146.8554382851242 0.5 L 234.2655640702484 0.5 L 234.2655640702484 3.5 L 241.2655640702484 0 L 234.2655640702484 -3.5 L 234.2655640702484 -0.5 L 146.8554382851242 -0.5 Z"/><text text-anchor="middle" pointer-events="none" font-size="8px" fill="#000000" x="129.6327820351242" y="3" transform="rotate(180 129.6327820351242 0)" font-family="sans-serif">ORIGIN</text></g><g class="relationship" transform="translate(16.129150337827536 65.38642525733495) rotate(337.95305086263727)"><path class="outline" fill="#A5ABB6" stroke="none" d="M 25 0.5 L 94.46991979265493 0.5 L 94.46991979265493 -0.5 L 25 -0.5 Z M 153.66132604265493 0.5 L 223.13124583530987 0.5 L 223.13124583530987 3.5 L 230.13124583530987 0 L 223.13124583530987 -3.5 L 223.13124583530987 -0.5 L 153.66132604265493 -0.5 Z"/><text text-anchor="middle" pointer-events="none" font-size="8px" fill="#000000" x="124.06562291765493" y="3" font-family="sans-serif">DESTINATION</text></g><g class="relationship" transform="translate(456.42424402321416 9.621966123476321) rotate(191.10414528294513)"><path class="outline" fill="#A5ABB6" stroke="none" d="M 25 0.5 L 83.13158475600272 0.5 L 83.13158475600272 -0.5 L 25 -0.5 Z M 117.57689725600272 0.5 L 175.70848201200545 0.5 L 175.70848201200545 3.5 L 182.70848201200545 0 L 175.70848201200545 -3.5 L 175.70848201200545 -0.5 L 117.57689725600272 -0.5 Z"/><text text-anchor="middle" pointer-events="none" font-size="8px" fill="#000000" x="100.35424100600272" y="3" transform="rotate(180 100.35424100600272 0)" font-family="sans-serif">ORIGIN</text></g><g class="relationship" transform="translate(236.46113463032844 -198.4216662756749) rotate(444.51258812302046)"><path class="outline" fill="#A5ABB6" stroke="none" d="M 25 0.5 L 63.684381988896845 0.5 L 63.684381988896845 -0.5 L 25 -0.5 Z M 98.12969448889685 0.5 L 136.8140764777937 0.5 L 136.8140764777937 3.5 L 143.8140764777937 0 L 136.8140764777937 -3.5 L 136.8140764777937 -0.5 L 98.12969448889685 -0.5 Z"/><text text-anchor="middle" pointer-events="none" font-size="8px" fill="#000000" x="80.90703823889685" y="3" font-family="sans-serif">ORIGIN</text></g><g class="relationship" transform="translate(-338.0583056747302 185.27098355622311) rotate(368.62703003332507)"><path class="outline" fill="#A5ABB6" stroke="none" d="M 25 0.5 L 43.602586581487174 0.5 L 43.602586581487174 -0.5 L 25 -0.5 Z M 78.04789908148717 0.5 L 96.65048566297435 0.5 L 96.65048566297435 3.5 L 103.65048566297435 0 L 96.65048566297435 -3.5 L 96.65048566297435 -0.5 L 78.04789908148717 -0.5 Z"/><text text-anchor="middle" pointer-events="none" font-size="8px" fill="#000000" x="60.825242831487174" y="3" font-family="sans-serif">ORIGIN</text></g><g class="relationship" transform="translate(-338.0583056747302 185.27098355622311) rotate(533.4504642815787)"><path class="outline" fill="#A5ABB6" stroke="none" d="M 25 0.5 L 54.487187201101776 0.5 L 54.487187201101776 -0.5 L 25 -0.5 Z M 113.67859345110178 0.5 L 143.16578065220355 0.5 L 143.16578065220355 3.5 L 150.16578065220355 0 L 143.16578065220355 -3.5 L 143.16578065220355 -0.5 L 113.67859345110178 -0.5 Z"/><text text-anchor="middle" pointer-events="none" font-size="8px" fill="#000000" x="84.08289032610178" y="3" transform="rotate(180 84.08289032610178 0)" font-family="sans-serif">DESTINATION</text></g><g class="relationship" transform="translate(-2.282989573650856 126.96200152571214) rotate(519.5912110435874)"><path class="outline" fill="#A5ABB6" stroke="none" d="M 25 0.5 L 90.55245720873273 0.5 L 90.55245720873273 -0.5 L 25 -0.5 Z M 124.99776970873273 0.5 L 190.55022691746547 0.5 L 190.55022691746547 3.5 L 197.55022691746547 0 L 190.55022691746547 -3.5 L 190.55022691746547 -0.5 L 124.99776970873273 -0.5 Z"/><text text-anchor="middle" pointer-events="none" font-size="8px" fill="#000000" x="107.77511345873273" y="3" transform="rotate(180 107.77511345873273 0)" font-family="sans-serif">ORIGIN</text></g><g class="relationship" transform="translate(-2.282989573650856 126.96200152571214) rotate(336.3314990820386)"><path class="outline" fill="#A5ABB6" stroke="none" d="M 25 0.5 L 67.09408096318313 0.5 L 67.09408096318313 -0.5 L 25 -0.5 Z M 126.28548721318313 0.5 L 168.37956817636626 0.5 L 168.37956817636626 3.5 L 175.37956817636626 0 L 168.37956817636626 -3.5 L 168.37956817636626 -0.5 L 126.28548721318313 -0.5 Z"/><text text-anchor="middle" pointer-events="none" font-size="8px" fill="#000000" x="96.68978408818313" y="3" font-family="sans-serif">DESTINATION</text></g><g class="relationship" transform="translate(356.76085775106924 -80.13790803484565) rotate(504.1849713750341)"><path class="outline" fill="#A5ABB6" stroke="none" d="M 25 0.5 L 87.50109460929875 0.5 L 87.50109460929875 -0.5 L 25 -0.5 Z M 121.94640710929875 0.5 L 184.4475017185975 0.5 L 184.4475017185975 3.5 L 191.4475017185975 0 L 184.4475017185975 -3.5 L 184.4475017185975 -0.5 L 121.94640710929875 -0.5 Z"/><text text-anchor="middle" pointer-events="none" font-size="8px" fill="#000000" x="104.72375085929875" y="3" transform="rotate(180 104.72375085929875 0)" font-family="sans-serif">ORIGIN</text></g><g class="relationship" transform="translate(-41.54827722993459 81.6967179682824) rotate(504.03159053182424)"><path class="outline" fill="#A5ABB6" stroke="none" d="M 25 0.5 L 83.87796308574919 0.5 L 83.87796308574919 -0.5 L 25 -0.5 Z M 118.32327558574919 0.5 L 177.20123867149837 0.5 L 177.20123867149837 3.5 L 184.20123867149837 0 L 177.20123867149837 -3.5 L 177.20123867149837 -0.5 L 118.32327558574919 -0.5 Z"/><text text-anchor="middle" pointer-events="none" font-size="8px" fill="#000000" x="101.10061933574919" y="3" transform="rotate(180 101.10061933574919 0)" font-family="sans-serif">ORIGIN</text></g><g class="relationship" transform="translate(-41.54827722993459 81.6967179682824) rotate(351.0277125740415)"><path class="outline" fill="#A5ABB6" stroke="none" d="M 25 0.5 L 79.67902806296203 0.5 L 79.67902806296203 -0.5 L 25 -0.5 Z M 138.87043431296203 0.5 L 193.54946237592407 0.5 L 193.54946237592407 3.5 L 200.54946237592407 0 L 193.54946237592407 -3.5 L 193.54946237592407 -0.5 L 138.87043431296203 -0.5 Z"/><text text-anchor="middle" pointer-events="none" font-size="8px" fill="#000000" x="109.27473118796203" y="3" font-family="sans-serif">DESTINATION</text></g><g class="relationship" transform="translate(-160.20519045810204 17.28133546268455) rotate(465.1354068103792)"><path class="outline" fill="#A5ABB6" stroke="none" d="M 25 0.5 L 76.28616301925877 0.5 L 76.28616301925877 -0.5 L 25 -0.5 Z M 110.73147551925877 0.5 L 162.01763853851753 0.5 L 162.01763853851753 3.5 L 169.01763853851753 0 L 162.01763853851753 -3.5 L 162.01763853851753 -0.5 L 110.73147551925877 -0.5 Z"/><text text-anchor="middle" pointer-events="none" font-size="8px" fill="#000000" x="93.50881926925877" y="3" transform="rotate(180 93.50881926925877 0)" font-family="sans-serif">ORIGIN</text></g><g class="relationship" transform="translate(-160.20519045810204 17.28133546268455) rotate(261.1019405711275)"><path class="outline" fill="#A5ABB6" stroke="none" d="M 25 0.5 L 49.36593727071583 0.5 L 49.36593727071583 -0.5 L 25 -0.5 Z M 108.55734352071583 0.5 L 132.92328079143167 0.5 L 132.92328079143167 3.5 L 139.92328079143167 0 L 132.92328079143167 -3.5 L 132.92328079143167 -0.5 L 108.55734352071583 -0.5 Z"/><text text-anchor="middle" pointer-events="none" font-size="8px" fill="#000000" x="78.96164039571583" y="3" transform="rotate(180 78.96164039571583 0)" font-family="sans-serif">DESTINATION</text></g><g class="relationship" transform="translate(-383.19187581263526 146.02503266971092) rotate(378.76374872463924)"><path class="outline" fill="#A5ABB6" stroke="none" d="M 25 0.5 L 70.27799247012776 0.5 L 70.27799247012776 -0.5 L 25 -0.5 Z M 104.72330497012776 0.5 L 150.0012974402555 0.5 L 150.0012974402555 3.5 L 157.0012974402555 0 L 150.0012974402555 -3.5 L 150.0012974402555 -0.5 L 104.72330497012776 -0.5 Z"/><text text-anchor="middle" pointer-events="none" font-size="8px" fill="#000000" x="87.50064872012776" y="3" font-family="sans-serif">ORIGIN</text></g><g class="relationship" transform="translate(-383.19187581263526 146.02503266971092) rotate(515.3207636810686)"><path class="outline" fill="#A5ABB6" stroke="none" d="M 25 0.5 L 37.826905232922485 0.5 L 37.826905232922485 -0.5 L 25 -0.5 Z M 97.01831148292248 0.5 L 109.84521671584497 0.5 L 109.84521671584497 3.5 L 116.84521671584497 0 L 109.84521671584497 -3.5 L 109.84521671584497 -0.5 L 97.01831148292248 -0.5 Z"/><text text-anchor="middle" pointer-events="none" font-size="8px" fill="#000000" x="67.42260835792248" y="3" transform="rotate(180 67.42260835792248 0)" font-family="sans-serif">DESTINATION</text></g><g class="relationship" transform="translate(43.22953127217664 198.66796880935635) rotate(538.6696554001317)"><path class="outline" fill="#A5ABB6" stroke="none" d="M 25 0.5 L 106.35806698050328 0.5 L 106.35806698050328 -0.5 L 25 -0.5 Z M 140.80337948050328 0.5 L 222.16144646100656 0.5 L 222.16144646100656 3.5 L 229.16144646100656 0 L 222.16144646100656 -3.5 L 222.16144646100656 -0.5 L 140.80337948050328 -0.5 Z"/><text text-anchor="middle" pointer-events="none" font-size="8px" fill="#000000" x="123.58072323050328" y="3" transform="rotate(180 123.58072323050328 0)" font-family="sans-serif">ORIGIN</text></g><g class="relationship" transform="translate(43.22953127217664 198.66796880935635) rotate(355.0396912285215)"><path class="outline" fill="#A5ABB6" stroke="none" d="M 25 0.5 L 99.6790951365571 0.5 L 99.6790951365571 -0.5 L 25 -0.5 Z M 158.8705013865571 0.5 L 233.5495965231142 0.5 L 233.5495965231142 3.5 L 240.5495965231142 0 L 233.5495965231142 -3.5 L 233.5495965231142 -0.5 L 158.8705013865571 -0.5 Z"/><text text-anchor="middle" pointer-events="none" font-size="8px" fill="#000000" x="129.2747982615571" y="3" font-family="sans-serif">DESTINATION</text></g><g class="relationship" transform="translate(506.1672954082627 131.8720736038824) rotate(527.540032185808)"><path class="outline" fill="#A5ABB6" stroke="none" d="M 25 0.5 L 80.8612985327265 0.5 L 80.8612985327265 -0.5 L 25 -0.5 Z M 115.3066110327265 0.5 L 171.167909565453 0.5 L 171.167909565453 3.5 L 178.167909565453 0 L 171.167909565453 -3.5 L 171.167909565453 -0.5 L 115.3066110327265 -0.5 Z"/><text text-anchor="middle" pointer-events="none" font-size="8px" fill="#000000" x="98.0839547827265" y="3" transform="rotate(180 98.0839547827265 0)" font-family="sans-serif">ORIGIN</text></g><g class="relationship" transform="translate(-31.042829630356156 239.8911172806334) rotate(191.11317308780247)"><path class="outline" fill="#A5ABB6" stroke="none" d="M 25 0.5 L 70.90581514907471 0.5 L 70.90581514907471 -0.5 L 25 -0.5 Z M 105.35112764907471 0.5 L 151.25694279814942 0.5 L 151.25694279814942 3.5 L 158.25694279814942 0 L 151.25694279814942 -3.5 L 151.25694279814942 -0.5 L 105.35112764907471 -0.5 Z"/><text text-anchor="middle" pointer-events="none" font-size="8px" fill="#000000" x="88.12847139907471" y="3" transform="rotate(180 88.12847139907471 0)" font-family="sans-serif">ORIGIN</text></g><g class="relationship" transform="translate(-31.042829630356156 239.8911172806334) rotate(435.0587472682416)"><path class="outline" fill="#A5ABB6" stroke="none" d="M 25 0.5 L 29.945923459816342 0.5 L 29.945923459816342 -0.5 L 25 -0.5 Z M 89.13732970981634 0.5 L 94.08325316963268 0.5 L 94.08325316963268 3.5 L 101.08325316963268 0 L 94.08325316963268 -3.5 L 94.08325316963268 -0.5 L 89.13732970981634 -0.5 Z"/><text text-anchor="middle" pointer-events="none" font-size="8px" fill="#000000" x="59.54162658481634" y="3" font-family="sans-serif">DESTINATION</text></g><g class="relationship" transform="translate(-89.82719604490093 342.8161747021944) rotate(371.6937999665087)"><path class="outline" fill="#A5ABB6" stroke="none" d="M 25 0.5 L 25.890932568716885 0.5 L 25.890932568716885 -0.5 L 25 -0.5 Z M 60.336245068716885 0.5 L 61.22717763743377 0.5 L 61.22717763743377 3.5 L 68.22717763743377 0 L 61.22717763743377 -3.5 L 61.22717763743377 -0.5 L 60.336245068716885 -0.5 Z"/><text text-anchor="middle" pointer-events="none" font-size="8px" fill="#000000" x="43.113588818716885" y="3" font-family="sans-serif">ORIGIN</text></g><g class="relationship" transform="translate(-148.9678287406029 352.5677108349249) rotate(363.4783724405348)"><path class="outline" fill="#A5ABB6" stroke="none" d="M 25 0.5 L 54.632593761053556 0.5 L 54.632593761053556 -0.5 L 25 -0.5 Z M 89.07790626105356 0.5 L 118.71050002210711 0.5 L 118.71050002210711 3.5 L 125.71050002210711 0 L 118.71050002210711 -3.5 L 118.71050002210711 -0.5 L 89.07790626105356 -0.5 Z"/><text text-anchor="middle" pointer-events="none" font-size="8px" fill="#000000" x="71.85525001105356" y="3" font-family="sans-serif">ORIGIN</text></g><g class="relationship" transform="translate(-127.78071067358117 296.5190469517789) rotate(386.7667254688379)"><path class="outline" fill="#A5ABB6" stroke="none" d="M 25 0.5 L 51.65573792156346 0.5 L 51.65573792156346 -0.5 L 25 -0.5 Z M 86.10105042156346 0.5 L 112.75678834312691 0.5 L 112.75678834312691 3.5 L 119.75678834312691 0 L 112.75678834312691 -3.5 L 112.75678834312691 -0.5 L 86.10105042156346 -0.5 Z"/><text text-anchor="middle" pointer-events="none" font-size="8px" fill="#000000" x="68.87839417156346" y="3" font-family="sans-serif">ORIGIN</text></g><g class="relationship" transform="translate(61.082879003936824 355.09936929189604) rotate(208.96586879287315)"><path class="outline" fill="#A5ABB6" stroke="none" d="M 25 0.5 L 134.6914992193094 0.5 L 134.6914992193094 -0.5 L 25 -0.5 Z M 169.1368117193094 0.5 L 278.8283109386188 0.5 L 278.8283109386188 3.5 L 285.8283109386188 0 L 278.8283109386188 -3.5 L 278.8283109386188 -0.5 L 169.1368117193094 -0.5 Z"/><text text-anchor="middle" pointer-events="none" font-size="8px" fill="#000000" x="151.9141554693094" y="3" transform="rotate(180 151.9141554693094 0)" font-family="sans-serif">ORIGIN</text></g><g class="relationship" transform="translate(61.082879003936824 355.09936929189604) rotate(383.35043497577266)"><path class="outline" fill="#A5ABB6" stroke="none" d="M 25 0.5 L 88.88034627942042 0.5 L 88.88034627942042 -0.5 L 25 -0.5 Z M 148.07175252942042 0.5 L 211.95209880884084 0.5 L 211.95209880884084 3.5 L 218.95209880884084 0 L 211.95209880884084 -3.5 L 211.95209880884084 -0.5 L 148.07175252942042 -0.5 Z"/><text text-anchor="middle" pointer-events="none" font-size="8px" fill="#000000" x="118.47604940442042" y="3" font-family="sans-serif">DESTINATION</text></g><g class="relationship" transform="translate(425.42638526141343 553.1590327035868) rotate(215.83465418294168)"><path class="outline" fill="#A5ABB6" stroke="none" d="M 25 0.5 L 65.8506144764986 0.5 L 65.8506144764986 -0.5 L 25 -0.5 Z M 100.2959269764986 0.5 L 141.1465414529972 0.5 L 141.1465414529972 3.5 L 148.1465414529972 0 L 141.1465414529972 -3.5 L 141.1465414529972 -0.5 L 100.2959269764986 -0.5 Z"/><text text-anchor="middle" pointer-events="none" font-size="8px" fill="#000000" x="83.0732707264986" y="3" transform="rotate(180 83.0732707264986 0)" font-family="sans-serif">ORIGIN</text></g><g class="relationship" transform="translate(260.8367025107158 584.5701614313404) rotate(280.33673688794283)"><path class="outline" fill="#A5ABB6" stroke="none" d="M 25 0.5 L 46.76233549635705 0.5 L 46.76233549635705 -0.5 L 25 -0.5 Z M 81.20764799635705 0.5 L 102.9699834927141 0.5 L 102.9699834927141 3.5 L 109.9699834927141 0 L 102.9699834927141 -3.5 L 102.9699834927141 -0.5 L 81.20764799635705 -0.5 Z"/><text text-anchor="middle" pointer-events="none" font-size="8px" fill="#000000" x="63.98499174635705" y="3" font-family="sans-serif">ORIGIN</text></g><g class="relationship" transform="translate(331.70544502544766 580.3342711413075) rotate(250.05329365125607)"><path class="outline" fill="#A5ABB6" stroke="none" d="M 25 0.5 L 47.650823358760746 0.5 L 47.650823358760746 -0.5 L 25 -0.5 Z M 82.09613585876075 0.5 L 104.74695921752149 0.5 L 104.74695921752149 3.5 L 111.74695921752149 0 L 104.74695921752149 -3.5 L 104.74695921752149 -0.5 L 82.09613585876075 -0.5 Z"/><text text-anchor="middle" pointer-events="none" font-size="8px" fill="#000000" x="64.87347960876075" y="3" transform="rotate(180 64.87347960876075 0)" font-family="sans-serif">ORIGIN</text></g><g class="relationship" transform="translate(401.15576103456874 490.8498964635843) rotate(198.59418508779595)"><path class="outline" fill="#A5ABB6" stroke="none" d="M 25 0.5 L 40.52491231952443 0.5 L 40.52491231952443 -0.5 L 25 -0.5 Z M 74.97022481952443 0.5 L 90.49513713904886 0.5 L 90.49513713904886 3.5 L 97.49513713904886 0 L 90.49513713904886 -3.5 L 90.49513713904886 -0.5 L 74.97022481952443 -0.5 Z"/><text text-anchor="middle" pointer-events="none" font-size="8px" fill="#000000" x="57.74756856952443" y="3" transform="rotate(180 57.74756856952443 0)" font-family="sans-serif">ORIGIN</text></g><g class="relationship" transform="translate(411.8047808112747 419.04616092520854) rotate(525.5149263690885)"><path class="outline" fill="#A5ABB6" stroke="none" d="M 25 0.5 L 44.73299628438963 0.5 L 44.73299628438963 -0.5 L 25 -0.5 Z M 79.17830878438963 0.5 L 98.91130506877926 0.5 L 98.91130506877926 3.5 L 105.91130506877926 0 L 98.91130506877926 -3.5 L 98.91130506877926 -0.5 L 79.17830878438963 -0.5 Z"/><text text-anchor="middle" pointer-events="none" font-size="8px" fill="#000000" x="61.95565253438963" y="3" transform="rotate(180 61.95565253438963 0)" font-family="sans-serif">ORIGIN</text></g><g class="relationship" transform="translate(267.23514279903867 261.52957842253386) rotate(444.64935411789486)"><path class="outline" fill="#A5ABB6" stroke="none" d="M 25 0.5 L 74.82424239333528 0.5 L 74.82424239333528 -0.5 L 25 -0.5 Z M 109.26955489333528 0.5 L 159.09379728667056 0.5 L 159.09379728667056 3.5 L 166.09379728667056 0 L 159.09379728667056 -3.5 L 159.09379728667056 -0.5 L 109.26955489333528 -0.5 Z"/><text text-anchor="middle" pointer-events="none" font-size="8px" fill="#000000" x="92.04689864333528" y="3" font-family="sans-serif">ORIGIN</text></g><g class="relationship" transform="translate(-262.6823699136128 0.5009392392409484) rotate(435.75202243835065)"><path class="outline" fill="#A5ABB6" stroke="none" d="M 25 0.5 L 84.54948044605112 0.5 L 84.54948044605112 -0.5 L 25 -0.5 Z M 118.99479294605112 0.5 L 178.54427339210224 0.5 L 178.54427339210224 3.5 L 185.54427339210224 0 L 178.54427339210224 -3.5 L 178.54427339210224 -0.5 L 118.99479294605112 -0.5 Z"/><text text-anchor="middle" pointer-events="none" font-size="8px" fill="#000000" x="101.77213669605112" y="3" font-family="sans-serif">ORIGIN</text></g><g class="relationship" transform="translate(-262.6823699136128 0.5009392392409484) rotate(297.77145175614254)"><path class="outline" fill="#A5ABB6" stroke="none" d="M 25 0.5 L 49.496895154885706 0.5 L 49.496895154885706 -0.5 L 25 -0.5 Z M 108.6883014048857 0.5 L 133.1851965597714 0.5 L 133.1851965597714 3.5 L 140.1851965597714 0 L 133.1851965597714 -3.5 L 133.1851965597714 -0.5 L 108.6883014048857 -0.5 Z"/><text text-anchor="middle" pointer-events="none" font-size="8px" fill="#000000" x="79.0925982798857" y="3" font-family="sans-serif">DESTINATION</text></g><g class="relationship" transform="translate(-371.9907281478359 87.31785019331548) rotate(396.0430528379224)"><path class="outline" fill="#A5ABB6" stroke="none" d="M 25 0.5 L 78.91392793418694 0.5 L 78.91392793418694 -0.5 L 25 -0.5 Z M 113.35924043418694 0.5 L 167.2731683683739 0.5 L 167.2731683683739 3.5 L 174.2731683683739 0 L 167.2731683683739 -3.5 L 167.2731683683739 -0.5 L 113.35924043418694 -0.5 Z"/><text text-anchor="middle" pointer-events="none" font-size="8px" fill="#000000" x="96.13658418418694" y="3" font-family="sans-serif">ORIGIN</text></g><g class="relationship" transform="translate(-371.9907281478359 87.31785019331548) rotate(499.9081238795677)"><path class="outline" fill="#A5ABB6" stroke="none" d="M 25 0.5 L 58.46496928104396 0.5 L 58.46496928104396 -0.5 L 25 -0.5 Z M 117.65637553104396 0.5 L 151.12134481208793 0.5 L 151.12134481208793 3.5 L 158.12134481208793 0 L 151.12134481208793 -3.5 L 151.12134481208793 -0.5 L 117.65637553104396 -0.5 Z"/><text text-anchor="middle" pointer-events="none" font-size="8px" fill="#000000" x="88.06067240604396" y="3" transform="rotate(180 88.06067240604396 0)" font-family="sans-serif">DESTINATION</text></g><g class="relationship" transform="translate(-239.44452860909223 372.46959383642564) rotate(279.6606428583344)"><path class="outline" fill="#A5ABB6" stroke="none" d="M 25 0.5 L 64.43537589022009 0.5 L 64.43537589022009 -0.5 L 25 -0.5 Z M 98.88068839022009 0.5 L 138.31606428044017 0.5 L 138.31606428044017 3.5 L 145.31606428044017 0 L 138.31606428044017 -3.5 L 138.31606428044017 -0.5 L 98.88068839022009 -0.5 Z"/><text text-anchor="middle" pointer-events="none" font-size="8px" fill="#000000" x="81.65803214022009" y="3" font-family="sans-serif">ORIGIN</text></g><g class="relationship" transform="translate(-239.44452860909223 372.46959383642564) rotate(455.3576664622335)"><path class="outline" fill="#A5ABB6" stroke="none" d="M 25 0.5 L 54.121899617987594 0.5 L 54.121899617987594 -0.5 L 25 -0.5 Z M 113.3133058679876 0.5 L 142.4352054859752 0.5 L 142.4352054859752 3.5 L 149.4352054859752 0 L 142.4352054859752 -3.5 L 142.4352054859752 -0.5 L 113.3133058679876 -0.5 Z"/><text text-anchor="middle" pointer-events="none" font-size="8px" fill="#000000" x="83.7176027429876" y="3" transform="rotate(180 83.7176027429876 0)" font-family="sans-serif">DESTINATION</text></g><g class="relationship" transform="translate(-254.16595765460391 430.485412628708) rotate(450.77576628821396)"><path class="outline" fill="#A5ABB6" stroke="none" d="M 25 0.5 L 37.11130413557849 0.5 L 37.11130413557849 -0.5 L 25 -0.5 Z M 71.5566166355785 0.5 L 83.66792077115699 0.5 L 83.66792077115699 3.5 L 90.66792077115699 0 L 83.66792077115699 -3.5 L 83.66792077115699 -0.5 L 71.5566166355785 -0.5 Z"/><text text-anchor="middle" pointer-events="none" font-size="8px" fill="#000000" x="54.33396038557849" y="3" transform="rotate(180 54.33396038557849 0)" font-family="sans-serif">ORIGIN</text></g><g class="relationship" transform="translate(-297.0852259501535 388.7642046240701) rotate(435.2776145419819)"><path class="outline" fill="#A5ABB6" stroke="none" d="M 25 0.5 L 60.63778964823898 0.5 L 60.63778964823898 -0.5 L 25 -0.5 Z M 95.08310214823898 0.5 L 130.72089179647796 0.5 L 130.72089179647796 3.5 L 137.72089179647796 0 L 130.72089179647796 -3.5 L 130.72089179647796 -0.5 L 95.08310214823898 -0.5 Z"/><text text-anchor="middle" pointer-events="none" font-size="8px" fill="#000000" x="77.86044589823898" y="3" font-family="sans-serif">ORIGIN</text></g><g class="relationship" transform="translate(-349.4469590582827 244.11671106610848) rotate(344.0727144026064)"><path class="outline" fill="#A5ABB6" stroke="none" d="M 25 0.5 L 51.335374704749896 0.5 L 51.335374704749896 -0.5 L 25 -0.5 Z M 85.7806872047499 0.5 L 112.11606190949979 0.5 L 112.11606190949979 3.5 L 119.11606190949979 0 L 112.11606190949979 -3.5 L 112.11606190949979 -0.5 L 85.7806872047499 -0.5 Z"/><text text-anchor="middle" pointer-events="none" font-size="8px" fill="#000000" x="68.5580309547499" y="3" font-family="sans-serif">ORIGIN</text></g><g class="relationship" transform="translate(-349.4469590582827 244.11671106610848) rotate(193.44035557689313)"><path class="outline" fill="#A5ABB6" stroke="none" d="M 25 0.5 L 50.511048276204264 0.5 L 50.511048276204264 -0.5 L 25 -0.5 Z M 109.70245452620426 0.5 L 135.21350280240853 0.5 L 135.21350280240853 3.5 L 142.21350280240853 0 L 135.21350280240853 -3.5 L 135.21350280240853 -0.5 L 109.70245452620426 -0.5 Z"/><text text-anchor="middle" pointer-events="none" font-size="8px" fill="#000000" x="80.10675140120426" y="3" transform="rotate(180 80.10675140120426 0)" font-family="sans-serif">DESTINATION</text></g><g class="relationship" transform="translate(-439.67842354828036 165.6798139679962) rotate(369.6457136601385)"><path class="outline" fill="#A5ABB6" stroke="none" d="M 25 0.5 L 95.325463084766 0.5 L 95.325463084766 -0.5 L 25 -0.5 Z M 129.770775584766 0.5 L 200.096238669532 0.5 L 200.096238669532 3.5 L 207.096238669532 0 L 200.096238669532 -3.5 L 200.096238669532 -0.5 L 129.770775584766 -0.5 Z"/><text text-anchor="middle" pointer-events="none" font-size="8px" fill="#000000" x="112.548119334766" y="3" font-family="sans-serif">ORIGIN</text></g><g class="relationship" transform="translate(-439.67842354828036 165.6798139679962) rotate(511.3415593176066)"><path class="outline" fill="#A5ABB6" stroke="none" d="M 25 0.5 L 25.198593919815032 0.5 L 25.198593919815032 -0.5 L 25 -0.5 Z M 50.31187516981503 0.5 L 50.510469089630064 0.5 L 50.510469089630064 3.5 L 57.510469089630064 0 L 50.510469089630064 -3.5 L 50.510469089630064 -0.5 L 50.31187516981503 -0.5 Z"/><text text-anchor="middle" pointer-events="none" font-size="8px" fill="#000000" x="37.75523454481503" y="3" transform="rotate(180 37.75523454481503 0)" font-family="sans-serif">DE…</text></g><g class="relationship" transform="translate(-406.0547443599513 263.4430338118708) rotate(208.76010368916604)"><path class="outline" fill="#A5ABB6" stroke="none" d="M 25 0.5 L 39.75023440367342 0.5 L 39.75023440367342 -0.5 L 25 -0.5 Z M 74.19554690367342 0.5 L 88.94578130734683 0.5 L 88.94578130734683 3.5 L 95.94578130734683 0 L 88.94578130734683 -3.5 L 88.94578130734683 -0.5 L 74.19554690367342 -0.5 Z"/><text text-anchor="middle" pointer-events="none" font-size="8px" fill="#000000" x="56.97289065367342" y="3" transform="rotate(180 56.97289065367342 0)" font-family="sans-serif">ORIGIN</text></g><g class="relationship" transform="translate(-110.9560993178452 398.88892137870545) rotate(242.79059554054118)"><path class="outline" fill="#A5ABB6" stroke="none" d="M 25 0.5 L 88.52681179685335 0.5 L 88.52681179685335 -0.5 L 25 -0.5 Z M 122.97212429685335 0.5 L 186.4989360937067 0.5 L 186.4989360937067 3.5 L 193.4989360937067 0 L 186.4989360937067 -3.5 L 186.4989360937067 -0.5 L 122.97212429685335 -0.5 Z"/><text text-anchor="middle" pointer-events="none" font-size="8px" fill="#000000" x="105.74946804685335" y="3" transform="rotate(180 105.74946804685335 0)" font-family="sans-serif">ORIGIN</text></g><g class="relationship" transform="translate(-110.9560993178452 398.88892137870545) rotate(341.70110026627844)"><path class="outline" fill="#A5ABB6" stroke="none" d="M 25 0.5 L 26.108740041499374 0.5 L 26.108740041499374 -0.5 L 25 -0.5 Z M 85.30014629149937 0.5 L 86.40888633299875 0.5 L 86.40888633299875 3.5 L 93.40888633299875 0 L 86.40888633299875 -3.5 L 86.40888633299875 -0.5 L 85.30014629149937 -0.5 Z"/><text text-anchor="middle" pointer-events="none" font-size="8px" fill="#000000" x="55.704443166499374" y="3" font-family="sans-serif">DESTINATION</text></g><g class="relationship" transform="translate(-11.947316932077497 -265.13031972809193) rotate(342.82060444523654)"><path class="outline" fill="#A5ABB6" stroke="none" d="M 25 0.5 L 71.28689412950786 0.5 L 71.28689412950786 -0.5 L 25 -0.5 Z M 130.47830037950786 0.5 L 176.7651945090157 0.5 L 176.7651945090157 3.5 L 183.7651945090157 0 L 176.7651945090157 -3.5 L 176.7651945090157 -0.5 L 130.47830037950786 -0.5 Z"/><text text-anchor="middle" pointer-events="none" font-size="8px" fill="#000000" x="100.88259725450786" y="3" font-family="sans-serif">DESTINATION</text></g><g class="relationship" transform="translate(287.3848137789461 -409.2269060985405) rotate(500.4661489356337)"><path class="outline" fill="#A5ABB6" stroke="none" d="M 25 0.5 L 44.03017718597775 0.5 L 44.03017718597775 -0.5 L 25 -0.5 Z M 78.47548968597775 0.5 L 97.5056668719555 0.5 L 97.5056668719555 3.5 L 104.5056668719555 0 L 97.5056668719555 -3.5 L 97.5056668719555 -0.5 L 78.47548968597775 -0.5 Z"/><text text-anchor="middle" pointer-events="none" font-size="8px" fill="#000000" x="61.25283343597775" y="3" transform="rotate(180 61.25283343597775 0)" font-family="sans-serif">ORIGIN</text></g><g class="relationship" transform="translate(174.84369033849907 -152.02977252590594) rotate(274.143356075336)"><path class="outline" fill="#A5ABB6" stroke="none" d="M 25 0.5 L 66.88750918439007 0.5 L 66.88750918439007 -0.5 L 25 -0.5 Z M 101.33282168439007 0.5 L 143.22033086878014 0.5 L 143.22033086878014 3.5 L 150.22033086878014 0 L 143.22033086878014 -3.5 L 143.22033086878014 -0.5 L 101.33282168439007 -0.5 Z"/><text text-anchor="middle" pointer-events="none" font-size="8px" fill="#000000" x="84.11016543439007" y="3" font-family="sans-serif">ORIGIN</text></g><g class="relationship" transform="translate(107.55939295191648 -434.45154858810116) rotate(413.40362831221773)"><path class="outline" fill="#A5ABB6" stroke="none" d="M 25 0.5 L 46.32517374639603 0.5 L 46.32517374639603 -0.5 L 25 -0.5 Z M 80.77048624639603 0.5 L 102.09565999279206 0.5 L 102.09565999279206 3.5 L 109.09565999279206 0 L 102.09565999279206 -3.5 L 102.09565999279206 -0.5 L 80.77048624639603 -0.5 Z"/><text text-anchor="middle" pointer-events="none" font-size="8px" fill="#000000" x="63.54782999639603" y="3" font-family="sans-serif">ORIGIN</text></g><g class="relationship" transform="translate(253.1121844868149 -461.0877450913969) rotate(476.0372454543665)"><path class="outline" fill="#A5ABB6" stroke="none" d="M 25 0.5 L 54.00982545016829 0.5 L 54.00982545016829 -0.5 L 25 -0.5 Z M 88.4551379501683 0.5 L 117.46496340033659 0.5 L 117.46496340033659 3.5 L 124.46496340033659 0 L 117.46496340033659 -3.5 L 117.46496340033659 -0.5 L 88.4551379501683 -0.5 Z"/><text text-anchor="middle" pointer-events="none" font-size="8px" fill="#000000" x="71.2324817001683" y="3" transform="rotate(180 71.2324817001683 0)" font-family="sans-serif">ORIGIN</text></g><g class="relationship" transform="translate(364.601480683127 -322.45815131452684) rotate(181.40188174756207)"><path class="outline" fill="#A5ABB6" stroke="none" d="M 25 0.5 L 67.8527240769263 0.5 L 67.8527240769263 -0.5 L 25 -0.5 Z M 102.2980365769263 0.5 L 145.1507606538526 0.5 L 145.1507606538526 3.5 L 152.1507606538526 0 L 145.1507606538526 -3.5 L 145.1507606538526 -0.5 L 102.2980365769263 -0.5 Z"/><text text-anchor="middle" pointer-events="none" font-size="8px" fill="#000000" x="85.0753803269263" y="3" transform="rotate(180 85.0753803269263 0)" font-family="sans-serif">ORIGIN</text></g><g class="relationship" transform="translate(-105.86336535873278 240.8249186547365) rotate(199.0496072447711)"><path class="outline" fill="#A5ABB6" stroke="none" d="M 25 0.5 L 25.5573117486514 0.5 L 25.5573117486514 -0.5 L 25 -0.5 Z M 78.5260617486514 0.5 L 79.0833734973028 0.5 L 79.0833734973028 3.5 L 86.0833734973028 0 L 79.0833734973028 -3.5 L 79.0833734973028 -0.5 L 78.5260617486514 -0.5 Z"/><text text-anchor="middle" pointer-events="none" font-size="8px" fill="#000000" x="52.0416867486514" y="3" transform="rotate(180 52.0416867486514 0)" font-family="sans-serif">DESTINAT…</text></g><g class="relationship" transform="translate(-68.99648522254134 193.62862736652127) rotate(535.5903265386021)"><path class="outline" fill="#A5ABB6" stroke="none" d="M 25 0.5 L 50.42140628504731 0.5 L 50.42140628504731 -0.5 L 25 -0.5 Z M 84.86671878504731 0.5 L 110.28812507009462 0.5 L 110.28812507009462 3.5 L 117.28812507009462 0 L 110.28812507009462 -3.5 L 110.28812507009462 -0.5 L 84.86671878504731 -0.5 Z"/><text text-anchor="middle" pointer-events="none" font-size="8px" fill="#000000" x="67.64406253504731" y="3" transform="rotate(180 67.64406253504731 0)" font-family="sans-serif">ORIGIN</text></g><g class="relationship" transform="translate(-417.4440352286499 322.23320154664617) rotate(330.33497984485643)"><path class="outline" fill="#A5ABB6" stroke="none" d="M 25 0.5 L 98.14751522363076 0.5 L 98.14751522363076 -0.5 L 25 -0.5 Z M 132.59282772363076 0.5 L 205.74034294726152 0.5 L 205.74034294726152 3.5 L 212.74034294726152 0 L 205.74034294726152 -3.5 L 205.74034294726152 -0.5 L 132.59282772363076 -0.5 Z"/><text text-anchor="middle" pointer-events="none" font-size="8px" fill="#000000" x="115.37017147363076" y="3" font-family="sans-serif">ORIGIN</text></g><g class="relationship" transform="translate(-326.79794431091995 126.52970978952634) rotate(393.94570068780547)"><path class="outline" fill="#A5ABB6" stroke="none" d="M 25 0.5 L 36.78082083276236 0.5 L 36.78082083276236 -0.5 L 25 -0.5 Z M 95.97222708276236 0.5 L 107.75304791552472 0.5 L 107.75304791552472 3.5 L 114.75304791552472 0 L 107.75304791552472 -3.5 L 107.75304791552472 -0.5 L 95.97222708276236 -0.5 Z"/><text text-anchor="middle" pointer-events="none" font-size="8px" fill="#000000" x="66.37652395776236" y="3" font-family="sans-serif">DESTINATION</text></g><g class="relationship" transform="translate(-206.59436346664933 -20.617916883421227) rotate(451.0860715614821)"><path class="outline" fill="#A5ABB6" stroke="none" d="M 25 0.5 L 91.89092634508768 0.5 L 91.89092634508768 -0.5 L 25 -0.5 Z M 126.33623884508768 0.5 L 193.22716519017536 0.5 L 193.22716519017536 3.5 L 200.22716519017536 0 L 193.22716519017536 -3.5 L 193.22716519017536 -0.5 L 126.33623884508768 -0.5 Z"/><text text-anchor="middle" pointer-events="none" font-size="8px" fill="#000000" x="109.11358259508768" y="3" transform="rotate(180 109.11358259508768 0)" font-family="sans-serif">ORIGIN</text></g><g class="relationship" transform="translate(-428.51745368246253 106.83762068667404) rotate(384.1810657635356)"><path class="outline" fill="#A5ABB6" stroke="none" d="M 25 0.5 L 86.19874853009509 0.5 L 86.19874853009509 -0.5 L 25 -0.5 Z M 145.3901547800951 0.5 L 206.58890331019018 0.5 L 206.58890331019018 3.5 L 213.58890331019018 0 L 206.58890331019018 -3.5 L 206.58890331019018 -0.5 L 145.3901547800951 -0.5 Z"/><text text-anchor="middle" pointer-events="none" font-size="8px" fill="#000000" x="115.79445165509509" y="3" font-family="sans-serif">DESTINATION</text></g><g class="relationship" transform="translate(-394.56660129721763 205.01509611803715) rotate(359.8607992135128)"><path class="outline" fill="#A5ABB6" stroke="none" d="M 25 0.5 L 58.756165159223684 0.5 L 58.756165159223684 -0.5 L 25 -0.5 Z M 117.94757140922368 0.5 L 151.70373656844737 0.5 L 151.70373656844737 3.5 L 158.70373656844737 0 L 151.70373656844737 -3.5 L 151.70373656844737 -0.5 L 117.94757140922368 -0.5 Z"/><text text-anchor="middle" pointer-events="none" font-size="8px" fill="#000000" x="88.35186828422368" y="3" font-family="sans-serif">DESTINATION</text></g><g class="relationship" transform="translate(456.42424402321416 9.621966123476321) rotate(366.05903484093744)"><path class="outline" fill="#A5ABB6" stroke="none" d="M 25 0.5 L 46.17590150643474 0.5 L 46.17590150643474 -0.5 L 25 -0.5 Z M 105.36730775643474 0.5 L 126.54320926286948 0.5 L 126.54320926286948 3.5 L 133.54320926286948 0 L 126.54320926286948 -3.5 L 126.54320926286948 -0.5 L 105.36730775643474 -0.5 Z"/><text text-anchor="middle" pointer-events="none" font-size="8px" fill="#000000" x="75.77160463143474" y="3" font-family="sans-serif">DESTINATION</text></g><g class="relationship" transform="translate(710.7051296013956 111.52341173658574) rotate(221.39391788816602)"><path class="outline" fill="#A5ABB6" stroke="none" d="M 25 0.5 L 43.67734680149414 0.5 L 43.67734680149414 -0.5 L 25 -0.5 Z M 78.12265930149414 0.5 L 96.80000610298828 0.5 L 96.80000610298828 3.5 L 103.80000610298828 0 L 96.80000610298828 -3.5 L 96.80000610298828 -0.5 L 78.12265930149414 -0.5 Z"/><text text-anchor="middle" pointer-events="none" font-size="8px" fill="#000000" x="60.90000305149414" y="3" transform="rotate(180 60.90000305149414 0)" font-family="sans-serif">ORIGIN</text></g><g class="relationship" transform="translate(616.0878053360883 -120.934990637563) rotate(450.780287034082)"><path class="outline" fill="#A5ABB6" stroke="none" d="M 25 0.5 L 52.930016891045355 0.5 L 52.930016891045355 -0.5 L 25 -0.5 Z M 87.37532939104536 0.5 L 115.30534628209071 0.5 L 115.30534628209071 3.5 L 122.30534628209071 0 L 115.30534628209071 -3.5 L 115.30534628209071 -0.5 L 87.37532939104536 -0.5 Z"/><text text-anchor="middle" pointer-events="none" font-size="8px" fill="#000000" x="70.15267314104536" y="3" transform="rotate(180 70.15267314104536 0)" font-family="sans-serif">ORIGIN</text></g><g class="relationship" transform="translate(741.4269037732232 18.63122356333474) rotate(536.5283701829546)"><path class="outline" fill="#A5ABB6" stroke="none" d="M 25 0.5 L 43.066966681376805 0.5 L 43.066966681376805 -0.5 L 25 -0.5 Z M 77.51227918137681 0.5 L 95.57924586275361 0.5 L 95.57924586275361 3.5 L 102.57924586275361 0 L 95.57924586275361 -3.5 L 95.57924586275361 -0.5 L 77.51227918137681 -0.5 Z"/><text text-anchor="middle" pointer-events="none" font-size="8px" fill="#000000" x="60.289622931376805" y="3" transform="rotate(180 60.289622931376805 0)" font-family="sans-serif">ORIGIN</text></g><g class="relationship" transform="translate(563.0477405856988 -92.96878651044304) rotate(426.84420158338)"><path class="outline" fill="#A5ABB6" stroke="none" d="M 25 0.5 L 44.16771997913685 0.5 L 44.16771997913685 -0.5 L 25 -0.5 Z M 78.61303247913685 0.5 L 97.7807524582737 0.5 L 97.7807524582737 3.5 L 104.7807524582737 0 L 97.7807524582737 -3.5 L 97.7807524582737 -0.5 L 78.61303247913685 -0.5 Z"/><text text-anchor="middle" pointer-events="none" font-size="8px" fill="#000000" x="61.39037622913685" y="3" font-family="sans-serif">ORIGIN</text></g><g class="relationship" transform="translate(236.46113463032844 -198.4216662756749) rotate(249.12436077251215)"><path class="outline" fill="#A5ABB6" stroke="none" d="M 25 0.5 L 35.598922508198484 0.5 L 35.598922508198484 -0.5 L 25 -0.5 Z M 94.79032875819848 0.5 L 105.38925126639697 0.5 L 105.38925126639697 3.5 L 112.38925126639697 0 L 105.38925126639697 -3.5 L 105.38925126639697 -0.5 L 94.79032875819848 -0.5 Z"/><text text-anchor="middle" pointer-events="none" font-size="8px" fill="#000000" x="65.19462563319848" y="3" transform="rotate(180 65.19462563319848 0)" font-family="sans-serif">DESTINATION</text></g><g class="relationship" transform="translate(141.5579230871151 -483.844550170629) rotate(433.69311603103847)"><path class="outline" fill="#A5ABB6" stroke="none" d="M 25 0.5 L 61.09493947379367 0.5 L 61.09493947379367 -0.5 L 25 -0.5 Z M 95.54025197379367 0.5 L 131.63519144758735 0.5 L 131.63519144758735 3.5 L 138.63519144758735 0 L 131.63519144758735 -3.5 L 131.63519144758735 -0.5 L 95.54025197379367 -0.5 Z"/><text text-anchor="middle" pointer-events="none" font-size="8px" fill="#000000" x="78.31759572379367" y="3" font-family="sans-serif">ORIGIN</text></g><g class="relationship" transform="translate(342.24936580366773 -266.8615717703964) rotate(201.17061149403503)"><path class="outline" fill="#A5ABB6" stroke="none" d="M 25 0.5 L 62.2500522121136 0.5 L 62.2500522121136 -0.5 L 25 -0.5 Z M 96.6953647121136 0.5 L 133.9454169242272 0.5 L 133.9454169242272 3.5 L 140.9454169242272 0 L 133.9454169242272 -3.5 L 133.9454169242272 -0.5 L 96.6953647121136 -0.5 Z"/><text text-anchor="middle" pointer-events="none" font-size="8px" fill="#000000" x="79.4727084621136" y="3" transform="rotate(180 79.4727084621136 0)" font-family="sans-serif">ORIGIN</text></g><g class="relationship" transform="translate(193.54951411004646 -453.9633807114426) rotate(452.72181462999697)"><path class="outline" fill="#A5ABB6" stroke="none" d="M 25 0.5 L 42.934774816076335 0.5 L 42.934774816076335 -0.5 L 25 -0.5 Z M 77.38008731607633 0.5 L 95.31486213215267 0.5 L 95.31486213215267 3.5 L 102.31486213215267 0 L 95.31486213215267 -3.5 L 95.31486213215267 -0.5 L 77.38008731607633 -0.5 Z"/><text text-anchor="middle" pointer-events="none" font-size="8px" fill="#000000" x="60.157431066076335" y="3" transform="rotate(180 60.157431066076335 0)" font-family="sans-serif">ORIGIN</text></g><g class="relationship" transform="translate(53.84030848350764 -407.7565454452166) rotate(391.2046869564648)"><path class="outline" fill="#A5ABB6" stroke="none" d="M 25 0.5 L 57.41367934266408 0.5 L 57.41367934266408 -0.5 L 25 -0.5 Z M 91.85899184266408 0.5 L 124.27267118532816 0.5 L 124.27267118532816 3.5 L 131.27267118532816 0 L 124.27267118532816 -3.5 L 124.27267118532816 -0.5 L 91.85899184266408 -0.5 Z"/><text text-anchor="middle" pointer-events="none" font-size="8px" fill="#000000" x="74.63633559266408" y="3" font-family="sans-serif">ORIGIN</text></g><g class="relationship" transform="translate(66.35378569449001 -346.68704644971865) rotate(369.3257139443403)"><path class="outline" fill="#A5ABB6" stroke="none" d="M 25 0.5 L 40.66366009187536 0.5 L 40.66366009187536 -0.5 L 25 -0.5 Z M 75.10897259187536 0.5 L 90.77263268375071 0.5 L 90.77263268375071 3.5 L 97.77263268375071 0 L 90.77263268375071 -3.5 L 90.77263268375071 -0.5 L 75.10897259187536 -0.5 Z"/><text text-anchor="middle" pointer-events="none" font-size="8px" fill="#000000" x="57.88631634187536" y="3" font-family="sans-serif">ORIGIN</text></g><g class="relationship" transform="translate(356.76085775106924 -80.13790803484565) rotate(315.2317831646855)"><path class="outline" fill="#A5ABB6" stroke="none" d="M 25 0.5 L 59.33747037719586 0.5 L 59.33747037719586 -0.5 L 25 -0.5 Z M 118.52887662719586 0.5 L 152.8663470043917 0.5 L 152.8663470043917 3.5 L 159.8663470043917 0 L 152.8663470043917 -3.5 L 152.8663470043917 -0.5 L 118.52887662719586 -0.5 Z"/><text text-anchor="middle" pointer-events="none" font-size="8px" fill="#000000" x="88.93317350219586" y="3" font-family="sans-serif">DESTINATION</text></g><g class="relationship" transform="translate(551.478995544532 -325.5674454201997) rotate(478.84460476388193)"><path class="outline" fill="#A5ABB6" stroke="none" d="M 25 0.5 L 45.058279915885194 0.5 L 45.058279915885194 -0.5 L 25 -0.5 Z M 79.5035924158852 0.5 L 99.56187233177039 0.5 L 99.56187233177039 3.5 L 106.56187233177039 0 L 99.56187233177039 -3.5 L 99.56187233177039 -0.5 L 79.5035924158852 -0.5 Z"/><text text-anchor="middle" pointer-events="none" font-size="8px" fill="#000000" x="62.280936165885194" y="3" transform="rotate(180 62.280936165885194 0)" font-family="sans-serif">ORIGIN</text></g><g class="relationship" transform="translate(608.3688196234301 -262.6351965976654) rotate(516.5108435895236)"><path class="outline" fill="#A5ABB6" stroke="none" d="M 25 0.5 L 44.89467578413543 0.5 L 44.89467578413543 -0.5 L 25 -0.5 Z M 79.33998828413543 0.5 L 99.23466406827086 0.5 L 99.23466406827086 3.5 L 106.23466406827086 0 L 99.23466406827086 -3.5 L 99.23466406827086 -0.5 L 79.33998828413543 -0.5 Z"/><text text-anchor="middle" pointer-events="none" font-size="8px" fill="#000000" x="62.11733203413543" y="3" transform="rotate(180 62.11733203413543 0)" font-family="sans-serif">ORIGIN</text></g><g class="relationship" transform="translate(506.1672954082627 131.8720736038824) rotate(315.64401856203756)"><path class="outline" fill="#A5ABB6" stroke="none" d="M 25 0.5 L 42.367914776736086 0.5 L 42.367914776736086 -0.5 L 25 -0.5 Z M 101.55932102673609 0.5 L 118.92723580347217 0.5 L 118.92723580347217 3.5 L 125.92723580347217 0 L 118.92723580347217 -3.5 L 118.92723580347217 -0.5 L 101.55932102673609 -0.5 Z"/><text text-anchor="middle" pointer-events="none" font-size="8px" fill="#000000" x="71.96361790173609" y="3" font-family="sans-serif">DESTINATION</text></g><g class="relationship" transform="translate(-89.82719604490093 342.8161747021944) rotate(228.79770754008723)"><path class="outline" fill="#A5ABB6" stroke="none" d="M 25 0.5 L 58.77663327963687 0.5 L 58.77663327963687 -0.5 L 25 -0.5 Z M 117.96803952963687 0.5 L 151.74467280927374 0.5 L 151.74467280927374 3.5 L 158.74467280927374 0 L 151.74467280927374 -3.5 L 151.74467280927374 -0.5 L 117.96803952963687 -0.5 Z"/><text text-anchor="middle" pointer-events="none" font-size="8px" fill="#000000" x="88.37233640463687" y="3" transform="rotate(180 88.37233640463687 0)" font-family="sans-serif">DESTINATION</text></g><g class="relationship" transform="translate(-148.9678287406029 352.5677108349249) rotate(247.3045183934545)"><path class="outline" fill="#A5ABB6" stroke="none" d="M 25 0.5 L 47.1145585500572 0.5 L 47.1145585500572 -0.5 L 25 -0.5 Z M 106.3059648000572 0.5 L 128.4205233501144 0.5 L 128.4205233501144 3.5 L 135.4205233501144 0 L 128.4205233501144 -3.5 L 128.4205233501144 -0.5 L 106.3059648000572 -0.5 Z"/><text text-anchor="middle" pointer-events="none" font-size="8px" fill="#000000" x="76.7102616750572" y="3" transform="rotate(180 76.7102616750572 0)" font-family="sans-serif">DESTINATION</text></g><g class="relationship" transform="translate(-196.45598728118603 414.4122341667482) rotate(266.0723533955161)"><path class="outline" fill="#A5ABB6" stroke="none" d="M 25 0.5 L 84.44607297760626 0.5 L 84.44607297760626 -0.5 L 25 -0.5 Z M 118.89138547760626 0.5 L 178.33745845521253 0.5 L 178.33745845521253 3.5 L 185.33745845521253 0 L 178.33745845521253 -3.5 L 178.33745845521253 -0.5 L 118.89138547760626 -0.5 Z"/><text text-anchor="middle" pointer-events="none" font-size="8px" fill="#000000" x="101.66872922760626" y="3" transform="rotate(180 101.66872922760626 0)" font-family="sans-serif">ORIGIN</text></g><g class="relationship" transform="translate(-127.78071067358117 296.5190469517789) rotate(227.90025386655543)"><path class="outline" fill="#A5ABB6" stroke="none" d="M 25 0.5 L 28.867158489382938 0.5 L 28.867158489382938 -0.5 L 25 -0.5 Z M 88.05856473938294 0.5 L 91.92572322876588 0.5 L 91.92572322876588 3.5 L 98.92572322876588 0 L 91.92572322876588 -3.5 L 91.92572322876588 -0.5 L 88.05856473938294 -0.5 Z"/><text text-anchor="middle" pointer-events="none" font-size="8px" fill="#000000" x="58.46286161438294" y="3" transform="rotate(180 58.46286161438294 0)" font-family="sans-serif">DESTINATION</text></g><g class="relationship" transform="translate(425.42638526141343 553.1590327035868) rotate(378.00369073083596)"><path class="outline" fill="#A5ABB6" stroke="none" d="M 25 0.5 L 37.11098610651828 0.5 L 37.11098610651828 -0.5 L 25 -0.5 Z M 96.30239235651828 0.5 L 108.41337846303657 0.5 L 108.41337846303657 3.5 L 115.41337846303657 0 L 108.41337846303657 -3.5 L 108.41337846303657 -0.5 L 96.30239235651828 -0.5 Z"/><text text-anchor="middle" pointer-events="none" font-size="8px" fill="#000000" x="66.70668923151828" y="3" font-family="sans-serif">DESTINATION</text></g><g class="relationship" transform="translate(670.9503874936722 562.3650373429091) rotate(523.020944922825)"><path class="outline" fill="#A5ABB6" stroke="none" d="M 25 0.5 L 37.82208659581268 0.5 L 37.82208659581268 -0.5 L 25 -0.5 Z M 72.26739909581268 0.5 L 85.08948569162536 0.5 L 85.08948569162536 3.5 L 92.08948569162536 0 L 85.08948569162536 -3.5 L 85.08948569162536 -0.5 L 72.26739909581268 -0.5 Z"/><text text-anchor="middle" pointer-events="none" font-size="8px" fill="#000000" x="55.04474284581268" y="3" transform="rotate(180 55.04474284581268 0)" font-family="sans-serif">ORIGIN</text></g><g class="relationship" transform="translate(267.23514279903867 261.52957842253386) rotate(248.20082358139047)"><path class="outline" fill="#A5ABB6" stroke="none" d="M 25 0.5 L 82.68828291242721 0.5 L 82.68828291242721 -0.5 L 25 -0.5 Z M 141.8796891624272 0.5 L 199.56797207485442 0.5 L 199.56797207485442 3.5 L 206.56797207485442 0 L 199.56797207485442 -3.5 L 199.56797207485442 -0.5 L 141.8796891624272 -0.5 Z"/><text text-anchor="middle" pointer-events="none" font-size="8px" fill="#000000" x="112.28398603742721" y="3" transform="rotate(180 112.28398603742721 0)" font-family="sans-serif">DESTINATION</text></g><g class="relationship" transform="translate(-254.16595765460391 430.485412628708) rotate(280.85056062053604)"><path class="outline" fill="#A5ABB6" stroke="none" d="M 25 0.5 L 81.9188970761814 0.5 L 81.9188970761814 -0.5 L 25 -0.5 Z M 141.1103033261814 0.5 L 198.0292004023628 0.5 L 198.0292004023628 3.5 L 205.0292004023628 0 L 198.0292004023628 -3.5 L 198.0292004023628 -0.5 L 141.1103033261814 -0.5 Z"/><text text-anchor="middle" pointer-events="none" font-size="8px" fill="#000000" x="111.5146002011814" y="3" font-family="sans-serif">DESTINATION</text></g><g class="relationship" transform="translate(-297.0852259501535 388.7642046240701) rotate(295.0842796013451)"><path class="outline" fill="#A5ABB6" stroke="none" d="M 25 0.5 L 68.59273560066168 0.5 L 68.59273560066168 -0.5 L 25 -0.5 Z M 127.78414185066168 0.5 L 171.37687745132337 0.5 L 171.37687745132337 3.5 L 178.37687745132337 0 L 171.37687745132337 -3.5 L 171.37687745132337 -0.5 L 127.78414185066168 -0.5 Z"/><text text-anchor="middle" pointer-events="none" font-size="8px" fill="#000000" x="98.18843872566168" y="3" font-family="sans-serif">DESTINATION</text></g><g class="relationship" transform="translate(-406.0547443599513 263.4430338118708) rotate(343.2154673323902)"><path class="outline" fill="#A5ABB6" stroke="none" d="M 25 0.5 L 68.84280194825311 0.5 L 68.84280194825311 -0.5 L 25 -0.5 Z M 128.0342081982531 0.5 L 171.87701014650622 0.5 L 171.87701014650622 3.5 L 178.87701014650622 0 L 171.87701014650622 -3.5 L 171.87701014650622 -0.5 L 128.0342081982531 -0.5 Z"/><text text-anchor="middle" pointer-events="none" font-size="8px" fill="#000000" x="98.43850507325311" y="3" font-family="sans-serif">DESTINATION</text></g><g class="relationship" transform="translate(174.84369033849907 -152.02977252590594) rotate(448.1544680213012)"><path class="outline" fill="#A5ABB6" stroke="none" d="M 25 0.5 L 66.23108675386172 0.5 L 66.23108675386172 -0.5 L 25 -0.5 Z M 125.42249300386172 0.5 L 166.65357975772343 0.5 L 166.65357975772343 3.5 L 173.65357975772343 0 L 166.65357975772343 -3.5 L 166.65357975772343 -0.5 L 125.42249300386172 -0.5 Z"/><text text-anchor="middle" pointer-events="none" font-size="8px" fill="#000000" x="95.82678987886172" y="3" font-family="sans-serif">DESTINATION</text></g><g class="relationship" transform="translate(364.601480683127 -322.45815131452684) rotate(402.2587796820726)"><path class="outline" fill="#A5ABB6" stroke="none" d="M 25 0.5 L 50.27468642208552 0.5 L 50.27468642208552 -0.5 L 25 -0.5 Z M 109.46609267208552 0.5 L 134.74077909417105 0.5 L 134.74077909417105 3.5 L 141.74077909417105 0 L 134.74077909417105 -3.5 L 134.74077909417105 -0.5 L 109.46609267208552 -0.5 Z"/><text text-anchor="middle" pointer-events="none" font-size="8px" fill="#000000" x="79.87038954708552" y="3" font-family="sans-serif">DESTINATION</text></g><g class="relationship" transform="translate(-68.99648522254134 193.62862736652127) rotate(427.2562388575239)"><path class="outline" fill="#A5ABB6" stroke="none" d="M 25 0.5 L 58.031549795605045 0.5 L 58.031549795605045 -0.5 L 25 -0.5 Z M 117.22295604560505 0.5 L 150.2545058412101 0.5 L 150.2545058412101 3.5 L 157.2545058412101 0 L 150.2545058412101 -3.5 L 150.2545058412101 -0.5 L 117.22295604560505 -0.5 Z"/><text text-anchor="middle" pointer-events="none" font-size="8px" fill="#000000" x="87.62725292060505" y="3" font-family="sans-serif">DESTINATION</text></g><g class="relationship" transform="translate(-417.4440352286499 322.23320154664617) rotate(231.02771336461115)"><path class="outline" fill="#A5ABB6" stroke="none" d="M 25 0.5 L 42.13896661278508 0.5 L 42.13896661278508 -0.5 L 25 -0.5 Z M 101.33037286278508 0.5 L 118.46933947557017 0.5 L 118.46933947557017 3.5 L 125.46933947557017 0 L 118.46933947557017 -3.5 L 118.46933947557017 -0.5 L 101.33037286278508 -0.5 Z"/><text text-anchor="middle" pointer-events="none" font-size="8px" fill="#000000" x="71.73466973778508" y="3" transform="rotate(180 71.73466973778508 0)" font-family="sans-serif">DESTINATION</text></g><g class="relationship" transform="translate(-206.59436346664933 -20.617916883421227) rotate(279.4799236432279)"><path class="outline" fill="#A5ABB6" stroke="none" d="M 25 0.5 L 30.289522279459504 0.5 L 30.289522279459504 -0.5 L 25 -0.5 Z M 89.4809285294595 0.5 L 94.77045080891901 0.5 L 94.77045080891901 3.5 L 101.77045080891901 0 L 94.77045080891901 -3.5 L 94.77045080891901 -0.5 L 89.4809285294595 -0.5 Z"/><text text-anchor="middle" pointer-events="none" font-size="8px" fill="#000000" x="59.885225404459504" y="3" font-family="sans-serif">DESTINATION</text></g><g class="relationship" transform="translate(616.0878053360883 -120.934990637563) rotate(214.91328746186645)"><path class="outline" fill="#A5ABB6" stroke="none" d="M 25 0.5 L 44.999397059363034 0.5 L 44.999397059363034 -0.5 L 25 -0.5 Z M 104.19080330936303 0.5 L 124.19020036872607 0.5 L 124.19020036872607 3.5 L 131.19020036872607 0 L 124.19020036872607 -3.5 L 124.19020036872607 -0.5 L 104.19080330936303 -0.5 Z"/><text text-anchor="middle" pointer-events="none" font-size="8px" fill="#000000" x="74.59510018436303" y="3" transform="rotate(180 74.59510018436303 0)" font-family="sans-serif">DESTINATION</text></g><g class="relationship" transform="translate(563.0477405856988 -92.96878651044304) rotate(237.40541616870877)"><path class="outline" fill="#A5ABB6" stroke="none" d="M 25 0.5 L 36.55356987720879 0.5 L 36.55356987720879 -0.5 L 25 -0.5 Z M 95.74497612720879 0.5 L 107.29854600441757 0.5 L 107.29854600441757 3.5 L 114.29854600441757 0 L 107.29854600441757 -3.5 L 107.29854600441757 -0.5 L 95.74497612720879 -0.5 Z"/><text text-anchor="middle" pointer-events="none" font-size="8px" fill="#000000" x="66.14927300220879" y="3" transform="rotate(180 66.14927300220879 0)" font-family="sans-serif">DESTINATION</text></g><g class="relationship" transform="translate(342.24936580366773 -266.8615717703964) rotate(381.1989477660361)"><path class="outline" fill="#A5ABB6" stroke="none" d="M 25 0.5 L 45.073728466079714 0.5 L 45.073728466079714 -0.5 L 25 -0.5 Z M 104.26513471607971 0.5 L 124.33886318215943 0.5 L 124.33886318215943 3.5 L 131.33886318215943 0 L 124.33886318215943 -3.5 L 124.33886318215943 -0.5 L 104.26513471607971 -0.5 Z"/><text text-anchor="middle" pointer-events="none" font-size="8px" fill="#000000" x="74.66943159107971" y="3" font-family="sans-serif">DESTINATION</text></g><g class="relationship" transform="translate(-196.45598728118603 414.4122341667482) rotate(474.2267705191087)"><path class="outline" fill="#A5ABB6" stroke="none" d="M 25 0.5 L 39.130627679653045 0.5 L 39.130627679653045 -0.5 L 25 -0.5 Z M 98.32203392965305 0.5 L 112.45266160930609 0.5 L 112.45266160930609 3.5 L 119.45266160930609 0 L 112.45266160930609 -3.5 L 112.45266160930609 -0.5 L 98.32203392965305 -0.5 Z"/><text text-anchor="middle" pointer-events="none" font-size="8px" fill="#000000" x="68.72633080465305" y="3" transform="rotate(180 68.72633080465305 0)" font-family="sans-serif">DESTINATION</text></g></g><g class="layer nodes"><g class="node" transform="translate(-210.8634068867996,204.56878611628835)"><circle class="outline" cx="0" cy="0" r="25" fill="#F79767" stroke="#f36924" stroke-width="2px"/><text text-anchor="middle" pointer-events="none" font-family="sans-serif" dy="1.5625" font-size="25" fill="#FFFFFF"/><text text-anchor="middle" pointer-events="none" x="0" y="5" font-size="10px" fill="#FFFFFF" font-family="sans-serif"> LAX</text></g><g class="node" transform="translate(-11.947316932077497,-265.13031972809193)"><circle class="outline" cx="0" cy="0" r="25" fill="#57C7E3" stroke="#23b3d7" stroke-width="2px"/><text text-anchor="middle" pointer-events="none" font-family="sans-serif" dy="1.5625" font-size="25" fill="#2A2C34"/><text text-anchor="middle" pointer-events="none" x="0" y="5" font-size="10px" fill="#2A2C34" font-family="sans-serif"> 11/30/20…</text></g><g class="node" transform="translate(-105.86336535873278,240.8249186547365)"><circle class="outline" cx="0" cy="0" r="25" fill="#57C7E3" stroke="#23b3d7" stroke-width="2px"/><text text-anchor="middle" pointer-events="none" font-family="sans-serif" dy="1.5625" font-size="25" fill="#2A2C34"/><text text-anchor="middle" pointer-events="none" x="0" y="5" font-size="10px" fill="#2A2C34" font-family="sans-serif"> 11/4/2015</text></g><g class="node" transform="translate(-326.79794431091995,126.52970978952634)"><circle class="outline" cx="0" cy="0" r="25" fill="#57C7E3" stroke="#23b3d7" stroke-width="2px"/><text text-anchor="middle" pointer-events="none" font-family="sans-serif" dy="1.5625" font-size="25" fill="#2A2C34"/><text text-anchor="middle" pointer-events="none" x="0" y="5" font-size="10px" fill="#2A2C34" font-family="sans-serif"> 11/2/2015</text></g><g class="node" transform="translate(-428.51745368246253,106.83762068667404)"><circle class="outline" cx="0" cy="0" r="25" fill="#57C7E3" stroke="#23b3d7" stroke-width="2px"/><text text-anchor="middle" pointer-events="none" font-family="sans-serif" dy="1.5625" font-size="25" fill="#2A2C34"/><text text-anchor="middle" pointer-events="none" x="0" y="5" font-size="10px" fill="#2A2C34" font-family="sans-serif"> 11/4/2015</text></g><g class="node" transform="translate(-394.56660129721763,205.01509611803715)"><circle class="outline" cx="0" cy="0" r="25" fill="#57C7E3" stroke="#23b3d7" stroke-width="2px"/><text text-anchor="middle" pointer-events="none" font-family="sans-serif" dy="1.5625" font-size="25" fill="#2A2C34"/><text text-anchor="middle" pointer-events="none" x="0" y="5" font-size="10px" fill="#2A2C34" font-family="sans-serif"> 11/3/2015</text></g><g class="node" transform="translate(456.42424402321416,9.621966123476321)"><circle class="outline" cx="0" cy="0" r="25" fill="#57C7E3" stroke="#23b3d7" stroke-width="2px"/><text text-anchor="middle" pointer-events="none" font-family="sans-serif" dy="1.5625" font-size="25" fill="#2A2C34"/><text text-anchor="middle" pointer-events="none" x="0" y="5" font-size="10px" fill="#2A2C34" font-family="sans-serif"> 11/29/20…</text></g><g class="node" transform="translate(236.46113463032844,-198.4216662756749)"><circle class="outline" cx="0" cy="0" r="25" fill="#57C7E3" stroke="#23b3d7" stroke-width="2px"/><text text-anchor="middle" pointer-events="none" font-family="sans-serif" dy="1.5625" font-size="25" fill="#2A2C34"/><text text-anchor="middle" pointer-events="none" x="0" y="5" font-size="10px" fill="#2A2C34" font-family="sans-serif"> 11/29/20…</text></g><g class="node" transform="translate(356.76085775106924,-80.13790803484565)"><circle class="outline" cx="0" cy="0" r="25" fill="#57C7E3" stroke="#23b3d7" stroke-width="2px"/><text text-anchor="middle" pointer-events="none" font-family="sans-serif" dy="1.5625" font-size="25" fill="#2A2C34"/><text text-anchor="middle" pointer-events="none" x="0" y="5" font-size="10px" fill="#2A2C34" font-family="sans-serif"> 11/30/20…</text></g><g class="node" transform="translate(506.1672954082627,131.8720736038824)"><circle class="outline" cx="0" cy="0" r="25" fill="#57C7E3" stroke="#23b3d7" stroke-width="2px"/><text text-anchor="middle" pointer-events="none" font-family="sans-serif" dy="1.5625" font-size="25" fill="#2A2C34"/><text text-anchor="middle" pointer-events="none" x="0" y="5" font-size="10px" fill="#2A2C34" font-family="sans-serif"> 11/29/20…</text></g><g class="node" transform="translate(-89.82719604490093,342.8161747021944)"><circle class="outline" cx="0" cy="0" r="25" fill="#57C7E3" stroke="#23b3d7" stroke-width="2px"/><text text-anchor="middle" pointer-events="none" font-family="sans-serif" dy="1.5625" font-size="25" fill="#2A2C34"/><text text-anchor="middle" pointer-events="none" x="0" y="5" font-size="10px" fill="#2A2C34" font-family="sans-serif"> 11/3/2015</text></g><g class="node" transform="translate(-148.9678287406029,352.5677108349249)"><circle class="outline" cx="0" cy="0" r="25" fill="#57C7E3" stroke="#23b3d7" stroke-width="2px"/><text text-anchor="middle" pointer-events="none" font-family="sans-serif" dy="1.5625" font-size="25" fill="#2A2C34"/><text text-anchor="middle" pointer-events="none" x="0" y="5" font-size="10px" fill="#2A2C34" font-family="sans-serif"> 11/1/2015</text></g><g class="node" transform="translate(-127.78071067358117,296.5190469517789)"><circle class="outline" cx="0" cy="0" r="25" fill="#57C7E3" stroke="#23b3d7" stroke-width="2px"/><text text-anchor="middle" pointer-events="none" font-family="sans-serif" dy="1.5625" font-size="25" fill="#2A2C34"/><text text-anchor="middle" pointer-events="none" x="0" y="5" font-size="10px" fill="#2A2C34" font-family="sans-serif"> 11/2/2015</text></g><g class="node" transform="translate(425.42638526141343,553.1590327035868)"><circle class="outline" cx="0" cy="0" r="25" fill="#57C7E3" stroke="#23b3d7" stroke-width="2px"/><text text-anchor="middle" pointer-events="none" font-family="sans-serif" dy="1.5625" font-size="25" fill="#2A2C34"/><text text-anchor="middle" pointer-events="none" x="0" y="5" font-size="10px" fill="#2A2C34" font-family="sans-serif"> 11/30/20…</text></g><g class="node" transform="translate(260.8367025107158,584.5701614313404)"><circle class="outline" cx="0" cy="0" r="25" fill="#57C7E3" stroke="#23b3d7" stroke-width="2px"/><text text-anchor="middle" pointer-events="none" font-family="sans-serif" dy="1.5625" font-size="25" fill="#2A2C34"/><text text-anchor="middle" pointer-events="none" x="0" y="5" font-size="10px" fill="#2A2C34" font-family="sans-serif"> 11/30/20…</text></g><g class="node" transform="translate(331.70544502544766,580.3342711413075)"><circle class="outline" cx="0" cy="0" r="25" fill="#57C7E3" stroke="#23b3d7" stroke-width="2px"/><text text-anchor="middle" pointer-events="none" font-family="sans-serif" dy="1.5625" font-size="25" fill="#2A2C34"/><text text-anchor="middle" pointer-events="none" x="0" y="5" font-size="10px" fill="#2A2C34" font-family="sans-serif"> 11/9/2015</text></g><g class="node" transform="translate(401.15576103456874,490.8498964635843)"><circle class="outline" cx="0" cy="0" r="25" fill="#57C7E3" stroke="#23b3d7" stroke-width="2px"/><text text-anchor="middle" pointer-events="none" font-family="sans-serif" dy="1.5625" font-size="25" fill="#2A2C34"/><text text-anchor="middle" pointer-events="none" x="0" y="5" font-size="10px" fill="#2A2C34" font-family="sans-serif"> 11/6/2015</text></g><g class="node" transform="translate(411.8047808112747,419.04616092520854)"><circle class="outline" cx="0" cy="0" r="25" fill="#57C7E3" stroke="#23b3d7" stroke-width="2px"/><text text-anchor="middle" pointer-events="none" font-family="sans-serif" dy="1.5625" font-size="25" fill="#2A2C34"/><text text-anchor="middle" pointer-events="none" x="0" y="5" font-size="10px" fill="#2A2C34" font-family="sans-serif"> 11/5/2015</text></g><g class="node" transform="translate(267.23514279903867,261.52957842253386)"><circle class="outline" cx="0" cy="0" r="25" fill="#57C7E3" stroke="#23b3d7" stroke-width="2px"/><text text-anchor="middle" pointer-events="none" font-family="sans-serif" dy="1.5625" font-size="25" fill="#2A2C34"/><text text-anchor="middle" pointer-events="none" x="0" y="5" font-size="10px" fill="#2A2C34" font-family="sans-serif"> 11/30/20…</text></g><g class="node" transform="translate(-254.16595765460391,430.485412628708)"><circle class="outline" cx="0" cy="0" r="25" fill="#57C7E3" stroke="#23b3d7" stroke-width="2px"/><text text-anchor="middle" pointer-events="none" font-family="sans-serif" dy="1.5625" font-size="25" fill="#2A2C34"/><text text-anchor="middle" pointer-events="none" x="0" y="5" font-size="10px" fill="#2A2C34" font-family="sans-serif"> 11/1/2015</text></g><g class="node" transform="translate(-297.0852259501535,388.7642046240701)"><circle class="outline" cx="0" cy="0" r="25" fill="#57C7E3" stroke="#23b3d7" stroke-width="2px"/><text text-anchor="middle" pointer-events="none" font-family="sans-serif" dy="1.5625" font-size="25" fill="#2A2C34"/><text text-anchor="middle" pointer-events="none" x="0" y="5" font-size="10px" fill="#2A2C34" font-family="sans-serif"> 11/2/2015</text></g><g class="node" transform="translate(-406.0547443599513,263.4430338118708)"><circle class="outline" cx="0" cy="0" r="25" fill="#57C7E3" stroke="#23b3d7" stroke-width="2px"/><text text-anchor="middle" pointer-events="none" font-family="sans-serif" dy="1.5625" font-size="25" fill="#2A2C34"/><text text-anchor="middle" pointer-events="none" x="0" y="5" font-size="10px" fill="#2A2C34" font-family="sans-serif"> 11/1/2015</text></g><g class="node" transform="translate(287.3848137789461,-409.2269060985405)"><circle class="outline" cx="0" cy="0" r="25" fill="#57C7E3" stroke="#23b3d7" stroke-width="2px"/><text text-anchor="middle" pointer-events="none" font-family="sans-serif" dy="1.5625" font-size="25" fill="#2A2C34"/><text text-anchor="middle" pointer-events="none" x="0" y="5" font-size="10px" fill="#2A2C34" font-family="sans-serif"> 11/30/20…</text></g><g class="node" transform="translate(174.84369033849907,-152.02977252590594)"><circle class="outline" cx="0" cy="0" r="25" fill="#57C7E3" stroke="#23b3d7" stroke-width="2px"/><text text-anchor="middle" pointer-events="none" font-family="sans-serif" dy="1.5625" font-size="25" fill="#2A2C34"/><text text-anchor="middle" pointer-events="none" x="0" y="5" font-size="10px" fill="#2A2C34" font-family="sans-serif"> 11/30/20…</text></g><g class="node" transform="translate(107.55939295191648,-434.45154858810116)"><circle class="outline" cx="0" cy="0" r="25" fill="#57C7E3" stroke="#23b3d7" stroke-width="2px"/><text text-anchor="middle" pointer-events="none" font-family="sans-serif" dy="1.5625" font-size="25" fill="#2A2C34"/><text text-anchor="middle" pointer-events="none" x="0" y="5" font-size="10px" fill="#2A2C34" font-family="sans-serif"> 11/30/20…</text></g><g class="node" transform="translate(253.1121844868149,-461.0877450913969)"><circle class="outline" cx="0" cy="0" r="25" fill="#57C7E3" stroke="#23b3d7" stroke-width="2px"/><text text-anchor="middle" pointer-events="none" font-family="sans-serif" dy="1.5625" font-size="25" fill="#2A2C34"/><text text-anchor="middle" pointer-events="none" x="0" y="5" font-size="10px" fill="#2A2C34" font-family="sans-serif"> 11/30/20…</text></g><g class="node" transform="translate(364.601480683127,-322.45815131452684)"><circle class="outline" cx="0" cy="0" r="25" fill="#57C7E3" stroke="#23b3d7" stroke-width="2px"/><text text-anchor="middle" pointer-events="none" font-family="sans-serif" dy="1.5625" font-size="25" fill="#2A2C34"/><text text-anchor="middle" pointer-events="none" x="0" y="5" font-size="10px" fill="#2A2C34" font-family="sans-serif"> 11/30/20…</text></g><g class="node" transform="translate(-68.99648522254134,193.62862736652127)"><circle class="outline" cx="0" cy="0" r="25" fill="#57C7E3" stroke="#23b3d7" stroke-width="2px"/><text text-anchor="middle" pointer-events="none" font-family="sans-serif" dy="1.5625" font-size="25" fill="#2A2C34"/><text text-anchor="middle" pointer-events="none" x="0" y="5" font-size="10px" fill="#2A2C34" font-family="sans-serif"> 11/4/2015</text></g><g class="node" transform="translate(-417.4440352286499,322.23320154664617)"><circle class="outline" cx="0" cy="0" r="25" fill="#57C7E3" stroke="#23b3d7" stroke-width="2px"/><text text-anchor="middle" pointer-events="none" font-family="sans-serif" dy="1.5625" font-size="25" fill="#2A2C34"/><text text-anchor="middle" pointer-events="none" x="0" y="5" font-size="10px" fill="#2A2C34" font-family="sans-serif"> 11/4/2015</text></g><g class="node" transform="translate(-67.95912424329165,287.0650103757315)"><circle class="outline" cx="0" cy="0" r="25" fill="#57C7E3" stroke="#23b3d7" stroke-width="2px"/><text text-anchor="middle" pointer-events="none" font-family="sans-serif" dy="1.5625" font-size="25" fill="#2A2C34"/><text text-anchor="middle" pointer-events="none" x="0" y="5" font-size="10px" fill="#2A2C34" font-family="sans-serif"> 11/3/2015</text></g><g class="node" transform="translate(16.129150337827536,65.38642525733495)"><circle class="outline" cx="0" cy="0" r="25" fill="#57C7E3" stroke="#23b3d7" stroke-width="2px"/><text text-anchor="middle" pointer-events="none" font-family="sans-serif" dy="1.5625" font-size="25" fill="#2A2C34"/><text text-anchor="middle" pointer-events="none" x="0" y="5" font-size="10px" fill="#2A2C34" font-family="sans-serif"> 11/29/20…</text></g><g class="node" transform="translate(-338.0583056747302,185.27098355622311)"><circle class="outline" cx="0" cy="0" r="25" fill="#57C7E3" stroke="#23b3d7" stroke-width="2px"/><text text-anchor="middle" pointer-events="none" font-family="sans-serif" dy="1.5625" font-size="25" fill="#2A2C34"/><text text-anchor="middle" pointer-events="none" x="0" y="5" font-size="10px" fill="#2A2C34" font-family="sans-serif"> 11/3/2015</text></g><g class="node" transform="translate(-2.282989573650856,126.96200152571214)"><circle class="outline" cx="0" cy="0" r="25" fill="#57C7E3" stroke="#23b3d7" stroke-width="2px"/><text text-anchor="middle" pointer-events="none" font-family="sans-serif" dy="1.5625" font-size="25" fill="#2A2C34"/><text text-anchor="middle" pointer-events="none" x="0" y="5" font-size="10px" fill="#2A2C34" font-family="sans-serif"> 11/29/20…</text></g><g class="node" transform="translate(-41.54827722993459,81.6967179682824)"><circle class="outline" cx="0" cy="0" r="25" fill="#57C7E3" stroke="#23b3d7" stroke-width="2px"/><text text-anchor="middle" pointer-events="none" font-family="sans-serif" dy="1.5625" font-size="25" fill="#2A2C34"/><text text-anchor="middle" pointer-events="none" x="0" y="5" font-size="10px" fill="#2A2C34" font-family="sans-serif"> 11/30/20…</text></g><g class="node" transform="translate(-206.59436346664933,-20.617916883421227)"><circle class="outline" cx="0" cy="0" r="25" fill="#57C7E3" stroke="#23b3d7" stroke-width="2px"/><text text-anchor="middle" pointer-events="none" font-family="sans-serif" dy="1.5625" font-size="25" fill="#2A2C34"/><text text-anchor="middle" pointer-events="none" x="0" y="5" font-size="10px" fill="#2A2C34" font-family="sans-serif"> 11/4/2015</text></g><g class="node" transform="translate(-383.19187581263526,146.02503266971092)"><circle class="outline" cx="0" cy="0" r="25" fill="#57C7E3" stroke="#23b3d7" stroke-width="2px"/><text text-anchor="middle" pointer-events="none" font-family="sans-serif" dy="1.5625" font-size="25" fill="#2A2C34"/><text text-anchor="middle" pointer-events="none" x="0" y="5" font-size="10px" fill="#2A2C34" font-family="sans-serif"> 11/3/2015</text></g><g class="node" transform="translate(61.082879003936824,355.09936929189604)"><circle class="outline" cx="0" cy="0" r="25" fill="#57C7E3" stroke="#23b3d7" stroke-width="2px"/><text text-anchor="middle" pointer-events="none" font-family="sans-serif" dy="1.5625" font-size="25" fill="#2A2C34"/><text text-anchor="middle" pointer-events="none" x="0" y="5" font-size="10px" fill="#2A2C34" font-family="sans-serif"> 11/30/20…</text></g><g class="node" transform="translate(-262.6823699136128,0.5009392392409484)"><circle class="outline" cx="0" cy="0" r="25" fill="#57C7E3" stroke="#23b3d7" stroke-width="2px"/><text text-anchor="middle" pointer-events="none" font-family="sans-serif" dy="1.5625" font-size="25" fill="#2A2C34"/><text text-anchor="middle" pointer-events="none" x="0" y="5" font-size="10px" fill="#2A2C34" font-family="sans-serif"> 11/3/2015</text></g><g class="node" transform="translate(710.7051296013956,111.52341173658574)"><circle class="outline" cx="0" cy="0" r="25" fill="#57C7E3" stroke="#23b3d7" stroke-width="2px"/><text text-anchor="middle" pointer-events="none" font-family="sans-serif" dy="1.5625" font-size="25" fill="#2A2C34"/><text text-anchor="middle" pointer-events="none" x="0" y="5" font-size="10px" fill="#2A2C34" font-family="sans-serif"> 11/30/20…</text></g><g class="node" transform="translate(616.0878053360883,-120.934990637563)"><circle class="outline" cx="0" cy="0" r="25" fill="#57C7E3" stroke="#23b3d7" stroke-width="2px"/><text text-anchor="middle" pointer-events="none" font-family="sans-serif" dy="1.5625" font-size="25" fill="#2A2C34"/><text text-anchor="middle" pointer-events="none" x="0" y="5" font-size="10px" fill="#2A2C34" font-family="sans-serif"> 11/29/20…</text></g><g class="node" transform="translate(741.4269037732232,18.63122356333474)"><circle class="outline" cx="0" cy="0" r="25" fill="#57C7E3" stroke="#23b3d7" stroke-width="2px"/><text text-anchor="middle" pointer-events="none" font-family="sans-serif" dy="1.5625" font-size="25" fill="#2A2C34"/><text text-anchor="middle" pointer-events="none" x="0" y="5" font-size="10px" fill="#2A2C34" font-family="sans-serif"> 11/29/20…</text></g><g class="node" transform="translate(563.0477405856988,-92.96878651044304)"><circle class="outline" cx="0" cy="0" r="25" fill="#57C7E3" stroke="#23b3d7" stroke-width="2px"/><text text-anchor="middle" pointer-events="none" font-family="sans-serif" dy="1.5625" font-size="25" fill="#2A2C34"/><text text-anchor="middle" pointer-events="none" x="0" y="5" font-size="10px" fill="#2A2C34" font-family="sans-serif"> 11/29/20…</text></g><g class="node" transform="translate(141.5579230871151,-483.844550170629)"><circle class="outline" cx="0" cy="0" r="25" fill="#57C7E3" stroke="#23b3d7" stroke-width="2px"/><text text-anchor="middle" pointer-events="none" font-family="sans-serif" dy="1.5625" font-size="25" fill="#2A2C34"/><text text-anchor="middle" pointer-events="none" x="0" y="5" font-size="10px" fill="#2A2C34" font-family="sans-serif"> 11/29/20…</text></g><g class="node" transform="translate(342.24936580366773,-266.8615717703964)"><circle class="outline" cx="0" cy="0" r="25" fill="#57C7E3" stroke="#23b3d7" stroke-width="2px"/><text text-anchor="middle" pointer-events="none" font-family="sans-serif" dy="1.5625" font-size="25" fill="#2A2C34"/><text text-anchor="middle" pointer-events="none" x="0" y="5" font-size="10px" fill="#2A2C34" font-family="sans-serif"> 11/29/20…</text></g><g class="node" transform="translate(193.54951411004646,-453.9633807114426)"><circle class="outline" cx="0" cy="0" r="25" fill="#57C7E3" stroke="#23b3d7" stroke-width="2px"/><text text-anchor="middle" pointer-events="none" font-family="sans-serif" dy="1.5625" font-size="25" fill="#2A2C34"/><text text-anchor="middle" pointer-events="none" x="0" y="5" font-size="10px" fill="#2A2C34" font-family="sans-serif"> 11/29/20…</text></g><g class="node" transform="translate(53.84030848350764,-407.7565454452166)"><circle class="outline" cx="0" cy="0" r="25" fill="#57C7E3" stroke="#23b3d7" stroke-width="2px"/><text text-anchor="middle" pointer-events="none" font-family="sans-serif" dy="1.5625" font-size="25" fill="#2A2C34"/><text text-anchor="middle" pointer-events="none" x="0" y="5" font-size="10px" fill="#2A2C34" font-family="sans-serif"> 11/29/20…</text></g><g class="node" transform="translate(66.35378569449001,-346.68704644971865)"><circle class="outline" cx="0" cy="0" r="25" fill="#57C7E3" stroke="#23b3d7" stroke-width="2px"/><text text-anchor="middle" pointer-events="none" font-family="sans-serif" dy="1.5625" font-size="25" fill="#2A2C34"/><text text-anchor="middle" pointer-events="none" x="0" y="5" font-size="10px" fill="#2A2C34" font-family="sans-serif"> 11/29/20…</text></g><g class="node" transform="translate(551.478995544532,-325.5674454201997)"><circle class="outline" cx="0" cy="0" r="25" fill="#57C7E3" stroke="#23b3d7" stroke-width="2px"/><text text-anchor="middle" pointer-events="none" font-family="sans-serif" dy="1.5625" font-size="25" fill="#2A2C34"/><text text-anchor="middle" pointer-events="none" x="0" y="5" font-size="10px" fill="#2A2C34" font-family="sans-serif"> 11/8/2015</text></g><g class="node" transform="translate(608.3688196234301,-262.6351965976654)"><circle class="outline" cx="0" cy="0" r="25" fill="#57C7E3" stroke="#23b3d7" stroke-width="2px"/><text text-anchor="middle" pointer-events="none" font-family="sans-serif" dy="1.5625" font-size="25" fill="#2A2C34"/><text text-anchor="middle" pointer-events="none" x="0" y="5" font-size="10px" fill="#2A2C34" font-family="sans-serif"> 11/6/2015</text></g><g class="node" transform="translate(-216.28090235670706,38.37740576178307)"><circle class="outline" cx="0" cy="0" r="25" fill="#57C7E3" stroke="#23b3d7" stroke-width="2px"/><text text-anchor="middle" pointer-events="none" font-family="sans-serif" dy="1.5625" font-size="25" fill="#2A2C34"/><text text-anchor="middle" pointer-events="none" x="0" y="5" font-size="10px" fill="#2A2C34" font-family="sans-serif"> 11/2/2015</text></g><g class="node" transform="translate(-196.45598728118603,414.4122341667482)"><circle class="outline" cx="0" cy="0" r="25" fill="#57C7E3" stroke="#23b3d7" stroke-width="2px"/><text text-anchor="middle" pointer-events="none" font-family="sans-serif" dy="1.5625" font-size="25" fill="#2A2C34"/><text text-anchor="middle" pointer-events="none" x="0" y="5" font-size="10px" fill="#2A2C34" font-family="sans-serif"> 11/2/2015</text></g><g class="node" transform="translate(-360.89078413554506,302.80439806809505)"><circle class="outline" cx="0" cy="0" r="25" fill="#57C7E3" stroke="#23b3d7" stroke-width="2px"/><text text-anchor="middle" pointer-events="none" font-family="sans-serif" dy="1.5625" font-size="25" fill="#2A2C34"/><text text-anchor="middle" pointer-events="none" x="0" y="5" font-size="10px" fill="#2A2C34" font-family="sans-serif"> 11/2/2015</text></g><g class="node" transform="translate(-160.20519045810204,17.28133546268455)"><circle class="outline" cx="0" cy="0" r="25" fill="#57C7E3" stroke="#23b3d7" stroke-width="2px"/><text text-anchor="middle" pointer-events="none" font-family="sans-serif" dy="1.5625" font-size="25" fill="#2A2C34"/><text text-anchor="middle" pointer-events="none" x="0" y="5" font-size="10px" fill="#2A2C34" font-family="sans-serif"> 11/1/2015</text></g><g class="node" transform="translate(43.22953127217664,198.66796880935635)"><circle class="outline" cx="0" cy="0" r="25" fill="#57C7E3" stroke="#23b3d7" stroke-width="2px"/><text text-anchor="middle" pointer-events="none" font-family="sans-serif" dy="1.5625" font-size="25" fill="#2A2C34"/><text text-anchor="middle" pointer-events="none" x="0" y="5" font-size="10px" fill="#2A2C34" font-family="sans-serif"> 11/29/20…</text></g><g class="node" transform="translate(-371.9907281478359,87.31785019331548)"><circle class="outline" cx="0" cy="0" r="25" fill="#57C7E3" stroke="#23b3d7" stroke-width="2px"/><text text-anchor="middle" pointer-events="none" font-family="sans-serif" dy="1.5625" font-size="25" fill="#2A2C34"/><text text-anchor="middle" pointer-events="none" x="0" y="5" font-size="10px" fill="#2A2C34" font-family="sans-serif"> 11/2/2015</text></g><g class="node" transform="translate(-349.4469590582827,244.11671106610848)"><circle class="outline" cx="0" cy="0" r="25" fill="#57C7E3" stroke="#23b3d7" stroke-width="2px"/><text text-anchor="middle" pointer-events="none" font-family="sans-serif" dy="1.5625" font-size="25" fill="#2A2C34"/><text text-anchor="middle" pointer-events="none" x="0" y="5" font-size="10px" fill="#2A2C34" font-family="sans-serif"> 11/1/2015</text></g><g class="node" transform="translate(-110.9560993178452,398.88892137870545)"><circle class="outline" cx="0" cy="0" r="25" fill="#57C7E3" stroke="#23b3d7" stroke-width="2px"/><text text-anchor="middle" pointer-events="none" font-family="sans-serif" dy="1.5625" font-size="25" fill="#2A2C34"/><text text-anchor="middle" pointer-events="none" x="0" y="5" font-size="10px" fill="#2A2C34" font-family="sans-serif"> 11/2/2015</text></g><g class="node" transform="translate(670.9503874936722,562.3650373429091)"><circle class="outline" cx="0" cy="0" r="25" fill="#57C7E3" stroke="#23b3d7" stroke-width="2px"/><text text-anchor="middle" pointer-events="none" font-family="sans-serif" dy="1.5625" font-size="25" fill="#2A2C34"/><text text-anchor="middle" pointer-events="none" x="0" y="5" font-size="10px" fill="#2A2C34" font-family="sans-serif"> 11/30/20…</text></g><g class="node" transform="translate(-185.7150163335782,-145.65711098508388)"><circle class="outline" cx="0" cy="0" r="25" fill="#F79767" stroke="#f36924" stroke-width="2px"/><text text-anchor="middle" pointer-events="none" font-family="sans-serif" dy="1.5625" font-size="25" fill="#FFFFFF"/><text text-anchor="middle" pointer-events="none" x="0" y="5" font-size="10px" fill="#FFFFFF" font-family="sans-serif"> SMF</text></g><g class="node" transform="translate(1.4650280930700301,361.71158319696116)"><circle class="outline" cx="0" cy="0" r="25" fill="#F79767" stroke="#f36924" stroke-width="2px"/><text text-anchor="middle" pointer-events="none" font-family="sans-serif" dy="1.5625" font-size="25" fill="#FFFFFF"/><text text-anchor="middle" pointer-events="none" x="0" y="5" font-size="10px" fill="#FFFFFF" font-family="sans-serif"> FAT</text></g><g class="node" transform="translate(-512.0808866936819,205.25077352004104)"><circle class="outline" cx="0" cy="0" r="25" fill="#F79767" stroke="#f36924" stroke-width="2px"/><text text-anchor="middle" pointer-events="none" font-family="sans-serif" dy="1.5625" font-size="25" fill="#FFFFFF"/><text text-anchor="middle" pointer-events="none" x="0" y="5" font-size="10px" fill="#FFFFFF" font-family="sans-serif"> ABQ</text></g><g class="node" transform="translate(252.6043280267783,-30.381225535907756)"><circle class="outline" cx="0" cy="0" r="25" fill="#F79767" stroke="#f36924" stroke-width="2px"/><text text-anchor="middle" pointer-events="none" font-family="sans-serif" dy="1.5625" font-size="25" fill="#FFFFFF"/><text text-anchor="middle" pointer-events="none" x="0" y="5" font-size="10px" fill="#FFFFFF" font-family="sans-serif"> LAS</text></g><g class="node" transform="translate(181.2413367991721,46.520762276502566)"><circle class="outline" cx="0" cy="0" r="25" fill="#F79767" stroke="#f36924" stroke-width="2px"/><text text-anchor="middle" pointer-events="none" font-family="sans-serif" dy="1.5625" font-size="25" fill="#FFFFFF"/><text text-anchor="middle" pointer-events="none" x="0" y="5" font-size="10px" fill="#FFFFFF" font-family="sans-serif"> EWR</text></g><g class="node" transform="translate(307.7846008870962,175.70705953655516)"><circle class="outline" cx="0" cy="0" r="25" fill="#F79767" stroke="#f36924" stroke-width="2px"/><text text-anchor="middle" pointer-events="none" font-family="sans-serif" dy="1.5625" font-size="25" fill="#FFFFFF"/><text text-anchor="middle" pointer-events="none" x="0" y="5" font-size="10px" fill="#FFFFFF" font-family="sans-serif"> BOS</text></g><g class="node" transform="translate(-31.042829630356156,239.8911172806334)"><circle class="outline" cx="0" cy="0" r="25" fill="#57C7E3" stroke="#23b3d7" stroke-width="2px"/><text text-anchor="middle" pointer-events="none" font-family="sans-serif" dy="1.5625" font-size="25" fill="#2A2C34"/><text text-anchor="middle" pointer-events="none" x="0" y="5" font-size="10px" fill="#2A2C34" font-family="sans-serif"> 11/1/2015</text></g><g class="node" transform="translate(285.05477498498954,451.79071494336034)"><circle class="outline" cx="0" cy="0" r="25" fill="#F79767" stroke="#f36924" stroke-width="2px"/><text text-anchor="middle" pointer-events="none" font-family="sans-serif" dy="1.5625" font-size="25" fill="#FFFFFF"/><text text-anchor="middle" pointer-events="none" x="0" y="5" font-size="10px" fill="#FFFFFF" font-family="sans-serif"> IAH</text></g><g class="node" transform="translate(-239.44452860909223,372.46959383642564)"><circle class="outline" cx="0" cy="0" r="25" fill="#57C7E3" stroke="#23b3d7" stroke-width="2px"/><text text-anchor="middle" pointer-events="none" font-family="sans-serif" dy="1.5625" font-size="25" fill="#2A2C34"/><text text-anchor="middle" pointer-events="none" x="0" y="5" font-size="10px" fill="#2A2C34" font-family="sans-serif"> 11/1/2015</text></g><g class="node" transform="translate(-255.73201597020721,546.1427312768367)"><circle class="outline" cx="0" cy="0" r="25" fill="#F79767" stroke="#f36924" stroke-width="2px"/><text text-anchor="middle" pointer-events="none" font-family="sans-serif" dy="1.5625" font-size="25" fill="#FFFFFF"/><text text-anchor="middle" pointer-events="none" x="0" y="5" font-size="10px" fill="#FFFFFF" font-family="sans-serif"> TUS</text></g><g class="node" transform="translate(-439.67842354828036,165.6798139679962)"><circle class="outline" cx="0" cy="0" r="25" fill="#57C7E3" stroke="#23b3d7" stroke-width="2px"/><text text-anchor="middle" pointer-events="none" font-family="sans-serif" dy="1.5625" font-size="25" fill="#2A2C34"/><text text-anchor="middle" pointer-events="none" x="0" y="5" font-size="10px" fill="#2A2C34" font-family="sans-serif"> 11/1/2015</text></g><g class="node" transform="translate(187.50374358615554,-326.7921466272304)"><circle class="outline" cx="0" cy="0" r="25" fill="#F79767" stroke="#f36924" stroke-width="2px"/><text text-anchor="middle" pointer-events="none" font-family="sans-serif" dy="1.5625" font-size="25" fill="#FFFFFF"/><text text-anchor="middle" pointer-events="none" x="0" y="5" font-size="10px" fill="#FFFFFF" font-family="sans-serif"> DEN</text></g><g class="node" transform="translate(614.0817780187755,26.356695813807526)"><circle class="outline" cx="0" cy="0" r="25" fill="#F79767" stroke="#f36924" stroke-width="2px"/><text text-anchor="middle" pointer-events="none" font-family="sans-serif" dy="1.5625" font-size="25" fill="#FFFFFF"/><text text-anchor="middle" pointer-events="none" x="0" y="5" font-size="10px" fill="#FFFFFF" font-family="sans-serif"> IAD</text></g><g class="node" transform="translate(488.0088472589696,-210.3282744406679)"><circle class="outline" cx="0" cy="0" r="25" fill="#F79767" stroke="#f36924" stroke-width="2px"/><text text-anchor="middle" pointer-events="none" font-family="sans-serif" dy="1.5625" font-size="25" fill="#FFFFFF"/><text text-anchor="middle" pointer-events="none" x="0" y="5" font-size="10px" fill="#FFFFFF" font-family="sans-serif"> ORD</text></g><g class="node" transform="translate(558.96464855449,596.5577548975972)"><circle class="outline" cx="0" cy="0" r="25" fill="#F79767" stroke="#f36924" stroke-width="2px"/><text text-anchor="middle" pointer-events="none" font-family="sans-serif" dy="1.5625" font-size="25" fill="#FFFFFF"/><text text-anchor="middle" pointer-events="none" x="0" y="5" font-size="10px" fill="#FFFFFF" font-family="sans-serif"> DFW</text></g></g></svg>