<svg xmlns="http://www.w3.org/2000/svg" width="251.1819305419922" height="255.54977416992188" viewBox="-29.06192970275879 -20.79808807373047 251.1819305419922 255.54977416992188"><title>Neo4j Graph Visualization</title><desc>Created using Neo4j (http://www.neo4j.com/)</desc><g class="layer relationships"><g class="relationship" transform="translate(83.70353446451749 114.35597736847835) rotate(414.7133365745195)"><path class="outline" fill="#A5ABB6" stroke="none" d="M 25 0.5 L 29.71692313060668 0.5 L 29.71692313060668 -0.5 L 25 -0.5 Z M 75.25025595531372 0.5 L 79.96717908592039 0.5 L 79.96717908592039 3.5 L 86.96717908592039 0 L 79.96717908592039 -3.5 L 79.96717908592039 -0.5 L 75.25025595531372 -0.5 Z"/><text text-anchor="middle" pointer-events="none" font-size="8px" fill="#000000" x="52.483589542960196" y="3" font-family="sans-serif">ACTED_IN</text></g><g class="relationship" transform="translate(83.70353446451749 114.35597736847835) rotate(347.99981662215714)"><path class="outline" fill="#A5ABB6" stroke="none" d="M 25 0.5 L 29.663818633237597 0.5 L 29.663818633237597 -0.5 L 25 -0.5 Z M 75.19715145794463 0.5 L 79.86097009118222 0.5 L 79.86097009118222 3.5 L 86.86097009118222 0 L 79.86097009118222 -3.5 L 79.86097009118222 -0.5 L 75.19715145794463 -0.5 Z"/><text text-anchor="middle" pointer-events="none" font-size="8px" fill="#000000" x="52.43048504559111" y="3" font-family="sans-serif">ACTED_IN</text></g><g class="relationship" transform="translate(83.70353446451749 114.35597736847835) rotate(288.3379764700873)"><path class="outline" fill="#A5ABB6" stroke="none" d="M 25 0.5 L 29.649972320004508 0.5 L 29.649972320004508 -0.5 L 25 -0.5 Z M 75.18330514471154 0.5 L 79.83327746471605 0.5 L 79.83327746471605 3.5 L 86.83327746471605 0 L 79.83327746471605 -3.5 L 79.83327746471605 -0.5 L 75.18330514471154 -0.5 Z"/><text text-anchor="middle" pointer-events="none" font-size="8px" fill="#000000" x="52.416638732358024" y="3" font-family="sans-serif">ACTED_IN</text></g><g class="relationship" transform="translate(83.70353446451749 114.35597736847835) rotate(221.53854014033095)"><path class="outline" fill="#A5ABB6" stroke="none" d="M 25 0.5 L 29.688152335490308 0.5 L 29.688152335490308 -0.5 L 25 -0.5 Z M 75.22148516019735 0.5 L 79.90963749568765 0.5 L 79.90963749568765 3.5 L 86.90963749568765 0 L 79.90963749568765 -3.5 L 79.90963749568765 -0.5 L 75.22148516019735 -0.5 Z"/><text text-anchor="middle" pointer-events="none" font-size="8px" fill="#000000" x="52.454818747843824" y="3" transform="rotate(180 52.454818747843824 0)" font-family="sans-serif">ACTED_IN</text></g><g class="relationship" transform="translate(83.70353446451749 114.35597736847835) rotate(498.05263451515606)"><path class="outline" fill="#A5ABB6" stroke="none" d="M 25 0.5 L 28.49623698746234 0.5 L 28.49623698746234 -0.5 L 25 -0.5 Z M 74.02956981216937 0.5 L 77.52580679963171 0.5 L 77.52580679963171 3.5 L 84.52580679963171 0 L 77.52580679963171 -3.5 L 77.52580679963171 -0.5 L 74.02956981216937 -0.5 Z"/><text text-anchor="middle" pointer-events="none" font-size="8px" fill="#000000" x="51.262903399815855" y="3" transform="rotate(180 51.262903399815855 0)" font-family="sans-serif">ACTED_IN</text></g></g><g class="layer nodes"><g class="node" transform="translate(148.38335042135824,205.75165888706968)"><circle class="outline" cx="0" cy="0" r="25" fill="#57C7E3" stroke="#23b3d7" stroke-width="2px"/><text text-anchor="middle" pointer-events="none" font-family="sans-serif" dy="1.5625" font-size="25" fill="#2A2C34"/><text text-anchor="middle" pointer-events="none" font-family="sans-serif" dy="1.5625" font-size="25" fill="#2A2C34"/><text text-anchor="middle" pointer-events="none" x="0" y="0" font-size="10px" fill="#2A2C34" font-family="sans-serif"> Cloud</text><text text-anchor="middle" pointer-events="none" x="0" y="10" font-size="10px" fill="#2A2C34" font-family="sans-serif"> Atlas</text></g><g class="node" transform="translate(83.70353446451749,114.35597736847835)"><circle class="outline" cx="0" cy="0" r="25" fill="#F79767" stroke="#f36924" stroke-width="2px"/><text text-anchor="middle" pointer-events="none" font-family="sans-serif" dy="1.5625" font-size="25" fill="#FFFFFF"/><text text-anchor="middle" pointer-events="none" font-family="sans-serif" dy="1.5625" font-size="25" fill="#FFFFFF"/><text text-anchor="middle" pointer-events="none" x="0" y="0" font-size="10px" fill="#FFFFFF" font-family="sans-serif"> Hugo</text><text text-anchor="middle" pointer-events="none" x="0" y="10" font-size="10px" fill="#FFFFFF" font-family="sans-serif"> Weaving</text></g><g class="node" transform="translate(193.1199995386272,91.0984237476331)"><circle class="outline" cx="0" cy="0" r="25" fill="#57C7E3" stroke="#23b3d7" stroke-width="2px"/><text text-anchor="middle" pointer-events="none" font-family="sans-serif" dy="1.5625" font-size="25" fill="#2A2C34"/><text text-anchor="middle" pointer-events="none" font-family="sans-serif" dy="1.5625" font-size="25" fill="#2A2C34"/><text text-anchor="middle" pointer-events="none" x="0" y="0" font-size="10px" fill="#2A2C34" font-family="sans-serif"> V for</text><text text-anchor="middle" pointer-events="none" x="0" y="10" font-size="10px" fill="#2A2C34" font-family="sans-serif"> Vendetta</text></g><g class="node" transform="translate(118.88870808547713,8.201912416809675)"><circle class="outline" cx="0" cy="0" r="25" fill="#57C7E3" stroke="#23b3d7" stroke-width="2px"/><text text-anchor="middle" pointer-events="none" font-family="sans-serif" dy="1.5625" font-size="25" fill="#2A2C34"/><text text-anchor="middle" pointer-events="none" font-family="sans-serif" dy="1.5625" font-size="25" fill="#2A2C34"/><text text-anchor="middle" pointer-events="none" font-family="sans-serif" dy="1.5625" font-size="25" fill="#2A2C34"/><text text-anchor="middle" pointer-events="none" x="0" y="-5" font-size="10px" fill="#2A2C34" font-family="sans-serif"> The</text><text text-anchor="middle" pointer-events="none" x="0" y="5" font-size="10px" fill="#2A2C34" font-family="sans-serif"> Matrix</text><text text-anchor="middle" pointer-events="none" x="0" y="15" font-size="10px" fill="#2A2C34" font-family="sans-serif"> Revol…</text></g><g class="node" transform="translate(-0.061930219273615944,40.14604615489505)"><circle class="outline" cx="0" cy="0" r="25" fill="#57C7E3" stroke="#23b3d7" stroke-width="2px"/><text text-anchor="middle" pointer-events="none" font-family="sans-serif" dy="1.5625" font-size="25" fill="#2A2C34"/><text text-anchor="middle" pointer-events="none" font-family="sans-serif" dy="1.5625" font-size="25" fill="#2A2C34"/><text text-anchor="middle" pointer-events="none" font-family="sans-serif" dy="1.5625" font-size="25" fill="#2A2C34"/><text text-anchor="middle" pointer-events="none" x="0" y="-5" font-size="10px" fill="#2A2C34" font-family="sans-serif"> The</text><text text-anchor="middle" pointer-events="none" x="0" y="5" font-size="10px" fill="#2A2C34" font-family="sans-serif"> Matrix</text><text text-anchor="middle" pointer-events="none" x="0" y="15" font-size="10px" fill="#2A2C34" font-family="sans-serif"> Reloa…</text></g><g class="node" transform="translate(2.242707395809558,187.5682441575371)"><circle class="outline" cx="0" cy="0" r="25" fill="#57C7E3" stroke="#23b3d7" stroke-width="2px"/><text text-anchor="middle" pointer-events="none" font-family="sans-serif" dy="1.5625" font-size="25" fill="#2A2C34"/><text text-anchor="middle" pointer-events="none" font-family="sans-serif" dy="1.5625" font-size="25" fill="#2A2C34"/><text text-anchor="middle" pointer-events="none" x="0" y="0" font-size="10px" fill="#2A2C34" font-family="sans-serif"> The</text><text text-anchor="middle" pointer-events="none" x="0" y="10" font-size="10px" fill="#2A2C34" font-family="sans-serif"> Matrix</text></g></g></svg>