<svg xmlns="http://www.w3.org/2000/svg" width="288.0076904296875" height="284.134521484375" viewBox="-50.95426940917969 -41.84355545043945 288.0076904296875 284.134521484375"><title>Neo4j Graph Visualization</title><desc>Created using Neo4j (http://www.neo4j.com/)</desc><g class="layer relationships"><g class="relationship" transform="translate(152.74068663093047 205.22338433489904) rotate(238.5799946339596)"><path class="outline" fill="#A5ABB6" stroke="none" d="M 25 0.5 L 31.868780008157152 0.5 L 31.868780008157152 -0.5 L 25 -0.5 Z M 78.73544489463177 0.5 L 85.60422490278891 0.5 L 85.60422490278891 3.5 L 92.60422490278891 0 L 85.60422490278891 -3.5 L 85.60422490278891 -0.5 L 78.73544489463177 -0.5 Z"/><text text-anchor="middle" pointer-events="none" font-size="8px" fill="#000000" x="55.30211245139446" y="3" transform="rotate(180 55.30211245139446 0)" font-family="sans-serif">DIRECTED</text></g><g class="relationship" transform="translate(208.05343946322083 119.59121129718108) rotate(187.19757344236473)"><path class="outline" fill="#A5ABB6" stroke="none" d="M 25 0.5 L 37.37350109922559 0.5 L 37.37350109922559 -0.5 L 25 -0.5 Z M 73.17350033628614 0.5 L 85.54700143551173 0.5 L 85.54700143551173 3.5 L 92.54700143551173 0 L 85.54700143551173 -3.5 L 85.54700143551173 -0.5 L 73.17350033628614 -0.5 Z"/><text text-anchor="middle" pointer-events="none" font-size="8px" fill="#000000" x="55.273500717755866" y="3" transform="rotate(180 55.273500717755866 0)" font-family="sans-serif">WROTE</text></g><g class="relationship" transform="translate(180.721964196771 29.146430880271364) rotate(499.70209875558055)"><path class="outline" fill="#A5ABB6" stroke="none" d="M 25 0.5 L 37.13559162182388 0.5 L 37.13559162182388 -0.5 L 25 -0.5 Z M 72.93559085888442 0.5 L 85.0711824807083 0.5 L 85.0711824807083 3.5 L 92.0711824807083 0 L 85.0711824807083 -3.5 L 85.0711824807083 -0.5 L 72.93559085888442 -0.5 Z"/><text text-anchor="middle" pointer-events="none" font-size="8px" fill="#000000" x="55.03559124035415" y="3" transform="rotate(180 55.03559124035415 0)" font-family="sans-serif">WROTE</text></g><g class="relationship" transform="translate(96.02298731241567 -12.843554363844907) rotate(452.2332580618904)"><path class="outline" fill="#A5ABB6" stroke="none" d="M 25 0.5 L 37.49831514864843 0.5 L 37.49831514864843 -0.5 L 25 -0.5 Z M 73.29831438570898 0.5 L 85.79662953435741 0.5 L 85.79662953435741 3.5 L 92.79662953435741 0 L 85.79662953435741 -3.5 L 85.79662953435741 -0.5 L 73.29831438570898 -0.5 Z"/><text text-anchor="middle" pointer-events="none" font-size="8px" fill="#000000" x="55.398314767178704" y="3" transform="rotate(180 55.398314767178704 0)" font-family="sans-serif">WROTE</text></g><g class="relationship" transform="translate(0.712100265850112 30.806245771729557) rotate(399.22556809064156)"><path class="outline" fill="#A5ABB6" stroke="none" d="M 25 0.5 L 32.28826708817096 0.5 L 32.28826708817096 -0.5 L 25 -0.5 Z M 77.82159991287799 0.5 L 85.10986700104895 0.5 L 85.10986700104895 3.5 L 92.10986700104895 0 L 85.10986700104895 -3.5 L 85.10986700104895 -0.5 L 77.82159991287799 -0.5 Z"/><text text-anchor="middle" pointer-events="none" font-size="8px" fill="#000000" x="55.05493350052448" y="3" font-family="sans-serif">ACTED_IN</text></g><g class="relationship" transform="translate(-21.954268252994442 133.97601639628434) rotate(345.60019689548653)"><path class="outline" fill="#A5ABB6" stroke="none" d="M 25 0.5 L 32.26567245264708 0.5 L 32.26567245264708 -0.5 L 25 -0.5 Z M 77.79900527735411 0.5 L 85.0646777300012 0.5 L 85.0646777300012 3.5 L 92.0646777300012 0 L 85.0646777300012 -3.5 L 85.0646777300012 -0.5 L 77.79900527735411 -0.5 Z"/><text text-anchor="middle" pointer-events="none" font-size="8px" fill="#000000" x="55.0323388650006" y="3" font-family="sans-serif">ACTED_IN</text></g><g class="relationship" transform="translate(48.465286410073446 213.29096670580185) rotate(291.61735297847395)"><path class="outline" fill="#A5ABB6" stroke="none" d="M 25 0.5 L 32.04862345771289 0.5 L 32.04862345771289 -0.5 L 25 -0.5 Z M 77.58195628241992 0.5 L 84.63057974013282 0.5 L 84.63057974013282 3.5 L 91.63057974013282 0 L 84.63057974013282 -3.5 L 84.63057974013282 -0.5 L 77.58195628241992 -0.5 Z"/><text text-anchor="middle" pointer-events="none" font-size="8px" fill="#000000" x="54.81528987006641" y="3" font-family="sans-serif">ACTED_IN</text></g></g><g class="layer nodes"><g class="node" transform="translate(91.43270740396565,104.86360455190128)"><circle class="outline" cx="0" cy="0" r="25" fill="#57C7E3" stroke="#23b3d7" stroke-width="2px"/><text text-anchor="middle" pointer-events="none" font-family="sans-serif" dy="1.5625" font-size="25" fill="#2A2C34"/><text text-anchor="middle" pointer-events="none" font-family="sans-serif" dy="1.5625" font-size="25" fill="#2A2C34"/><text text-anchor="middle" pointer-events="none" font-family="sans-serif" dy="1.5625" font-size="25" fill="#2A2C34"/><text text-anchor="middle" pointer-events="none" x="0" y="-5" font-size="10px" fill="#2A2C34" font-family="sans-serif"> Captain</text><text text-anchor="middle" pointer-events="none" x="0" y="5" font-size="10px" fill="#2A2C34" font-family="sans-serif"> America:</text><text text-anchor="middle" pointer-events="none" x="0" y="15" font-size="10px" fill="#2A2C34" font-family="sans-serif"> The Fi…</text></g><g class="node" transform="translate(152.74068663093047,205.22338433489904)"><circle class="outline" cx="0" cy="0" r="25" fill="#F79767" stroke="#f36924" stroke-width="2px"/><text text-anchor="middle" pointer-events="none" font-family="sans-serif" dy="1.5625" font-size="25" fill="#FFFFFF"/><text text-anchor="middle" pointer-events="none" font-family="sans-serif" dy="1.5625" font-size="25" fill="#FFFFFF"/><text text-anchor="middle" pointer-events="none" x="0" y="0" font-size="10px" fill="#FFFFFF" font-family="sans-serif"> Joe</text><text text-anchor="middle" pointer-events="none" x="0" y="10" font-size="10px" fill="#FFFFFF" font-family="sans-serif"> Johnston</text></g><g class="node" transform="translate(208.05343946322083,119.59121129718108)"><circle class="outline" cx="0" cy="0" r="25" fill="#F79767" stroke="#f36924" stroke-width="2px"/><text text-anchor="middle" pointer-events="none" font-family="sans-serif" dy="1.5625" font-size="25" fill="#FFFFFF"/><text text-anchor="middle" pointer-events="none" x="0" y="5" font-size="10px" fill="#FFFFFF" font-family="sans-serif"> Christop…</text></g><g class="node" transform="translate(180.721964196771,29.146430880271364)"><circle class="outline" cx="0" cy="0" r="25" fill="#F79767" stroke="#f36924" stroke-width="2px"/><text text-anchor="middle" pointer-events="none" font-family="sans-serif" dy="1.5625" font-size="25" fill="#FFFFFF"/><text text-anchor="middle" pointer-events="none" font-family="sans-serif" dy="1.5625" font-size="25" fill="#FFFFFF"/><text text-anchor="middle" pointer-events="none" x="0" y="0" font-size="10px" fill="#FFFFFF" font-family="sans-serif"> Stephen</text><text text-anchor="middle" pointer-events="none" x="0" y="10" font-size="10px" fill="#FFFFFF" font-family="sans-serif"> McFlee</text></g><g class="node" transform="translate(96.02298731241567,-12.843554363844907)"><circle class="outline" cx="0" cy="0" r="25" fill="#F79767" stroke="#f36924" stroke-width="2px"/><text text-anchor="middle" pointer-events="none" font-family="sans-serif" dy="1.5625" font-size="25" fill="#FFFFFF"/><text text-anchor="middle" pointer-events="none" font-family="sans-serif" dy="1.5625" font-size="25" fill="#FFFFFF"/><text text-anchor="middle" pointer-events="none" x="0" y="0" font-size="10px" fill="#FFFFFF" font-family="sans-serif"> Joe</text><text text-anchor="middle" pointer-events="none" x="0" y="10" font-size="10px" fill="#FFFFFF" font-family="sans-serif"> Simon</text></g><g class="node" transform="translate(0.712100265850112,30.806245771729557)"><circle class="outline" cx="0" cy="0" r="25" fill="#F79767" stroke="#f36924" stroke-width="2px"/><text text-anchor="middle" pointer-events="none" font-family="sans-serif" dy="1.5625" font-size="25" fill="#FFFFFF"/><text text-anchor="middle" pointer-events="none" font-family="sans-serif" dy="1.5625" font-size="25" fill="#FFFFFF"/><text text-anchor="middle" pointer-events="none" x="0" y="0" font-size="10px" fill="#FFFFFF" font-family="sans-serif"> Chris</text><text text-anchor="middle" pointer-events="none" x="0" y="10" font-size="10px" fill="#FFFFFF" font-family="sans-serif"> Evans</text></g><g class="node" transform="translate(-21.954268252994442,133.97601639628434)"><circle class="outline" cx="0" cy="0" r="25" fill="#F79767" stroke="#f36924" stroke-width="2px"/><text text-anchor="middle" pointer-events="none" font-family="sans-serif" dy="1.5625" font-size="25" fill="#FFFFFF"/><text text-anchor="middle" pointer-events="none" font-family="sans-serif" dy="1.5625" font-size="25" fill="#FFFFFF"/><text text-anchor="middle" pointer-events="none" font-family="sans-serif" dy="1.5625" font-size="25" fill="#FFFFFF"/><text text-anchor="middle" pointer-events="none" x="0" y="-5" font-size="10px" fill="#FFFFFF" font-family="sans-serif"> Samuel</text><text text-anchor="middle" pointer-events="none" x="0" y="5" font-size="10px" fill="#FFFFFF" font-family="sans-serif"> L.</text><text text-anchor="middle" pointer-events="none" x="0" y="15" font-size="10px" fill="#FFFFFF" font-family="sans-serif"> Jackson</text></g><g class="node" transform="translate(48.465286410073446,213.29096670580185)"><circle class="outline" cx="0" cy="0" r="25" fill="#F79767" stroke="#f36924" stroke-width="2px"/><text text-anchor="middle" pointer-events="none" font-family="sans-serif" dy="1.5625" font-size="25" fill="#FFFFFF"/><text text-anchor="middle" pointer-events="none" font-family="sans-serif" dy="1.5625" font-size="25" fill="#FFFFFF"/><text text-anchor="middle" pointer-events="none" x="0" y="0" font-size="10px" fill="#FFFFFF" font-family="sans-serif"> Hugo</text><text text-anchor="middle" pointer-events="none" x="0" y="10" font-size="10px" fill="#FFFFFF" font-family="sans-serif"> Weaving</text></g></g></svg>