<svg xmlns="http://www.w3.org/2000/svg" width="220.75753784179688" height="200.73867797851562" viewBox="5.670284271240234 6.474475860595703 220.75753784179688 200.73867797851562"><title>Neo4j Graph Visualization</title><desc>Created using Neo4j (http://www.neo4j.com/)</desc><g class="layer relationships"><g class="relationship" transform="translate(97.66875986379287 178.21314478957797) rotate(335.03166223579206)"><path class="outline" fill="#A5ABB6" stroke="none" d="M 25 0.5 L 28.755134934651252 0.5 L 28.755134934651252 -0.5 L 25 -0.5 Z M 74.28846775935828 0.5 L 78.04360269400954 0.5 L 78.04360269400954 3.5 L 85.04360269400954 0 L 78.04360269400954 -3.5 L 78.04360269400954 -0.5 L 74.28846775935828 -0.5 Z"/><text text-anchor="middle" pointer-events="none" font-size="8px" fill="#000000" x="51.52180134700477" y="3" font-family="sans-serif">ACTED_IN</text></g><g class="relationship" transform="translate(97.66875986379287 178.21314478957797) rotate(250.5061303370291)"><path class="outline" fill="#A5ABB6" stroke="none" d="M 25 0.5 L 39.944496112744375 0.5 L 39.944496112744375 -0.5 L 25 -0.5 Z M 85.4778289374514 0.5 L 100.42232505019578 0.5 L 100.42232505019578 3.5 L 107.42232505019578 0 L 100.42232505019578 -3.5 L 100.42232505019578 -0.5 L 85.4778289374514 -0.5 Z"/><text text-anchor="middle" pointer-events="none" font-size="8px" fill="#000000" x="62.71116252509789" y="3" transform="rotate(180 62.71116252509789 0)" font-family="sans-serif">ACTED_IN</text></g><g class="relationship" transform="translate(97.66875986379287 178.21314478957797) rotate(227.1802362931528)"><path class="outline" fill="#A5ABB6" stroke="none" d="M 25 0.5 L 25.176571320458898 0.5 L 25.176571320458898 -0.5 L 25 -0.5 Z M 60.50990528957511 0.5 L 60.686476610034006 0.5 L 60.686476610034006 3.5 L 67.686476610034 0 L 60.686476610034006 -3.5 L 60.686476610034006 -0.5 L 60.50990528957511 -0.5 Z"/><text text-anchor="middle" pointer-events="none" font-size="8px" fill="#000000" x="42.843238305017" y="3" transform="rotate(180 42.843238305017 0)" font-family="sans-serif">ACTE…</text></g><g class="relationship" transform="translate(144.134664221458 35.47447456587784) rotate(421.03633594325345)"><path class="outline" fill="#A5ABB6" stroke="none" d="M 25 0.5 L 28.759270703241945 0.5 L 28.759270703241945 -0.5 L 25 -0.5 Z M 74.29260352794898 0.5 L 78.05187423119092 0.5 L 78.05187423119092 3.5 L 85.05187423119092 0 L 78.05187423119092 -3.5 L 78.05187423119092 -0.5 L 74.29260352794898 -0.5 Z"/><text text-anchor="middle" pointer-events="none" font-size="8px" fill="#000000" x="51.52593711559546" y="3" font-family="sans-serif">ACTED_IN</text></g><g class="relationship" transform="translate(144.134664221458 35.47447456587784) rotate(528.8262835563171)"><path class="outline" fill="#A5ABB6" stroke="none" d="M 25 0.5 L 25.03718039170171 0.5 L 25.03718039170171 -0.5 L 25 -0.5 Z M 60.37051436081792 0.5 L 60.40769475251963 0.5 L 60.40769475251963 3.5 L 67.40769475251963 0 L 60.40769475251963 -3.5 L 60.40769475251963 -0.5 L 60.37051436081792 -0.5 Z"/><text text-anchor="middle" pointer-events="none" font-size="8px" fill="#000000" x="42.703847376259816" y="3" transform="rotate(180 42.703847376259816 0)" font-family="sans-serif">ACTE…</text></g><g class="relationship" transform="translate(144.134664221458 35.47447456587784) rotate(505.6707110823063)"><path class="outline" fill="#A5ABB6" stroke="none" d="M 25 0.5 L 40.010300333686246 0.5 L 40.010300333686246 -0.5 L 25 -0.5 Z M 85.54363315839328 0.5 L 100.55393349207952 0.5 L 100.55393349207952 3.5 L 107.55393349207952 0 L 100.55393349207952 -3.5 L 100.55393349207952 -0.5 L 85.54363315839328 -0.5 Z"/><text text-anchor="middle" pointer-events="none" font-size="8px" fill="#000000" x="62.77696674603976" y="3" transform="rotate(180 62.77696674603976 0)" font-family="sans-serif">ACTED_IN</text></g></g><g class="layer nodes"><g class="node" transform="translate(97.66875986379287,178.21314478957797)"><circle class="outline" cx="0" cy="0" r="25" fill="#F79767" stroke="#f36924" stroke-width="2px"/><text text-anchor="middle" pointer-events="none" font-family="sans-serif" dy="1.5625" font-size="25" fill="#FFFFFF"/><text text-anchor="middle" pointer-events="none" font-family="sans-serif" dy="1.5625" font-size="25" fill="#FFFFFF"/><text text-anchor="middle" pointer-events="none" x="0" y="0" font-size="10px" fill="#FFFFFF" font-family="sans-serif"> Hugo</text><text text-anchor="middle" pointer-events="none" x="0" y="10" font-size="10px" fill="#FFFFFF" font-family="sans-serif"> Weaving</text></g><g class="node" transform="translate(197.42781860332119,131.7618294876367)"><circle class="outline" cx="0" cy="0" r="25" fill="#57C7E3" stroke="#23b3d7" stroke-width="2px"/><text text-anchor="middle" pointer-events="none" font-family="sans-serif" dy="1.5625" font-size="25" fill="#2A2C34"/><text text-anchor="middle" pointer-events="none" font-family="sans-serif" dy="1.5625" font-size="25" fill="#2A2C34"/><text text-anchor="middle" pointer-events="none" font-family="sans-serif" dy="1.5625" font-size="25" fill="#2A2C34"/><text text-anchor="middle" pointer-events="none" x="0" y="-5" font-size="10px" fill="#2A2C34" font-family="sans-serif"> The</text><text text-anchor="middle" pointer-events="none" x="0" y="5" font-size="10px" fill="#2A2C34" font-family="sans-serif"> Matrix</text><text text-anchor="middle" pointer-events="none" x="0" y="15" font-size="10px" fill="#2A2C34" font-family="sans-serif"> Revol…</text></g><g class="node" transform="translate(144.134664221458,35.47447456587784)"><circle class="outline" cx="0" cy="0" r="25" fill="#F79767" stroke="#f36924" stroke-width="2px"/><text text-anchor="middle" pointer-events="none" font-family="sans-serif" dy="1.5625" font-size="25" fill="#FFFFFF"/><text text-anchor="middle" pointer-events="none" font-family="sans-serif" dy="1.5625" font-size="25" fill="#FFFFFF"/><text text-anchor="middle" pointer-events="none" x="0" y="0" font-size="10px" fill="#FFFFFF" font-family="sans-serif"> Keanu</text><text text-anchor="middle" pointer-events="none" x="0" y="10" font-size="10px" fill="#FFFFFF" font-family="sans-serif"> Reeves</text></g><g class="node" transform="translate(53.47863548620286,53.38163803269856)"><circle class="outline" cx="0" cy="0" r="25" fill="#57C7E3" stroke="#23b3d7" stroke-width="2px"/><text text-anchor="middle" pointer-events="none" font-family="sans-serif" dy="1.5625" font-size="25" fill="#2A2C34"/><text text-anchor="middle" pointer-events="none" font-family="sans-serif" dy="1.5625" font-size="25" fill="#2A2C34"/><text text-anchor="middle" pointer-events="none" font-family="sans-serif" dy="1.5625" font-size="25" fill="#2A2C34"/><text text-anchor="middle" pointer-events="none" x="0" y="-5" font-size="10px" fill="#2A2C34" font-family="sans-serif"> The</text><text text-anchor="middle" pointer-events="none" x="0" y="5" font-size="10px" fill="#2A2C34" font-family="sans-serif"> Matrix</text><text text-anchor="middle" pointer-events="none" x="0" y="15" font-size="10px" fill="#2A2C34" font-family="sans-serif"> Reloa…</text></g><g class="node" transform="translate(34.67028465800385,110.22803562493834)"><circle class="outline" cx="0" cy="0" r="25" fill="#57C7E3" stroke="#23b3d7" stroke-width="2px"/><text text-anchor="middle" pointer-events="none" font-family="sans-serif" dy="1.5625" font-size="25" fill="#2A2C34"/><text text-anchor="middle" pointer-events="none" font-family="sans-serif" dy="1.5625" font-size="25" fill="#2A2C34"/><text text-anchor="middle" pointer-events="none" x="0" y="0" font-size="10px" fill="#2A2C34" font-family="sans-serif"> The</text><text text-anchor="middle" pointer-events="none" x="0" y="10" font-size="10px" fill="#2A2C34" font-family="sans-serif"> Matrix</text></g></g></svg>