<svg xmlns="http://www.w3.org/2000/svg" width="592.7914428710938" height="417.0638732910156" viewBox="-205.30397033691406 -124.4635009765625 592.7914428710938 417.0638732910156"><title>Neo4j Graph Visualization</title><desc>Created using Neo4j (http://www.neo4j.com/)</desc><g class="layer relationships"><g class="relationship" transform="translate(96.76263923382456 263.600362467197) rotate(271.4685323620929)"><path class="outline" fill="#A5ABB6" stroke="none" d="M 25 0.5 L 35.26692622557189 0.5 L 35.26692622557189 -0.5 L 25 -0.5 Z M 80.80025905027892 0.5 L 91.06718527585082 0.5 L 91.06718527585082 3.5 L 98.06718527585082 0 L 91.06718527585082 -3.5 L 91.06718527585082 -0.5 L 80.80025905027892 -0.5 Z"/><text text-anchor="middle" pointer-events="none" font-size="8px" fill="#000000" x="58.03359263792541" y="3" font-family="sans-serif">ACTED_IN</text></g><g class="relationship" transform="translate(182.72339352845913 232.39042763878206) rotate(227.95366299243335)"><path class="outline" fill="#A5ABB6" stroke="none" d="M 25 0.5 L 35.554236178361585 0.5 L 35.554236178361585 -0.5 L 25 -0.5 Z M 81.08756900306861 0.5 L 91.6418051814302 0.5 L 91.6418051814302 3.5 L 98.6418051814302 0 L 91.6418051814302 -3.5 L 91.6418051814302 -0.5 L 81.08756900306861 -0.5 Z"/><text text-anchor="middle" pointer-events="none" font-size="8px" fill="#000000" x="58.3209025907151" y="3" transform="rotate(180 58.3209025907151 0)" font-family="sans-serif">ACTED_IN</text></g><g class="relationship" transform="translate(120.42423532664485 37.8058387521171) rotate(461.2853178720448)"><path class="outline" fill="#A5ABB6" stroke="none" d="M 25 0.5 L 26.130317640615267 0.5 L 26.130317640615267 -0.5 L 25 -0.5 Z M 71.66365046532229 0.5 L 72.79396810593757 0.5 L 72.79396810593757 3.5 L 79.79396810593757 0 L 72.79396810593757 -3.5 L 72.79396810593757 -0.5 L 71.66365046532229 -0.5 Z"/><text text-anchor="middle" pointer-events="none" font-size="8px" fill="#000000" x="48.89698405296878" y="3" transform="rotate(180 48.89698405296878 0)" font-family="sans-serif">ACTED_IN</text></g><g class="relationship" transform="translate(210.73179648761888 -95.46350373263853) rotate(434.2034270875255)"><path class="outline" fill="#A5ABB6" stroke="none" d="M 25 0.5 L 32.53137854952507 0.5 L 32.53137854952507 -0.5 L 25 -0.5 Z M 78.0647113742321 0.5 L 85.59608992375718 0.5 L 85.59608992375718 3.5 L 92.59608992375718 0 L 85.59608992375718 -3.5 L 85.59608992375718 -0.5 L 78.0647113742321 -0.5 Z"/><text text-anchor="middle" pointer-events="none" font-size="8px" fill="#000000" x="55.29804496187859" y="3" font-family="sans-serif">ACTED_IN</text></g><g class="relationship" transform="translate(358.4874715388136 43.260136999786624) rotate(192.4570412814997)"><path class="outline" fill="#A5ABB6" stroke="none" d="M 25 0.5 L 33.000270467236575 0.5 L 33.000270467236575 -0.5 L 25 -0.5 Z M 78.5336032919436 0.5 L 86.53387375918018 0.5 L 86.53387375918018 3.5 L 93.53387375918018 0 L 86.53387375918018 -3.5 L 86.53387375918018 -0.5 L 78.5336032919436 -0.5 Z"/><text text-anchor="middle" pointer-events="none" font-size="8px" fill="#000000" x="55.76693687959009" y="3" transform="rotate(180 55.76693687959009 0)" font-family="sans-serif">ACTED_IN</text></g><g class="relationship" transform="translate(300.2330547763536 124.68827177786729) rotate(241.75104435750097)"><path class="outline" fill="#A5ABB6" stroke="none" d="M 25 0.5 L 34.464894435267105 0.5 L 34.464894435267105 -0.5 L 25 -0.5 Z M 79.99822725997413 0.5 L 89.46312169524124 0.5 L 89.46312169524124 3.5 L 96.46312169524124 0 L 89.46312169524124 -3.5 L 89.46312169524124 -0.5 L 79.99822725997413 -0.5 Z"/><text text-anchor="middle" pointer-events="none" font-size="8px" fill="#000000" x="57.23156084762062" y="3" transform="rotate(180 57.23156084762062 0)" font-family="sans-serif">ACTED_IN</text></g><g class="relationship" transform="translate(318.93034241939165 -67.72717990467467) rotate(491.7302618975777)"><path class="outline" fill="#A5ABB6" stroke="none" d="M 25 0.5 L 30.962453542125267 0.5 L 30.962453542125267 -0.5 L 25 -0.5 Z M 76.4957863668323 0.5 L 82.45823990895757 0.5 L 82.45823990895757 3.5 L 89.45823990895757 0 L 82.45823990895757 -3.5 L 82.45823990895757 -0.5 L 76.4957863668323 -0.5 Z"/><text text-anchor="middle" pointer-events="none" font-size="8px" fill="#000000" x="53.72911995447878" y="3" transform="rotate(180 53.72911995447878 0)" font-family="sans-serif">ACTED_IN</text></g><g class="relationship" transform="translate(-115.31060095629202 30.276315730146333) rotate(289.0160544651679)"><path class="outline" fill="#A5ABB6" stroke="none" d="M 25 0.5 L 27.066865428613752 0.5 L 27.066865428613752 -0.5 L 25 -0.5 Z M 68.16686390273485 0.5 L 70.2337293313486 0.5 L 70.2337293313486 3.5 L 77.2337293313486 0 L 70.2337293313486 -3.5 L 70.2337293313486 -0.5 L 68.16686390273485 -0.5 Z"/><text text-anchor="middle" pointer-events="none" font-size="8px" fill="#000000" x="47.6168646656743" y="3" font-family="sans-serif">ACTED…</text></g><g class="relationship" transform="translate(-115.31060095629202 30.276315730146333) rotate(485.47266525373664)"><path class="outline" fill="#A5ABB6" stroke="none" d="M 25 0.5 L 26.285323836574527 0.5 L 26.285323836574527 -0.5 L 25 -0.5 Z M 71.81865666128155 0.5 L 73.10398049785609 0.5 L 73.10398049785609 3.5 L 80.10398049785609 0 L 73.10398049785609 -3.5 L 73.10398049785609 -0.5 L 71.81865666128155 -0.5 Z"/><text text-anchor="middle" pointer-events="none" font-size="8px" fill="#000000" x="49.05199024892804" y="3" transform="rotate(180 49.05199024892804 0)" font-family="sans-serif">ACTED_IN</text></g><g class="relationship" transform="translate(-115.31060095629202 30.276315730146333) rotate(444.94449479620846)"><path class="outline" fill="#A5ABB6" stroke="none" d="M 25 0.5 L 28.993608271593644 0.5 L 28.993608271593644 -0.5 L 25 -0.5 Z M 74.52694109630067 0.5 L 78.52054936789432 0.5 L 78.52054936789432 3.5 L 85.52054936789432 0 L 78.52054936789432 -3.5 L 78.52054936789432 -0.5 L 74.52694109630067 -0.5 Z"/><text text-anchor="middle" pointer-events="none" font-size="8px" fill="#000000" x="51.76027468394716" y="3" font-family="sans-serif">ACTED_IN</text></g><g class="relationship" transform="translate(-58.43153070851807 50.276005821901535) rotate(258.57814162071594)"><path class="outline" fill="#A5ABB6" stroke="none" d="M 25 0.5 L 33.23892543299686 0.5 L 33.23892543299686 -0.5 L 25 -0.5 Z M 78.7722582577039 0.5 L 87.01118369070075 0.5 L 87.01118369070075 3.5 L 94.01118369070075 0 L 87.01118369070075 -3.5 L 87.01118369070075 -0.5 L 78.7722582577039 -0.5 Z"/><text text-anchor="middle" pointer-events="none" font-size="8px" fill="#000000" x="56.005591845350374" y="3" transform="rotate(180 56.005591845350374 0)" font-family="sans-serif">ACTED_IN</text></g><g class="relationship" transform="translate(-58.43153070851807 50.276005821901535) rotate(510.9039913458996)"><path class="outline" fill="#A5ABB6" stroke="none" d="M 25 0.5 L 41.18103915551558 0.5 L 41.18103915551558 -0.5 L 25 -0.5 Z M 86.71437198022261 0.5 L 102.89541113573819 0.5 L 102.89541113573819 3.5 L 109.89541113573819 0 L 102.89541113573819 -3.5 L 102.89541113573819 -0.5 L 86.71437198022261 -0.5 Z"/><text text-anchor="middle" pointer-events="none" font-size="8px" fill="#000000" x="63.94770556786909" y="3" transform="rotate(180 63.94770556786909 0)" font-family="sans-serif">ACTED_IN</text></g><g class="relationship" transform="translate(-58.43153070851807 50.276005821901535) rotate(477.6207362125346)"><path class="outline" fill="#A5ABB6" stroke="none" d="M 25 0.5 L 26.789316326740334 0.5 L 26.789316326740334 -0.5 L 25 -0.5 Z M 67.88931480086143 0.5 L 69.67863112760176 0.5 L 69.67863112760176 3.5 L 76.67863112760176 0 L 69.67863112760176 -3.5 L 69.67863112760176 -0.5 L 67.88931480086143 -0.5 Z"/><text text-anchor="middle" pointer-events="none" font-size="8px" fill="#000000" x="47.33931556380088" y="3" transform="rotate(180 47.33931556380088 0)" font-family="sans-serif">ACTED…</text></g><g class="relationship" transform="translate(-174.02457825276588 17.923396369476706) rotate(317.50806757987664)"><path class="outline" fill="#A5ABB6" stroke="none" d="M 25 0.5 L 36.13402898485217 0.5 L 36.13402898485217 -0.5 L 25 -0.5 Z M 81.6673618095592 0.5 L 92.80139079441138 0.5 L 92.80139079441138 3.5 L 99.80139079441138 0 L 92.80139079441138 -3.5 L 92.80139079441138 -0.5 L 81.6673618095592 -0.5 Z"/><text text-anchor="middle" pointer-events="none" font-size="8px" fill="#000000" x="58.90069539720569" y="3" font-family="sans-serif">ACTED_IN</text></g><g class="relationship" transform="translate(-174.02457825276588 17.923396369476706) rotate(451.3331004901552)"><path class="outline" fill="#A5ABB6" stroke="none" d="M 25 0.5 L 27.82099695517583 0.5 L 27.82099695517583 -0.5 L 25 -0.5 Z M 63.15433092429204 0.5 L 65.97532787946787 0.5 L 65.97532787946787 3.5 L 72.97532787946787 0 L 65.97532787946787 -3.5 L 65.97532787946787 -0.5 L 63.15433092429204 -0.5 Z"/><text text-anchor="middle" pointer-events="none" font-size="8px" fill="#000000" x="45.487663939733935" y="3" transform="rotate(180 45.487663939733935 0)" font-family="sans-serif">ACTE…</text></g><g class="relationship" transform="translate(-174.02457825276588 17.923396369476706) rotate(420.7922412681871)"><path class="outline" fill="#A5ABB6" stroke="none" d="M 25 0.5 L 43.87292176734614 0.5 L 43.87292176734614 -0.5 L 25 -0.5 Z M 89.40625459205317 0.5 L 108.27917635939932 0.5 L 108.27917635939932 3.5 L 115.27917635939932 0 L 108.27917635939932 -3.5 L 108.27917635939932 -0.5 L 89.40625459205317 -0.5 Z"/><text text-anchor="middle" pointer-events="none" font-size="8px" fill="#000000" x="66.63958817969966" y="3" font-family="sans-serif">ACTED_IN</text></g><g class="relationship" transform="translate(-91.32124381852125 259.30221361325613) rotate(263.1676905755528)"><path class="outline" fill="#A5ABB6" stroke="none" d="M 25 0.5 L 33.626306503429014 0.5 L 33.626306503429014 -0.5 L 25 -0.5 Z M 79.15963932813605 0.5 L 87.78594583156506 0.5 L 87.78594583156506 3.5 L 94.78594583156506 0 L 87.78594583156506 -3.5 L 87.78594583156506 -0.5 L 79.15963932813605 -0.5 Z"/><text text-anchor="middle" pointer-events="none" font-size="8px" fill="#000000" x="56.39297291578253" y="3" transform="rotate(180 56.39297291578253 0)" font-family="sans-serif">ACTED_IN</text></g></g><g class="layer nodes"><g class="node" transform="translate(99.91659505272418,140.57359849117012)"><circle class="outline" cx="0" cy="0" r="25" fill="#57C7E3" stroke="#23b3d7" stroke-width="2px"/><text text-anchor="middle" pointer-events="none" font-family="sans-serif" dy="1.5625" font-size="25" fill="#2A2C34"/><text text-anchor="middle" pointer-events="none" font-family="sans-serif" dy="1.5625" font-size="25" fill="#2A2C34"/><text text-anchor="middle" pointer-events="none" x="0" y="0" font-size="10px" fill="#2A2C34" font-family="sans-serif"> Cloud</text><text text-anchor="middle" pointer-events="none" x="0" y="10" font-size="10px" fill="#2A2C34" font-family="sans-serif"> Atlas</text></g><g class="node" transform="translate(96.76263923382456,263.600362467197)"><circle class="outline" cx="0" cy="0" r="25" fill="#F79767" stroke="#f36924" stroke-width="2px"/><text text-anchor="middle" pointer-events="none" font-family="sans-serif" dy="1.5625" font-size="25" fill="#FFFFFF"/><text text-anchor="middle" pointer-events="none" font-family="sans-serif" dy="1.5625" font-size="25" fill="#FFFFFF"/><text text-anchor="middle" pointer-events="none" x="0" y="0" font-size="10px" fill="#FFFFFF" font-family="sans-serif"> Tom</text><text text-anchor="middle" pointer-events="none" x="0" y="10" font-size="10px" fill="#FFFFFF" font-family="sans-serif"> Hanks</text></g><g class="node" transform="translate(182.72339352845913,232.39042763878206)"><circle class="outline" cx="0" cy="0" r="25" fill="#F79767" stroke="#f36924" stroke-width="2px"/><text text-anchor="middle" pointer-events="none" font-family="sans-serif" dy="1.5625" font-size="25" fill="#FFFFFF"/><text text-anchor="middle" pointer-events="none" font-family="sans-serif" dy="1.5625" font-size="25" fill="#FFFFFF"/><text text-anchor="middle" pointer-events="none" x="0" y="0" font-size="10px" fill="#FFFFFF" font-family="sans-serif"> Jim</text><text text-anchor="middle" pointer-events="none" x="0" y="10" font-size="10px" fill="#FFFFFF" font-family="sans-serif"> Broadb…</text></g><g class="node" transform="translate(120.42423532664485,37.8058387521171)"><circle class="outline" cx="0" cy="0" r="25" fill="#F79767" stroke="#f36924" stroke-width="2px"/><text text-anchor="middle" pointer-events="none" font-family="sans-serif" dy="1.5625" font-size="25" fill="#FFFFFF"/><text text-anchor="middle" pointer-events="none" font-family="sans-serif" dy="1.5625" font-size="25" fill="#FFFFFF"/><text text-anchor="middle" pointer-events="none" x="0" y="0" font-size="10px" fill="#FFFFFF" font-family="sans-serif"> Halle</text><text text-anchor="middle" pointer-events="none" x="0" y="10" font-size="10px" fill="#FFFFFF" font-family="sans-serif"> Berry</text></g><g class="node" transform="translate(242.74412071224634,17.691484947020285)"><circle class="outline" cx="0" cy="0" r="25" fill="#57C7E3" stroke="#23b3d7" stroke-width="2px"/><text text-anchor="middle" pointer-events="none" font-family="sans-serif" dy="1.5625" font-size="25" fill="#2A2C34"/><text text-anchor="middle" pointer-events="none" font-family="sans-serif" dy="1.5625" font-size="25" fill="#2A2C34"/><text text-anchor="middle" pointer-events="none" x="0" y="0" font-size="10px" fill="#2A2C34" font-family="sans-serif"> V for</text><text text-anchor="middle" pointer-events="none" x="0" y="10" font-size="10px" fill="#2A2C34" font-family="sans-serif"> Vendetta</text></g><g class="node" transform="translate(210.73179648761888,-95.46350373263853)"><circle class="outline" cx="0" cy="0" r="25" fill="#F79767" stroke="#f36924" stroke-width="2px"/><text text-anchor="middle" pointer-events="none" font-family="sans-serif" dy="1.5625" font-size="25" fill="#FFFFFF"/><text text-anchor="middle" pointer-events="none" x="0" y="5" font-size="10px" fill="#FFFFFF" font-family="sans-serif"> John Hurt</text></g><g class="node" transform="translate(358.4874715388136,43.260136999786624)"><circle class="outline" cx="0" cy="0" r="25" fill="#F79767" stroke="#f36924" stroke-width="2px"/><text text-anchor="middle" pointer-events="none" font-family="sans-serif" dy="1.5625" font-size="25" fill="#FFFFFF"/><text text-anchor="middle" pointer-events="none" font-family="sans-serif" dy="1.5625" font-size="25" fill="#FFFFFF"/><text text-anchor="middle" pointer-events="none" x="0" y="0" font-size="10px" fill="#FFFFFF" font-family="sans-serif"> Stephen</text><text text-anchor="middle" pointer-events="none" x="0" y="10" font-size="10px" fill="#FFFFFF" font-family="sans-serif"> Rea</text></g><g class="node" transform="translate(300.2330547763536,124.68827177786729)"><circle class="outline" cx="0" cy="0" r="25" fill="#F79767" stroke="#f36924" stroke-width="2px"/><text text-anchor="middle" pointer-events="none" font-family="sans-serif" dy="1.5625" font-size="25" fill="#FFFFFF"/><text text-anchor="middle" pointer-events="none" font-family="sans-serif" dy="1.5625" font-size="25" fill="#FFFFFF"/><text text-anchor="middle" pointer-events="none" x="0" y="0" font-size="10px" fill="#FFFFFF" font-family="sans-serif"> Natalie</text><text text-anchor="middle" pointer-events="none" x="0" y="10" font-size="10px" fill="#FFFFFF" font-family="sans-serif"> Portman</text></g><g class="node" transform="translate(318.93034241939165,-67.72717990467467)"><circle class="outline" cx="0" cy="0" r="25" fill="#F79767" stroke="#f36924" stroke-width="2px"/><text text-anchor="middle" pointer-events="none" font-family="sans-serif" dy="1.5625" font-size="25" fill="#FFFFFF"/><text text-anchor="middle" pointer-events="none" x="0" y="5" font-size="10px" fill="#FFFFFF" font-family="sans-serif"> Ben Miles</text></g><g class="node" transform="translate(-81.99947014282981,-66.37824431191197)"><circle class="outline" cx="0" cy="0" r="25" fill="#57C7E3" stroke="#23b3d7" stroke-width="2px"/><text text-anchor="middle" pointer-events="none" font-family="sans-serif" dy="1.5625" font-size="25" fill="#2A2C34"/><text text-anchor="middle" pointer-events="none" font-family="sans-serif" dy="1.5625" font-size="25" fill="#2A2C34"/><text text-anchor="middle" pointer-events="none" font-family="sans-serif" dy="1.5625" font-size="25" fill="#2A2C34"/><text text-anchor="middle" pointer-events="none" x="0" y="-5" font-size="10px" fill="#2A2C34" font-family="sans-serif"> The</text><text text-anchor="middle" pointer-events="none" x="0" y="5" font-size="10px" fill="#2A2C34" font-family="sans-serif"> Matrix</text><text text-anchor="middle" pointer-events="none" x="0" y="15" font-size="10px" fill="#2A2C34" font-family="sans-serif"> Revol…</text></g><g class="node" transform="translate(-115.31060095629202,30.276315730146333)"><circle class="outline" cx="0" cy="0" r="25" fill="#F79767" stroke="#f36924" stroke-width="2px"/><text text-anchor="middle" pointer-events="none" font-family="sans-serif" dy="1.5625" font-size="25" fill="#FFFFFF"/><text text-anchor="middle" pointer-events="none" font-family="sans-serif" dy="1.5625" font-size="25" fill="#FFFFFF"/><text text-anchor="middle" pointer-events="none" x="0" y="0" font-size="10px" fill="#FFFFFF" font-family="sans-serif"> Laurence</text><text text-anchor="middle" pointer-events="none" x="0" y="10" font-size="10px" fill="#FFFFFF" font-family="sans-serif"> Fishbur…</text></g><g class="node" transform="translate(-58.43153070851807,50.276005821901535)"><circle class="outline" cx="0" cy="0" r="25" fill="#F79767" stroke="#f36924" stroke-width="2px"/><text text-anchor="middle" pointer-events="none" font-family="sans-serif" dy="1.5625" font-size="25" fill="#FFFFFF"/><text text-anchor="middle" pointer-events="none" x="0" y="5" font-size="10px" fill="#FFFFFF" font-family="sans-serif"> Carrie-A…</text></g><g class="node" transform="translate(-174.02457825276588,17.923396369476706)"><circle class="outline" cx="0" cy="0" r="25" fill="#F79767" stroke="#f36924" stroke-width="2px"/><text text-anchor="middle" pointer-events="none" font-family="sans-serif" dy="1.5625" font-size="25" fill="#FFFFFF"/><text text-anchor="middle" pointer-events="none" font-family="sans-serif" dy="1.5625" font-size="25" fill="#FFFFFF"/><text text-anchor="middle" pointer-events="none" x="0" y="0" font-size="10px" fill="#FFFFFF" font-family="sans-serif"> Keanu</text><text text-anchor="middle" pointer-events="none" x="0" y="10" font-size="10px" fill="#FFFFFF" font-family="sans-serif"> Reeves</text></g><g class="node" transform="translate(-176.3039638307284,115.87220582868459)"><circle class="outline" cx="0" cy="0" r="25" fill="#57C7E3" stroke="#23b3d7" stroke-width="2px"/><text text-anchor="middle" pointer-events="none" font-family="sans-serif" dy="1.5625" font-size="25" fill="#2A2C34"/><text text-anchor="middle" pointer-events="none" font-family="sans-serif" dy="1.5625" font-size="25" fill="#2A2C34"/><text text-anchor="middle" pointer-events="none" font-family="sans-serif" dy="1.5625" font-size="25" fill="#2A2C34"/><text text-anchor="middle" pointer-events="none" x="0" y="-5" font-size="10px" fill="#2A2C34" font-family="sans-serif"> The</text><text text-anchor="middle" pointer-events="none" x="0" y="5" font-size="10px" fill="#2A2C34" font-family="sans-serif"> Matrix</text><text text-anchor="middle" pointer-events="none" x="0" y="15" font-size="10px" fill="#2A2C34" font-family="sans-serif"> Reloa…</text></g><g class="node" transform="translate(-105.57144572183873,140.36691790808152)"><circle class="outline" cx="0" cy="0" r="25" fill="#57C7E3" stroke="#23b3d7" stroke-width="2px"/><text text-anchor="middle" pointer-events="none" font-family="sans-serif" dy="1.5625" font-size="25" fill="#2A2C34"/><text text-anchor="middle" pointer-events="none" font-family="sans-serif" dy="1.5625" font-size="25" fill="#2A2C34"/><text text-anchor="middle" pointer-events="none" x="0" y="0" font-size="10px" fill="#2A2C34" font-family="sans-serif"> The</text><text text-anchor="middle" pointer-events="none" x="0" y="10" font-size="10px" fill="#2A2C34" font-family="sans-serif"> Matrix</text></g><g class="node" transform="translate(-91.32124381852125,259.30221361325613)"><circle class="outline" cx="0" cy="0" r="25" fill="#F79767" stroke="#f36924" stroke-width="2px"/><text text-anchor="middle" pointer-events="none" font-family="sans-serif" dy="1.5625" font-size="25" fill="#FFFFFF"/><text text-anchor="middle" pointer-events="none" font-family="sans-serif" dy="1.5625" font-size="25" fill="#FFFFFF"/><text text-anchor="middle" pointer-events="none" x="0" y="0" font-size="10px" fill="#FFFFFF" font-family="sans-serif"> Emil</text><text text-anchor="middle" pointer-events="none" x="0" y="10" font-size="10px" fill="#FFFFFF" font-family="sans-serif"> Eifrem</text></g></g></svg>