<svg xmlns="http://www.w3.org/2000/svg" width="451.48577880859375" height="524.64794921875" viewBox="-85.93187713623047 -139.84976196289062 451.48577880859375 524.64794921875"><title>Neo4j Graph Visualization</title><desc>Created using Neo4j (http://www.neo4j.com/)</desc><g class="layer relationships"><g class="relationship" transform="translate(142.18548847920587 355.79820219978416) rotate(268.3499103743632)"><path class="outline" fill="#A5ABB6" stroke="none" d="M 25 0.5 L 25.038047961965965 0.5 L 25.038047961965965 -0.5 L 25 -0.5 Z M 71.90471284844057 0.5 L 71.94276081040654 0.5 L 71.94276081040654 3.5 L 78.94276081040654 0 L 71.94276081040654 -3.5 L 71.94276081040654 -0.5 L 71.90471284844057 -0.5 Z"/><text text-anchor="middle" pointer-events="none" font-size="8px" fill="#000000" x="48.47138040520327" y="3" transform="rotate(180 48.47138040520327 0)" font-family="sans-serif">DIRECTED</text></g><g class="relationship" transform="translate(336.5538824211533 129.88739429638045) rotate(210.12247080267582)"><path class="outline" fill="#A5ABB6" stroke="none" d="M 24.018736134675446,6.953439040707552 L 24.277555179777966,5.987513214418485 A 388.3954426051194 388.3954426051194 0 0 0 96.26616894474576,18.172092040216967 L 96.19269865987098,19.169389446831644 A 389.3954426051194 389.3954426051194 0 0 1 24.018736134675446,6.953439040707552 Z M 147.9530834565003,19.53292817962341 L 147.89362875270456,18.534697175197778 A 388.3954426051194 388.3954426051194 0 0 0 220.0462887295608,7.36249366702825 L 219.3106112303576,4.45409572019118 L 226.95516352204785,6.130645826693565 L 221.02719206183178,11.240357596144344 L 220.29151456262858,8.331959649307274 A 389.3954426051194 389.3954426051194 0 0 1 147.9530834565003,19.53292817962341"/><text text-anchor="middle" pointer-events="none" font-size="8px" fill="#000000" x="122.07035546085753" y="22.712175347518325" transform="rotate(180 122.07035546085753 19.712175347518325)" font-family="sans-serif">PRODUCED</text></g><g class="relationship" transform="translate(336.5538824211533 129.88739429638045) rotate(210.12247080267582)"><path class="outline" fill="#A5ABB6" stroke="none" d="M 24.018736134675446,-6.953439040707552 L 24.277555179777966,-5.987513214418485 A 388.3954426051194 388.3954426051194 0 0 1 104.20652274673292,-18.675339868991557 L 104.15349645509536,-19.67393298552861 A 389.3954426051194 389.3954426051194 0 0 0 24.018736134675446,-6.953439040707552 Z M 139.9859840592289,-19.925602233884547 L 139.94698953171047,-18.926362809710554 A 388.3954426051194 388.3954426051194 0 0 1 220.0462887295608,-7.36249366702825 L 219.3106112303576,-4.45409572019118 L 226.95516352204785,-6.130645826693565 L 221.02719206183178,-11.240357596144344 L 220.29151456262858,-8.331959649307274 A 389.3954426051194 389.3954426051194 0 0 0 139.9859840592289,-19.925602233884547"/><text text-anchor="middle" pointer-events="none" font-size="8px" fill="#000000" x="122.07035546085746" y="-16.712175347518325" transform="rotate(180 122.07035546085746 -19.712175347518325)" font-family="sans-serif">WROTE</text></g><g class="relationship" transform="translate(336.5538824211533 129.88739429638045) rotate(508.2751637797222)"><path class="outline" fill="#A5ABB6" stroke="none" d="M 25 0.5 L 89.08204822149848 0.5 L 89.08204822149848 -0.5 L 25 -0.5 Z M 135.9487131079731 0.5 L 200.03076132947157 0.5 L 200.03076132947157 3.5 L 207.03076132947157 0 L 200.03076132947157 -3.5 L 200.03076132947157 -0.5 L 135.9487131079731 -0.5 Z"/><text text-anchor="middle" pointer-events="none" font-size="8px" fill="#000000" x="112.51538066473579" y="3" transform="rotate(180 112.51538066473579 0)" font-family="sans-serif">DIRECTED</text></g><g class="relationship" transform="translate(336.5538824211533 129.88739429638045) rotate(524.6934354435411)"><path class="outline" fill="#A5ABB6" stroke="none" d="M 25 0.5 L 78.97598835056326 0.5 L 78.97598835056326 -0.5 L 25 -0.5 Z M 125.84265323703787 0.5 L 179.81864158760112 0.5 L 179.81864158760112 3.5 L 186.81864158760112 0 L 179.81864158760112 -3.5 L 179.81864158760112 -0.5 L 125.84265323703787 -0.5 Z"/><text text-anchor="middle" pointer-events="none" font-size="8px" fill="#000000" x="102.40932079380056" y="3" transform="rotate(180 102.40932079380056 0)" font-family="sans-serif">DIRECTED</text></g><g class="relationship" transform="translate(336.5538824211533 129.88739429638045) rotate(193.67826262340174)"><path class="outline" fill="#A5ABB6" stroke="none" d="M 25 0.5 L 82.13085543423323 0.5 L 82.13085543423323 -0.5 L 25 -0.5 Z M 128.99752032070785 0.5 L 186.12837575494106 0.5 L 186.12837575494106 3.5 L 193.12837575494106 0 L 186.12837575494106 -3.5 L 186.12837575494106 -0.5 L 128.99752032070785 -0.5 Z"/><text text-anchor="middle" pointer-events="none" font-size="8px" fill="#000000" x="105.56418787747053" y="3" transform="rotate(180 105.56418787747053 0)" font-family="sans-serif">DIRECTED</text></g><g class="relationship" transform="translate(336.5538824211533 129.88739429638045) rotate(538.4520056127342)"><path class="outline" fill="#A5ABB6" stroke="none" d="M 25 0.5 L 76.72494533286125 0.5 L 76.72494533286125 -0.5 L 25 -0.5 Z M 123.59161021933586 0.5 L 175.31655555219712 0.5 L 175.31655555219712 3.5 L 182.31655555219712 0 L 175.31655555219712 -3.5 L 175.31655555219712 -0.5 L 123.59161021933586 -0.5 Z"/><text text-anchor="middle" pointer-events="none" font-size="8px" fill="#000000" x="100.15827777609856" y="3" transform="rotate(180 100.15827777609856 0)" font-family="sans-serif">DIRECTED</text></g><g class="relationship" transform="translate(-56.93187598468347 148.99637163129398) rotate(320.51778774492306)"><path class="outline" fill="#A5ABB6" stroke="none" d="M 24.018736134675446,6.953439040707552 L 24.277555179777966,5.987513214418485 A 343.8875200027302 343.8875200027302 0 0 0 84.8353049388148,16.52659196821304 L 84.7525834437442,17.52316467216059 A 344.8875200027302 344.8875200027302 0 0 1 24.018736134675446,6.953439040707552 Z M 136.51079084068644,17.922070023729418 L 136.443439618146,16.924340695292926 A 343.8875200027302 343.8875200027302 0 0 0 197.15643731446144,7.319906949152899 L 196.42473664747385,4.410505956864297 L 204.06698974096614,6.097505558229939 L 198.13203820377825,11.199108272204368 L 197.40033753679066,8.289707279915767 A 344.8875200027302 344.8875200027302 0 0 1 136.51079084068644,17.922070023729418"/><text text-anchor="middle" pointer-events="none" font-size="8px" fill="#000000" x="110.62804668706399" y="21.194968576128417" font-family="sans-serif">PRODUCED</text></g><g class="relationship" transform="translate(-56.93187598468347 148.99637163129398) rotate(320.51778774492306)"><path class="outline" fill="#A5ABB6" stroke="none" d="M 24.018736134675446,-6.953439040707552 L 24.277555179777966,-5.987513214418485 A 343.8875200027302 343.8875200027302 0 0 1 92.77004518930431,-17.092898444700268 L 92.71039734415979,-18.091117926863205 A 344.8875200027302 344.8875200027302 0 0 0 24.018736134675446,-6.953439040707552 Z M 128.54516824328766,-18.36729986211219 L 128.5009133119593,-17.36827959152049 A 343.8875200027302 343.8875200027302 0 0 1 197.15643731446144,-7.319906949152899 L 196.42473664747385,-4.410505956864297 L 204.06698974096614,-6.097505558229939 L 198.13203820377825,-11.199108272204368 L 197.40033753679066,-8.289707279915767 A 344.8875200027302 344.8875200027302 0 0 0 128.54516824328766,-18.36729986211219"/><text text-anchor="middle" pointer-events="none" font-size="8px" fill="#000000" x="110.62804668706393" y="-15.194968576128417" font-family="sans-serif">WROTE</text></g><g class="relationship" transform="translate(-56.93187598468347 148.99637163129398) rotate(387.6850258424222)"><path class="outline" fill="#A5ABB6" stroke="none" d="M 25 0.5 L 83.80689276213977 0.5 L 83.80689276213977 -0.5 L 25 -0.5 Z M 130.67355764861438 0.5 L 189.48045041075414 0.5 L 189.48045041075414 3.5 L 196.48045041075414 0 L 189.48045041075414 -3.5 L 189.48045041075414 -0.5 L 130.67355764861438 -0.5 Z"/><text text-anchor="middle" pointer-events="none" font-size="8px" fill="#000000" x="107.24022520537707" y="3" font-family="sans-serif">DIRECTED</text></g><g class="relationship" transform="translate(-56.93187598468347 148.99637163129398) rotate(371.0101018001841)"><path class="outline" fill="#A5ABB6" stroke="none" d="M 25 0.5 L 69.43085311239224 0.5 L 69.43085311239224 -0.5 L 25 -0.5 Z M 116.29751799886685 0.5 L 160.7283711112591 0.5 L 160.7283711112591 3.5 L 167.7283711112591 0 L 160.7283711112591 -3.5 L 160.7283711112591 -0.5 L 116.29751799886685 -0.5 Z"/><text text-anchor="middle" pointer-events="none" font-size="8px" fill="#000000" x="92.86418555562955" y="3" font-family="sans-serif">DIRECTED</text></g><g class="relationship" transform="translate(-56.93187598468347 148.99637163129398) rotate(338.7250042966232)"><path class="outline" fill="#A5ABB6" stroke="none" d="M 25 0.5 L 70.47709192143516 0.5 L 70.47709192143516 -0.5 L 25 -0.5 Z M 117.34375680790977 0.5 L 162.82084872934493 0.5 L 162.82084872934493 3.5 L 169.82084872934493 0 L 162.82084872934493 -3.5 L 162.82084872934493 -0.5 L 117.34375680790977 -0.5 Z"/><text text-anchor="middle" pointer-events="none" font-size="8px" fill="#000000" x="93.91042436467247" y="3" font-family="sans-serif">DIRECTED</text></g><g class="relationship" transform="translate(-56.93187598468347 148.99637163129398) rotate(355.8515635755846)"><path class="outline" fill="#A5ABB6" stroke="none" d="M 25 0.5 L 66.43372253966663 0.5 L 66.43372253966663 -0.5 L 25 -0.5 Z M 113.30038742614124 0.5 L 154.73410996580787 0.5 L 154.73410996580787 3.5 L 161.73410996580787 0 L 154.73410996580787 -3.5 L 154.73410996580787 -0.5 L 113.30038742614124 -0.5 Z"/><text text-anchor="middle" pointer-events="none" font-size="8px" fill="#000000" x="89.86705498290394" y="3" font-family="sans-serif">DIRECTED</text></g><g class="relationship" transform="translate(109.83539132330874 -110.84976308522265) rotate(445.28966182708416)"><path class="outline" fill="#A5ABB6" stroke="none" d="M 25 0.5 L 30.59925166951298 0.5 L 30.59925166951298 -0.5 L 25 -0.5 Z M 77.46591655598759 0.5 L 83.06516822550057 0.5 L 83.06516822550057 3.5 L 90.06516822550057 0 L 83.06516822550057 -3.5 L 83.06516822550057 -0.5 L 77.46591655598759 -0.5 Z"/><text text-anchor="middle" pointer-events="none" font-size="8px" fill="#000000" x="54.032584112750285" y="3" font-family="sans-serif">DIRECTED</text></g></g><g class="layer nodes"><g class="node" transform="translate(139.19240304906714,251.89854404588417)"><circle class="outline" cx="0" cy="0" r="25" fill="#57C7E3" stroke="#23b3d7" stroke-width="2px"/><text text-anchor="middle" pointer-events="none" font-family="sans-serif" dy="1.5625" font-size="25" fill="#2A2C34"/><text text-anchor="middle" pointer-events="none" font-family="sans-serif" dy="1.5625" font-size="25" fill="#2A2C34"/><text text-anchor="middle" pointer-events="none" x="0" y="0" font-size="10px" fill="#2A2C34" font-family="sans-serif"> Cloud</text><text text-anchor="middle" pointer-events="none" x="0" y="10" font-size="10px" fill="#2A2C34" font-family="sans-serif"> Atlas</text></g><g class="node" transform="translate(142.18548847920587,355.79820219978416)"><circle class="outline" cx="0" cy="0" r="25" fill="#F79767" stroke="#f36924" stroke-width="2px"/><text text-anchor="middle" pointer-events="none" font-family="sans-serif" dy="1.5625" font-size="25" fill="#FFFFFF"/><text text-anchor="middle" pointer-events="none" font-family="sans-serif" dy="1.5625" font-size="25" fill="#FFFFFF"/><text text-anchor="middle" pointer-events="none" x="0" y="0" font-size="10px" fill="#FFFFFF" font-family="sans-serif"> Tom</text><text text-anchor="middle" pointer-events="none" x="0" y="10" font-size="10px" fill="#FFFFFF" font-family="sans-serif"> Tykwer</text></g><g class="node" transform="translate(336.5538824211533,129.88739429638045)"><circle class="outline" cx="0" cy="0" r="25" fill="#F79767" stroke="#f36924" stroke-width="2px"/><text text-anchor="middle" pointer-events="none" font-family="sans-serif" dy="1.5625" font-size="25" fill="#FFFFFF"/><text text-anchor="middle" pointer-events="none" font-family="sans-serif" dy="1.5625" font-size="25" fill="#FFFFFF"/><text text-anchor="middle" pointer-events="none" x="0" y="0" font-size="10px" fill="#FFFFFF" font-family="sans-serif"> Lana</text><text text-anchor="middle" pointer-events="none" x="0" y="10" font-size="10px" fill="#FFFFFF" font-family="sans-serif"> Wacho…</text></g><g class="node" transform="translate(-56.93187598468347,148.99637163129398)"><circle class="outline" cx="0" cy="0" r="25" fill="#F79767" stroke="#f36924" stroke-width="2px"/><text text-anchor="middle" pointer-events="none" font-family="sans-serif" dy="1.5625" font-size="25" fill="#FFFFFF"/><text text-anchor="middle" pointer-events="none" font-family="sans-serif" dy="1.5625" font-size="25" fill="#FFFFFF"/><text text-anchor="middle" pointer-events="none" x="0" y="0" font-size="10px" fill="#FFFFFF" font-family="sans-serif"> Lilly</text><text text-anchor="middle" pointer-events="none" x="0" y="10" font-size="10px" fill="#FFFFFF" font-family="sans-serif"> Wacho…</text></g><g class="node" transform="translate(119.28435143705515,3.826782430988189)"><circle class="outline" cx="0" cy="0" r="25" fill="#57C7E3" stroke="#23b3d7" stroke-width="2px"/><text text-anchor="middle" pointer-events="none" font-family="sans-serif" dy="1.5625" font-size="25" fill="#2A2C34"/><text text-anchor="middle" pointer-events="none" font-family="sans-serif" dy="1.5625" font-size="25" fill="#2A2C34"/><text text-anchor="middle" pointer-events="none" x="0" y="0" font-size="10px" fill="#2A2C34" font-family="sans-serif"> V for</text><text text-anchor="middle" pointer-events="none" x="0" y="10" font-size="10px" fill="#2A2C34" font-family="sans-serif"> Vendetta</text></g><g class="node" transform="translate(109.83539132330874,-110.84976308522265)"><circle class="outline" cx="0" cy="0" r="25" fill="#F79767" stroke="#f36924" stroke-width="2px"/><text text-anchor="middle" pointer-events="none" font-family="sans-serif" dy="1.5625" font-size="25" fill="#FFFFFF"/><text text-anchor="middle" pointer-events="none" font-family="sans-serif" dy="1.5625" font-size="25" fill="#FFFFFF"/><text text-anchor="middle" pointer-events="none" x="0" y="0" font-size="10px" fill="#FFFFFF" font-family="sans-serif"> James</text><text text-anchor="middle" pointer-events="none" x="0" y="10" font-size="10px" fill="#FFFFFF" font-family="sans-serif"> Marshall</text></g><g class="node" transform="translate(132.2490455132555,185.80403350202226)"><circle class="outline" cx="0" cy="0" r="25" fill="#57C7E3" stroke="#23b3d7" stroke-width="2px"/><text text-anchor="middle" pointer-events="none" font-family="sans-serif" dy="1.5625" font-size="25" fill="#2A2C34"/><text text-anchor="middle" pointer-events="none" font-family="sans-serif" dy="1.5625" font-size="25" fill="#2A2C34"/><text text-anchor="middle" pointer-events="none" font-family="sans-serif" dy="1.5625" font-size="25" fill="#2A2C34"/><text text-anchor="middle" pointer-events="none" x="0" y="-5" font-size="10px" fill="#2A2C34" font-family="sans-serif"> The</text><text text-anchor="middle" pointer-events="none" x="0" y="5" font-size="10px" fill="#2A2C34" font-family="sans-serif"> Matrix</text><text text-anchor="middle" pointer-events="none" x="0" y="15" font-size="10px" fill="#2A2C34" font-family="sans-serif"> Revol…</text></g><g class="node" transform="translate(124.61186651203774,78.30667888966106)"><circle class="outline" cx="0" cy="0" r="25" fill="#57C7E3" stroke="#23b3d7" stroke-width="2px"/><text text-anchor="middle" pointer-events="none" font-family="sans-serif" dy="1.5625" font-size="25" fill="#2A2C34"/><text text-anchor="middle" pointer-events="none" font-family="sans-serif" dy="1.5625" font-size="25" fill="#2A2C34"/><text text-anchor="middle" pointer-events="none" font-family="sans-serif" dy="1.5625" font-size="25" fill="#2A2C34"/><text text-anchor="middle" pointer-events="none" x="0" y="-5" font-size="10px" fill="#2A2C34" font-family="sans-serif"> The</text><text text-anchor="middle" pointer-events="none" x="0" y="5" font-size="10px" fill="#2A2C34" font-family="sans-serif"> Matrix</text><text text-anchor="middle" pointer-events="none" x="0" y="15" font-size="10px" fill="#2A2C34" font-family="sans-serif"> Reloa…</text></g><g class="node" transform="translate(129.31298769345,135.4879084235156)"><circle class="outline" cx="0" cy="0" r="25" fill="#57C7E3" stroke="#23b3d7" stroke-width="2px"/><text text-anchor="middle" pointer-events="none" font-family="sans-serif" dy="1.5625" font-size="25" fill="#2A2C34"/><text text-anchor="middle" pointer-events="none" font-family="sans-serif" dy="1.5625" font-size="25" fill="#2A2C34"/><text text-anchor="middle" pointer-events="none" x="0" y="0" font-size="10px" fill="#2A2C34" font-family="sans-serif"> The</text><text text-anchor="middle" pointer-events="none" x="0" y="10" font-size="10px" fill="#2A2C34" font-family="sans-serif"> Matrix</text></g></g></svg>