<svg xmlns="http://www.w3.org/2000/svg" width="363.1920166015625" height="364.601806640625" viewBox="-89.83879089355469 -76.42678833007812 363.1920166015625 364.601806640625"><title>Neo4j Graph Visualization</title><desc>Created using Neo4j (http://www.neo4j.com/)</desc><g class="layer relationships"><g class="relationship" transform="translate(135.12839438273784 259.17501862367607) rotate(330.2239365477699)"><path class="outline" fill="#A5ABB6" stroke="none" d="M 21.40063509461097,12.933012701892217 L 21.90063509461097,12.06698729810778 A 57.572742189843034 57.572742189843034 0 0 0 24.260861746472592,13.357109985968826 L 23.801857303781276,14.24554395739812 A 58.572742189843034 58.572742189843034 0 0 1 21.40063509461097,12.933012701892217 Z M 74.24732046253916,15.832875859811239 L 73.84508021575945,14.917341707597025 A 57.572742189843034 57.572742189843034 0 0 0 76.2817480950247,13.778159525481861 L 74.9480574838795,11.090917565080241 L 82.77426110448602,11.114088426210003 L 78.06000224321829,17.361148806017358 L 76.72631163207309,14.673906845615736 A 58.572742189843034 58.572742189843034 0 0 1 74.24732046253916,15.832875859811239"/><text text-anchor="middle" pointer-events="none" font-size="8px" fill="#000000" x="48.86057603934169" y="23.251543799099167" font-family="sans-serif">PRODUCED</text></g><g class="relationship" transform="translate(135.12839438273784 259.17501862367607) rotate(330.2239365477699)"><path class="outline" fill="#A5ABB6" stroke="none" d="M 25 0.5 L 25.650639610679136 0.5 L 25.650639610679136 -0.5 L 25 -0.5 Z M 72.51730449715375 0.5 L 73.16794410783288 0.5 L 73.16794410783288 3.5 L 80.16794410783288 0 L 73.16794410783288 -3.5 L 73.16794410783288 -0.5 L 72.51730449715375 -0.5 Z"/><text text-anchor="middle" pointer-events="none" font-size="8px" fill="#000000" x="49.08397205391644" y="3" font-family="sans-serif">DIRECTED</text></g><g class="relationship" transform="translate(135.12839438273784 259.17501862367607) rotate(330.2239365477699)"><path class="outline" fill="#A5ABB6" stroke="none" d="M 21.40063509461097,-12.933012701892217 L 21.90063509461097,-12.06698729810778 A 57.572742189843034 57.572742189843034 0 0 1 31.50406546231354,-16.49045022264923 L 31.17087062049127,-17.433308216932055 A 58.572742189843034 58.572742189843034 0 0 0 21.40063509461097,-12.933012701892217 Z M 66.69246940816114,-18.551041377651366 L 66.41921153051642,-17.589100562265564 A 57.572742189843034 57.572742189843034 0 0 1 76.2817480950247,-13.778159525481861 L 74.9480574838795,-11.090917565080241 L 82.77426110448602,-11.114088426210003 L 78.06000224321829,-17.361148806017358 L 76.72631163207309,-14.673906845615736 A 58.572742189843034 58.572742189843034 0 0 0 66.69246940816114,-18.551041377651366"/><text text-anchor="middle" pointer-events="none" font-size="8px" fill="#000000" x="48.86057603934167" y="-17.251543799099167" font-family="sans-serif">WROTE</text></g><g class="relationship" transform="translate(244.35320905497966 17.14042333167076) rotate(203.5803409076915)"><path class="outline" fill="#A5ABB6" stroke="none" d="M 24.018736134675446,6.953439040707552 L 24.277555179777966,5.987513214418485 A 99.64388934424245 99.64388934424245 0 0 0 25.38059579172923,6.276318155798478 L 25.132846573579577,7.245142352908687 A 100.64388934424245 100.64388934424245 0 0 1 24.018736134675446,6.953439040707552 Z M 71.79860953298555,8.008649496602217 L 71.58268665674913,7.0322390749465455 A 99.64388934424245 99.64388934424245 0 0 0 72.69458473710836,6.779673153507017 L 72.01333995383476,3.8580459450386764 L 79.62525568741341,5.67703986061334 L 73.60291111480649,10.67517609813147 L 72.92166633153289,7.75354888966313 A 100.64388934424245 100.64388934424245 0 0 1 71.79860953298555,8.008649496602217"/><text text-anchor="middle" pointer-events="none" font-size="8px" fill="#000000" x="48.429038105912966" y="12.869395423398245" transform="rotate(180 48.429038105912966 9.869395423398245)" font-family="sans-serif">DIRECTED</text></g><g class="relationship" transform="translate(244.35320905497966 17.14042333167076) rotate(203.5803409076915)"><path class="outline" fill="#A5ABB6" stroke="none" d="M 24.018736134675446,-6.953439040707552 L 24.277555179777966,-5.987513214418485 A 99.64388934424245 99.64388934424245 0 0 1 30.749617651697672,-7.4923323854282415 L 30.555750532041987,-8.473360183156942 A 100.64388934424245 100.64388934424245 0 0 0 24.018736134675446,-6.953439040707552 Z M 66.33842865320871,-9.058807171128905 L 66.17675825981405,-8.071962358658567 A 99.64388934424245 99.64388934424245 0 0 1 72.69458473710836,-6.779673153507017 L 72.01333995383476,-3.8580459450386764 L 79.62525568741341,-5.67703986061334 L 73.60291111480649,-10.67517609813147 L 72.92166633153289,-7.75354888966313 A 100.64388934424245 100.64388934424245 0 0 0 66.33842865320871,-9.058807171128905"/><text text-anchor="middle" pointer-events="none" font-size="8px" fill="#000000" x="48.42903810591292" y="-6.869395423398231" transform="rotate(180 48.42903810591292 -9.869395423398231)" font-family="sans-serif">WROTE</text></g><g class="relationship" transform="translate(47.76928623215155 -47.426785807767274) rotate(372.7792616326257)"><path class="outline" fill="#A5ABB6" stroke="none" d="M 24.018736134675446,6.953439040707552 L 24.277555179777966,5.987513214418485 A 99.43177972680303 99.43177972680303 0 0 0 25.328897898449625,6.263070087813034 L 25.08065236134988,7.231767230014896 A 100.43177972680303 100.43177972680303 0 0 1 24.018736134675446,6.953439040707552 Z M 71.74507907624336,7.995983257347859 L 71.52868655911533,7.019676810308312 A 99.43177972680303 99.43177972680303 0 0 0 72.5884885703794,6.778693824395409 L 71.90733526594607,3.8570452870351124 L 79.51919404162564,5.6762775369443705 L 73.49669297629049,10.674225207542474 L 72.81553967185717,7.752576670182176 A 100.43177972680303 100.43177972680303 0 0 1 71.74507907624336,7.995983257347859"/><text text-anchor="middle" pointer-events="none" font-size="8px" fill="#000000" x="48.37604573460497" y="12.862170741946485" font-family="sans-serif">DIRECTED</text></g><g class="relationship" transform="translate(47.76928623215155 -47.426785807767274) rotate(372.7792616326257)"><path class="outline" fill="#A5ABB6" stroke="none" d="M 24.018736134675446,-6.953439040707552 L 24.277555179777966,-5.987513214418485 A 99.43177972680303 99.43177972680303 0 0 1 30.697307439494644,-7.4815063968559485 L 30.50305278494568,-8.462457531819382 A 100.43177972680303 100.43177972680303 0 0 0 24.018736134675446,-6.953439040707552 Z M 66.28528762185329,-9.048457602563417 L 66.12325829005606,-8.061671660407086 A 99.43177972680303 99.43177972680303 0 0 1 72.5884885703794,-6.778693824395409 L 71.90733526594607,-3.8570452870351124 L 79.51919404162564,-5.6762775369443705 L 73.49669297629049,-10.674225207542474 L 72.81553967185717,-7.752576670182176 A 100.43177972680303 100.43177972680303 0 0 0 66.28528762185329,-9.048457602563417"/><text text-anchor="middle" pointer-events="none" font-size="8px" fill="#000000" x="48.37604573460496" y="-6.8621707419464855" font-family="sans-serif">WROTE</text></g><g class="relationship" transform="translate(-60.838792449485815 94.68896756184432) rotate(432.32805765438735)"><path class="outline" fill="#A5ABB6" stroke="none" d="M 21.40063509461097,12.933012701892217 L 21.90063509461097,12.06698729810778 A 57.17383435118465 57.17383435118465 0 0 0 31.316762305944522,16.416972509241255 L 30.98145525190816,17.359081409270047 A 58.17383435118465 58.17383435118465 0 0 1 21.40063509461097,12.933012701892217 Z M 66.49717152380256,18.480510752205205 L 66.22196842893774,17.5191246400854 A 57.17383435118465 57.17383435118465 0 0 0 75.89377125731109,13.771851892317342 L 74.56066743759598,11.084318784454116 L 82.3868658122778,11.109198497625949 L 77.67124301693124,17.35522936946831 L 76.33813919721614,14.667696261605085 A 58.17383435118465 58.17383435118465 0 0 1 66.49717152380256,18.480510752205205"/><text text-anchor="middle" pointer-events="none" font-size="8px" fill="#000000" x="48.66737464382244" y="23.198099246358822" font-family="sans-serif">WROTE</text></g><g class="relationship" transform="translate(-60.838792449485815 94.68896756184432) rotate(432.32805765438735)"><path class="outline" fill="#A5ABB6" stroke="none" d="M 25 0.5 L 25.45815507899838 0.5 L 25.45815507899838 -0.5 L 25 -0.5 Z M 72.32481996547298 0.5 L 72.78297504447137 0.5 L 72.78297504447137 3.5 L 79.78297504447137 0 L 72.78297504447137 -3.5 L 72.78297504447137 -0.5 L 72.32481996547298 -0.5 Z"/><text text-anchor="middle" pointer-events="none" font-size="8px" fill="#000000" x="48.891487522235686" y="3" font-family="sans-serif">DIRECTED</text></g><g class="relationship" transform="translate(-60.838792449485815 94.68896756184432) rotate(432.32805765438735)"><path class="outline" fill="#A5ABB6" stroke="none" d="M 21.40063509461097,-12.933012701892217 L 21.90063509461097,-12.06698729810778 A 57.17383435118465 57.17383435118465 0 0 1 24.08260733357809,-13.264198379160412 L 23.620771159106468,-14.151163625350712 A 58.17383435118465 58.17383435118465 0 0 0 21.40063509461097,-12.933012701892217 Z M 74.04557472898139,-15.743356048054252 L 73.64061564864016,-14.829021238890135 A 57.17383435118465 57.17383435118465 0 0 1 75.89377125731109,-13.771851892317342 L 74.56066743759598,-11.084318784454116 L 82.3868658122778,-11.109198497625949 L 77.67124301693124,-17.35522936946831 L 76.33813919721614,-14.667696261605085 A 58.17383435118465 58.17383435118465 0 0 0 74.04557472898139,-15.743356048054252"/><text text-anchor="middle" pointer-events="none" font-size="8px" fill="#000000" x="48.667374643822434" y="-17.198099246358822" font-family="sans-serif">PRODUCED</text></g></g><g class="layer nodes"><g class="node" transform="translate(135.12839438273784,259.17501862367607)"><circle class="outline" cx="0" cy="0" r="25" fill="#F79767" stroke="#f36924" stroke-width="2px"/><text text-anchor="middle" pointer-events="none" font-family="sans-serif" dy="1.5625" font-size="25" fill="#FFFFFF"/><text text-anchor="middle" pointer-events="none" font-family="sans-serif" dy="1.5625" font-size="25" fill="#FFFFFF"/><text text-anchor="middle" pointer-events="none" x="0" y="0" font-size="10px" fill="#FFFFFF" font-family="sans-serif"> Cameron</text><text text-anchor="middle" pointer-events="none" x="0" y="10" font-size="10px" fill="#FFFFFF" font-family="sans-serif"> Crowe</text></g><g class="node" transform="translate(226.41133025265822,206.94741972389642)"><circle class="outline" cx="0" cy="0" r="25" fill="#57C7E3" stroke="#23b3d7" stroke-width="2px"/><text text-anchor="middle" pointer-events="none" font-family="sans-serif" dy="1.5625" font-size="25" fill="#2A2C34"/><text text-anchor="middle" pointer-events="none" font-family="sans-serif" dy="1.5625" font-size="25" fill="#2A2C34"/><text text-anchor="middle" pointer-events="none" x="0" y="0" font-size="10px" fill="#2A2C34" font-family="sans-serif"> Jerry</text><text text-anchor="middle" pointer-events="none" x="0" y="10" font-size="10px" fill="#2A2C34" font-family="sans-serif"> Maguire</text></g><g class="node" transform="translate(244.35320905497966,17.14042333167076)"><circle class="outline" cx="0" cy="0" r="25" fill="#F79767" stroke="#f36924" stroke-width="2px"/><text text-anchor="middle" pointer-events="none" font-family="sans-serif" dy="1.5625" font-size="25" fill="#FFFFFF"/><text text-anchor="middle" pointer-events="none" font-family="sans-serif" dy="1.5625" font-size="25" fill="#FFFFFF"/><text text-anchor="middle" pointer-events="none" x="0" y="0" font-size="10px" fill="#FFFFFF" font-family="sans-serif"> Lana</text><text text-anchor="middle" pointer-events="none" x="0" y="10" font-size="10px" fill="#FFFFFF" font-family="sans-serif"> Wacho…</text></g><g class="node" transform="translate(149.06273007375555,-24.452032741465718)"><circle class="outline" cx="0" cy="0" r="25" fill="#57C7E3" stroke="#23b3d7" stroke-width="2px"/><text text-anchor="middle" pointer-events="none" font-family="sans-serif" dy="1.5625" font-size="25" fill="#2A2C34"/><text text-anchor="middle" pointer-events="none" font-family="sans-serif" dy="1.5625" font-size="25" fill="#2A2C34"/><text text-anchor="middle" pointer-events="none" x="0" y="0" font-size="10px" fill="#2A2C34" font-family="sans-serif"> Speed</text><text text-anchor="middle" pointer-events="none" x="0" y="10" font-size="10px" fill="#2A2C34" font-family="sans-serif"> Racer</text></g><g class="node" transform="translate(47.76928623215155,-47.426785807767274)"><circle class="outline" cx="0" cy="0" r="25" fill="#F79767" stroke="#f36924" stroke-width="2px"/><text text-anchor="middle" pointer-events="none" font-family="sans-serif" dy="1.5625" font-size="25" fill="#FFFFFF"/><text text-anchor="middle" pointer-events="none" font-family="sans-serif" dy="1.5625" font-size="25" fill="#FFFFFF"/><text text-anchor="middle" pointer-events="none" x="0" y="0" font-size="10px" fill="#FFFFFF" font-family="sans-serif"> Lilly</text><text text-anchor="middle" pointer-events="none" x="0" y="10" font-size="10px" fill="#FFFFFF" font-family="sans-serif"> Wacho…</text></g><g class="node" transform="translate(-60.838792449485815,94.68896756184432)"><circle class="outline" cx="0" cy="0" r="25" fill="#F79767" stroke="#f36924" stroke-width="2px"/><text text-anchor="middle" pointer-events="none" font-family="sans-serif" dy="1.5625" font-size="25" fill="#FFFFFF"/><text text-anchor="middle" pointer-events="none" font-family="sans-serif" dy="1.5625" font-size="25" fill="#FFFFFF"/><text text-anchor="middle" pointer-events="none" x="0" y="0" font-size="10px" fill="#FFFFFF" font-family="sans-serif"> Nancy</text><text text-anchor="middle" pointer-events="none" x="0" y="10" font-size="10px" fill="#FFFFFF" font-family="sans-serif"> Meyers</text></g><g class="node" transform="translate(-29.030190655141894,194.52726037106243)"><circle class="outline" cx="0" cy="0" r="25" fill="#57C7E3" stroke="#23b3d7" stroke-width="2px"/><text text-anchor="middle" pointer-events="none" font-family="sans-serif" dy="1.5625" font-size="25" fill="#2A2C34"/><text text-anchor="middle" pointer-events="none" x="0" y="5" font-size="10px" fill="#2A2C34" font-family="sans-serif"> Somethi…</text></g></g></svg>