<svg xmlns="http://www.w3.org/2000/svg" width="628.87353515625" height="370.887939453125" viewBox="-243.71682739257812 -124.03366088867188 628.87353515625 370.887939453125"><title>Neo4j Graph Visualization</title><desc>Created using Neo4j (http://www.neo4j.com/)</desc><g class="layer relationships"><g class="relationship" transform="translate(73.50187159911779 115.53492304611349) rotate(487.95296716859224)"><path class="outline" fill="#A5ABB6" stroke="none" d="M 25 0.5 L 38.61430531630573 0.5 L 38.61430531630573 -0.5 L 25 -0.5 Z M 84.14763814101276 0.5 L 97.7619434573185 0.5 L 97.7619434573185 3.5 L 104.7619434573185 0 L 97.7619434573185 -3.5 L 97.7619434573185 -0.5 L 84.14763814101276 -0.5 Z"/><text text-anchor="middle" pointer-events="none" font-size="8px" fill="#000000" x="61.38097172865925" y="3" transform="rotate(180 61.38097172865925 0)" font-family="sans-serif">ACTED_IN</text></g><g class="relationship" transform="translate(73.50187159911779 115.53492304611349) rotate(400.875239388854)"><path class="outline" fill="#A5ABB6" stroke="none" d="M 25 0.5 L 37.75515326434153 0.5 L 37.75515326434153 -0.5 L 25 -0.5 Z M 83.28848608904856 0.5 L 96.04363935339009 0.5 L 96.04363935339009 3.5 L 103.04363935339009 0 L 96.04363935339009 -3.5 L 96.04363935339009 -0.5 L 83.28848608904856 -0.5 Z"/><text text-anchor="middle" pointer-events="none" font-size="8px" fill="#000000" x="60.521819676695046" y="3" font-family="sans-serif">ACTED_IN</text></g><g class="relationship" transform="translate(73.50187159911779 115.53492304611349) rotate(314.271978132202)"><path class="outline" fill="#A5ABB6" stroke="none" d="M 25 0.5 L 27.482303001844862 0.5 L 27.482303001844862 -0.5 L 25 -0.5 Z M 46.81563601728676 0.5 L 49.29793901913162 0.5 L 49.29793901913162 3.5 L 56.29793901913162 0 L 49.29793901913162 -3.5 L 49.29793901913162 -0.5 L 46.81563601728676 -0.5 Z"/><text text-anchor="middle" pointer-events="none" font-size="8px" fill="#000000" x="37.14896950956581" y="3" font-family="sans-serif">A…</text></g><g class="relationship" transform="translate(73.50187159911779 115.53492304611349) rotate(360.50007435017005)"><path class="outline" fill="#A5ABB6" stroke="none" d="M 25 0.5 L 115.06614520710588 0.5 L 115.06614520710588 -0.5 L 25 -0.5 Z M 160.5994780318129 0.5 L 250.66562323891878 0.5 L 250.66562323891878 3.5 L 257.6656232389188 0 L 250.66562323891878 -3.5 L 250.66562323891878 -0.5 L 160.5994780318129 -0.5 Z"/><text text-anchor="middle" pointer-events="none" font-size="8px" fill="#000000" x="137.8328116194594" y="3" font-family="sans-serif">ACTED_IN</text></g><g class="relationship" transform="translate(73.50187159911779 115.53492304611349) rotate(195.5991639514774)"><path class="outline" fill="#A5ABB6" stroke="none" d="M 25 0.5 L 123.35372780454693 0.5 L 123.35372780454693 -0.5 L 25 -0.5 Z M 168.88706062925397 0.5 L 267.2407884338009 0.5 L 267.2407884338009 3.5 L 274.2407884338009 0 L 267.2407884338009 -3.5 L 267.2407884338009 -0.5 L 168.88706062925397 -0.5 Z"/><text text-anchor="middle" pointer-events="none" font-size="8px" fill="#000000" x="146.12039421690045" y="3" transform="rotate(180 146.12039421690045 0)" font-family="sans-serif">ACTED_IN</text></g><g class="relationship" transform="translate(146.05900731055652 -95.0336611960665) rotate(455.92283248996426)"><path class="outline" fill="#A5ABB6" stroke="none" d="M 25 0.5 L 50.32041138527835 0.5 L 50.32041138527835 -0.5 L 25 -0.5 Z M 95.85374420998538 0.5 L 121.17415559526373 0.5 L 121.17415559526373 3.5 L 128.17415559526373 0 L 121.17415559526373 -3.5 L 121.17415559526373 -0.5 L 95.85374420998538 -0.5 Z"/><text text-anchor="middle" pointer-events="none" font-size="8px" fill="#000000" x="73.08707779763186" y="3" transform="rotate(180 73.08707779763186 0)" font-family="sans-serif">ACTED_IN</text></g><g class="relationship" transform="translate(146.05900731055652 -95.0336611960665) rotate(405.3978126113206)"><path class="outline" fill="#A5ABB6" stroke="none" d="M 25 0.5 L 123.33717504776067 0.5 L 123.33717504776067 -0.5 L 25 -0.5 Z M 168.8705078724677 0.5 L 267.20768292022836 0.5 L 267.20768292022836 3.5 L 274.20768292022836 0 L 267.20768292022836 -3.5 L 267.20768292022836 -0.5 L 168.8705078724677 -0.5 Z"/><text text-anchor="middle" pointer-events="none" font-size="8px" fill="#000000" x="146.10384146011418" y="3" font-family="sans-serif">ACTED_IN</text></g><g class="relationship" transform="translate(146.05900731055652 -95.0336611960665) rotate(520.1699591305729)"><path class="outline" fill="#A5ABB6" stroke="none" d="M 25 0.5 L 165.49195573897688 0.5 L 165.49195573897688 -0.5 L 25 -0.5 Z M 211.02528856368392 0.5 L 351.5172443026608 0.5 L 351.5172443026608 3.5 L 358.5172443026608 0 L 351.5172443026608 -3.5 L 351.5172443026608 -0.5 L 211.02528856368392 -0.5 Z"/><text text-anchor="middle" pointer-events="none" font-size="8px" fill="#000000" x="188.2586221513304" y="3" transform="rotate(180 188.2586221513304 0)" font-family="sans-serif">ACTED_IN</text></g><g class="relationship" transform="translate(53.6332246788202 216.0409796104944) rotate(295.7685504497783)"><path class="outline" fill="#A5ABB6" stroke="none" d="M 25 0.5 L 61.85550092835743 0.5 L 61.85550092835743 -0.5 L 25 -0.5 Z M 107.38883375306446 0.5 L 144.2443346814219 0.5 L 144.2443346814219 3.5 L 151.2443346814219 0 L 144.2443346814219 -3.5 L 144.2443346814219 -0.5 L 107.38883375306446 -0.5 Z"/><text text-anchor="middle" pointer-events="none" font-size="8px" fill="#000000" x="84.62216734071094" y="3" font-family="sans-serif">ACTED_IN</text></g><g class="relationship" transform="translate(53.6332246788202 216.0409796104944) rotate(342.04401073689803)"><path class="outline" fill="#A5ABB6" stroke="none" d="M 25 0.5 L 132.73971363779293 0.5 L 132.73971363779293 -0.5 L 25 -0.5 Z M 178.27304646249996 0.5 L 286.0127601002929 0.5 L 286.0127601002929 3.5 L 293.0127601002929 0 L 286.0127601002929 -3.5 L 286.0127601002929 -0.5 L 178.27304646249996 -0.5 Z"/><text text-anchor="middle" pointer-events="none" font-size="8px" fill="#000000" x="155.50638005014645" y="3" font-family="sans-serif">ACTED_IN</text></g><g class="relationship" transform="translate(53.6332246788202 216.0409796104944) rotate(213.99548490239192)"><path class="outline" fill="#A5ABB6" stroke="none" d="M 25 0.5 L 135.5690572524824 0.5 L 135.5690572524824 -0.5 L 25 -0.5 Z M 181.10239007718943 0.5 L 291.6714473296718 0.5 L 291.6714473296718 3.5 L 298.6714473296718 0 L 291.6714473296718 -3.5 L 291.6714473296718 -0.5 L 181.10239007718943 -0.5 Z"/><text text-anchor="middle" pointer-events="none" font-size="8px" fill="#000000" x="158.3357236648359" y="3" transform="rotate(180 158.3357236648359 0)" font-family="sans-serif">ACTED_IN</text></g><g class="relationship" transform="translate(8.2384594745226 24.71104872156799) rotate(335.92899141969315)"><path class="outline" fill="#A5ABB6" stroke="none" d="M 25 0.5 L 32.28308671121242 0.5 L 32.28308671121242 -0.5 L 25 -0.5 Z M 77.81641953591945 0.5 L 85.09950624713187 0.5 L 85.09950624713187 3.5 L 92.09950624713187 0 L 85.09950624713187 -3.5 L 85.09950624713187 -0.5 L 77.81641953591945 -0.5 Z"/><text text-anchor="middle" pointer-events="none" font-size="8px" fill="#000000" x="55.049753123565935" y="3" font-family="sans-serif">ACTED_IN</text></g><g class="relationship" transform="translate(8.2384594745226 24.71104872156799) rotate(267.6786203580176)"><path class="outline" fill="#A5ABB6" stroke="none" d="M 25 0.5 L 31.88605604105839 0.5 L 31.88605604105839 -0.5 L 25 -0.5 Z M 77.41938886576543 0.5 L 84.30544490682381 0.5 L 84.30544490682381 3.5 L 91.30544490682381 0 L 84.30544490682381 -3.5 L 84.30544490682381 -0.5 L 77.41938886576543 -0.5 Z"/><text text-anchor="middle" pointer-events="none" font-size="8px" fill="#000000" x="54.652722453411904" y="3" transform="rotate(180 54.652722453411904 0)" font-family="sans-serif">ACTED_IN</text></g><g class="relationship" transform="translate(8.2384594745226 24.71104872156799) rotate(212.1811774033922)"><path class="outline" fill="#A5ABB6" stroke="none" d="M 25 0.5 L 29.456050548041524 0.5 L 29.456050548041524 -0.5 L 25 -0.5 Z M 74.98938337274856 0.5 L 79.44543392079008 0.5 L 79.44543392079008 3.5 L 86.44543392079008 0 L 79.44543392079008 -3.5 L 79.44543392079008 -0.5 L 74.98938337274856 -0.5 Z"/><text text-anchor="middle" pointer-events="none" font-size="8px" fill="#000000" x="52.22271696039504" y="3" transform="rotate(180 52.22271696039504 0)" font-family="sans-serif">ACTED_IN</text></g><g class="relationship" transform="translate(8.2384594745226 24.71104872156799) rotate(495.0514688736387)"><path class="outline" fill="#A5ABB6" stroke="none" d="M 25 0.5 L 31.506554224836805 0.5 L 31.506554224836805 -0.5 L 25 -0.5 Z M 77.03988704954384 0.5 L 83.54644127438064 0.5 L 83.54644127438064 3.5 L 90.54644127438064 0 L 83.54644127438064 -3.5 L 83.54644127438064 -0.5 L 77.03988704954384 -0.5 Z"/><text text-anchor="middle" pointer-events="none" font-size="8px" fill="#000000" x="54.27322063719032" y="3" transform="rotate(180 54.27322063719032 0)" font-family="sans-serif">ACTED_IN</text></g><g class="relationship" transform="translate(8.2384594745226 24.71104872156799) rotate(374.9640829221519)"><path class="outline" fill="#A5ABB6" stroke="none" d="M 25 0.5 L 36.88218078980668 0.5 L 36.88218078980668 -0.5 L 25 -0.5 Z M 82.41551361451371 0.5 L 94.2976944043204 0.5 L 94.2976944043204 3.5 L 101.2976944043204 0 L 94.2976944043204 -3.5 L 94.2976944043204 -0.5 L 82.41551361451371 -0.5 Z"/><text text-anchor="middle" pointer-events="none" font-size="8px" fill="#000000" x="59.6488472021602" y="3" font-family="sans-serif">ACTED_IN</text></g><g class="relationship" transform="translate(8.2384594745226 24.71104872156799) rotate(375.01021931459354)"><path class="outline" fill="#A5ABB6" stroke="none" d="M 25 0.5 L 153.83769230375458 0.5 L 153.83769230375458 -0.5 L 25 -0.5 Z M 199.3710251284616 0.5 L 328.2087174322162 0.5 L 328.2087174322162 3.5 L 335.2087174322162 0 L 328.2087174322162 -3.5 L 328.2087174322162 -0.5 L 199.3710251284616 -0.5 Z"/><text text-anchor="middle" pointer-events="none" font-size="8px" fill="#000000" x="176.6043587161081" y="3" font-family="sans-serif">ACTED_IN</text></g><g class="relationship" transform="translate(8.2384594745226 24.71104872156799) rotate(537.3405155443297)"><path class="outline" fill="#A5ABB6" stroke="none" d="M 25 0.5 L 85.33117562733284 0.5 L 85.33117562733284 -0.5 L 25 -0.5 Z M 130.86450845203987 0.5 L 191.1956840793727 0.5 L 191.1956840793727 3.5 L 198.1956840793727 0 L 191.1956840793727 -3.5 L 191.1956840793727 -0.5 L 130.86450845203987 -0.5 Z"/><text text-anchor="middle" pointer-events="none" font-size="8px" fill="#000000" x="108.09784203968636" y="3" transform="rotate(180 108.09784203968636 0)" font-family="sans-serif">ACTED_IN</text></g></g><g class="layer nodes"><g class="node" transform="translate(-6.303593167617429,217.85427489700095)"><circle class="outline" cx="0" cy="0" r="25" fill="#57C7E3" stroke="#23b3d7" stroke-width="2px"/><text text-anchor="middle" pointer-events="none" font-family="sans-serif" dy="1.5625" font-size="25" fill="#2A2C34"/><text text-anchor="middle" pointer-events="none" font-family="sans-serif" dy="1.5625" font-size="25" fill="#2A2C34"/><text text-anchor="middle" pointer-events="none" x="0" y="0" font-size="10px" fill="#2A2C34" font-family="sans-serif"> Cloud</text><text text-anchor="middle" pointer-events="none" x="0" y="10" font-size="10px" fill="#2A2C34" font-family="sans-serif"> Atlas</text></g><g class="node" transform="translate(73.50187159911779,115.53492304611349)"><circle class="outline" cx="0" cy="0" r="25" fill="#F79767" stroke="#f36924" stroke-width="2px"/><text text-anchor="middle" pointer-events="none" font-family="sans-serif" dy="1.5625" font-size="25" fill="#FFFFFF"/><text text-anchor="middle" pointer-events="none" font-family="sans-serif" dy="1.5625" font-size="25" fill="#FFFFFF"/><text text-anchor="middle" pointer-events="none" x="0" y="0" font-size="10px" fill="#FFFFFF" font-family="sans-serif"> Hugo</text><text text-anchor="middle" pointer-events="none" x="0" y="10" font-size="10px" fill="#FFFFFF" font-family="sans-serif"> Weaving</text></g><g class="node" transform="translate(170.32032138857102,199.32848699483304)"><circle class="outline" cx="0" cy="0" r="25" fill="#57C7E3" stroke="#23b3d7" stroke-width="2px"/><text text-anchor="middle" pointer-events="none" font-family="sans-serif" dy="1.5625" font-size="25" fill="#2A2C34"/><text text-anchor="middle" pointer-events="none" font-family="sans-serif" dy="1.5625" font-size="25" fill="#2A2C34"/><text text-anchor="middle" pointer-events="none" x="0" y="0" font-size="10px" fill="#2A2C34" font-family="sans-serif"> V for</text><text text-anchor="middle" pointer-events="none" x="0" y="10" font-size="10px" fill="#2A2C34" font-family="sans-serif"> Vendetta</text></g><g class="node" transform="translate(130.25313165302305,57.32281630660043)"><circle class="outline" cx="0" cy="0" r="25" fill="#57C7E3" stroke="#23b3d7" stroke-width="2px"/><text text-anchor="middle" pointer-events="none" font-family="sans-serif" dy="1.5625" font-size="25" fill="#2A2C34"/><text text-anchor="middle" pointer-events="none" font-family="sans-serif" dy="1.5625" font-size="25" fill="#2A2C34"/><text text-anchor="middle" pointer-events="none" font-family="sans-serif" dy="1.5625" font-size="25" fill="#2A2C34"/><text text-anchor="middle" pointer-events="none" x="0" y="-5" font-size="10px" fill="#2A2C34" font-family="sans-serif"> The</text><text text-anchor="middle" pointer-events="none" x="0" y="5" font-size="10px" fill="#2A2C34" font-family="sans-serif"> Matrix</text><text text-anchor="middle" pointer-events="none" x="0" y="15" font-size="10px" fill="#2A2C34" font-family="sans-serif"> Revol…</text></g><g class="node" transform="translate(356.1567285960862,118.00198143004386)"><circle class="outline" cx="0" cy="0" r="25" fill="#57C7E3" stroke="#23b3d7" stroke-width="2px"/><text text-anchor="middle" pointer-events="none" font-family="sans-serif" dy="1.5625" font-size="25" fill="#2A2C34"/><text text-anchor="middle" pointer-events="none" font-family="sans-serif" dy="1.5625" font-size="25" fill="#2A2C34"/><text text-anchor="middle" pointer-events="none" font-family="sans-serif" dy="1.5625" font-size="25" fill="#2A2C34"/><text text-anchor="middle" pointer-events="none" x="0" y="-5" font-size="10px" fill="#2A2C34" font-family="sans-serif"> The</text><text text-anchor="middle" pointer-events="none" x="0" y="5" font-size="10px" fill="#2A2C34" font-family="sans-serif"> Matrix</text><text text-anchor="middle" pointer-events="none" x="0" y="15" font-size="10px" fill="#2A2C34" font-family="sans-serif"> Reloa…</text></g><g class="node" transform="translate(146.05900731055652,-95.0336611960665)"><circle class="outline" cx="0" cy="0" r="25" fill="#F79767" stroke="#f36924" stroke-width="2px"/><text text-anchor="middle" pointer-events="none" font-family="sans-serif" dy="1.5625" font-size="25" fill="#FFFFFF"/><text text-anchor="middle" pointer-events="none" font-family="sans-serif" dy="1.5625" font-size="25" fill="#FFFFFF"/><text text-anchor="middle" pointer-events="none" x="0" y="0" font-size="10px" fill="#FFFFFF" font-family="sans-serif"> Laurence</text><text text-anchor="middle" pointer-events="none" x="0" y="10" font-size="10px" fill="#FFFFFF" font-family="sans-serif"> Fishbur…</text></g><g class="node" transform="translate(53.6332246788202,216.0409796104944)"><circle class="outline" cx="0" cy="0" r="25" fill="#F79767" stroke="#f36924" stroke-width="2px"/><text text-anchor="middle" pointer-events="none" font-family="sans-serif" dy="1.5625" font-size="25" fill="#FFFFFF"/><text text-anchor="middle" pointer-events="none" x="0" y="5" font-size="10px" fill="#FFFFFF" font-family="sans-serif"> Carrie-A…</text></g><g class="node" transform="translate(115.15507156423806,-23.050153342234665)"><circle class="outline" cx="0" cy="0" r="25" fill="#57C7E3" stroke="#23b3d7" stroke-width="2px"/><text text-anchor="middle" pointer-events="none" font-family="sans-serif" dy="1.5625" font-size="25" fill="#2A2C34"/><text text-anchor="middle" pointer-events="none" x="0" y="5" font-size="10px" fill="#2A2C34" font-family="sans-serif"> Somethi…</text></g><g class="node" transform="translate(8.2384594745226,24.71104872156799)"><circle class="outline" cx="0" cy="0" r="25" fill="#F79767" stroke="#f36924" stroke-width="2px"/><text text-anchor="middle" pointer-events="none" font-family="sans-serif" dy="1.5625" font-size="25" fill="#FFFFFF"/><text text-anchor="middle" pointer-events="none" font-family="sans-serif" dy="1.5625" font-size="25" fill="#FFFFFF"/><text text-anchor="middle" pointer-events="none" x="0" y="0" font-size="10px" fill="#FFFFFF" font-family="sans-serif"> Keanu</text><text text-anchor="middle" pointer-events="none" x="0" y="10" font-size="10px" fill="#FFFFFF" font-family="sans-serif"> Reeves</text></g><g class="node" transform="translate(3.527549965203423,-91.49895018803201)"><circle class="outline" cx="0" cy="0" r="25" fill="#57C7E3" stroke="#23b3d7" stroke-width="2px"/><text text-anchor="middle" pointer-events="none" font-family="sans-serif" dy="1.5625" font-size="25" fill="#2A2C34"/><text text-anchor="middle" pointer-events="none" font-family="sans-serif" dy="1.5625" font-size="25" fill="#2A2C34"/><text text-anchor="middle" pointer-events="none" x="0" y="0" font-size="10px" fill="#2A2C34" font-family="sans-serif"> The</text><text text-anchor="middle" pointer-events="none" x="0" y="10" font-size="10px" fill="#2A2C34" font-family="sans-serif"> Replac…</text></g><g class="node" transform="translate(-86.08540949054036,-34.64459536772499)"><circle class="outline" cx="0" cy="0" r="25" fill="#57C7E3" stroke="#23b3d7" stroke-width="2px"/><text text-anchor="middle" pointer-events="none" font-family="sans-serif" dy="1.5625" font-size="25" fill="#2A2C34"/><text text-anchor="middle" pointer-events="none" font-family="sans-serif" dy="1.5625" font-size="25" fill="#2A2C34"/><text text-anchor="middle" pointer-events="none" x="0" y="0" font-size="10px" fill="#2A2C34" font-family="sans-serif"> Johnny</text><text text-anchor="middle" pointer-events="none" x="0" y="10" font-size="10px" fill="#2A2C34" font-family="sans-serif"> Mnemo…</text></g><g class="node" transform="translate(-73.53857423301982,106.34129341781625)"><circle class="outline" cx="0" cy="0" r="25" fill="#57C7E3" stroke="#23b3d7" stroke-width="2px"/><text text-anchor="middle" pointer-events="none" font-family="sans-serif" dy="1.5625" font-size="25" fill="#2A2C34"/><text text-anchor="middle" pointer-events="none" font-family="sans-serif" dy="1.5625" font-size="25" fill="#2A2C34"/><text text-anchor="middle" pointer-events="none" font-family="sans-serif" dy="1.5625" font-size="25" fill="#2A2C34"/><text text-anchor="middle" pointer-events="none" x="0" y="-5" font-size="10px" fill="#2A2C34" font-family="sans-serif"> The</text><text text-anchor="middle" pointer-events="none" x="0" y="5" font-size="10px" fill="#2A2C34" font-family="sans-serif"> Devil's</text><text text-anchor="middle" pointer-events="none" x="0" y="15" font-size="10px" fill="#2A2C34" font-family="sans-serif"> Advoc…</text></g><g class="node" transform="translate(-214.71682847671372,35.06734952062021)"><circle class="outline" cx="0" cy="0" r="25" fill="#57C7E3" stroke="#23b3d7" stroke-width="2px"/><text text-anchor="middle" pointer-events="none" font-family="sans-serif" dy="1.5625" font-size="25" fill="#2A2C34"/><text text-anchor="middle" pointer-events="none" font-family="sans-serif" dy="1.5625" font-size="25" fill="#2A2C34"/><text text-anchor="middle" pointer-events="none" x="0" y="0" font-size="10px" fill="#2A2C34" font-family="sans-serif"> The</text><text text-anchor="middle" pointer-events="none" x="0" y="10" font-size="10px" fill="#2A2C34" font-family="sans-serif"> Matrix</text></g></g></svg>